<svg width="26" height="25" viewBox="0 0 26 25" fill="none" xmlns="http://www.w3.org/2000/svg">
<path d="M15.4 16.9951H10.6C8.05392 16.9951 5.61212 15.958 3.81178 14.1121C2.01143 12.2662 1 9.76251 1 7.15195V1H5.8V7.15195C5.8 8.45723 6.30571 9.70905 7.20589 10.632C8.10606 11.555 9.32696 12.0735 10.6 12.0735V1H15.4V6.53676L15.436 6.53184C16.7512 6.36358 17.9612 5.70853 18.8385 4.68984C19.7158 3.67116 20.2 2.35899 20.2 1H25L24.5896 3.1052C24.3438 4.36522 23.8206 5.55105 23.0598 6.57221C22.2991 7.59338 21.321 8.42291 20.2 8.99754V8.99754C21.29 9.36989 22.2623 10.0359 23.0152 10.9257C23.768 11.8156 24.2737 12.8967 24.4792 14.0557L25 16.9951H20.2C20.2 15.6361 19.7158 14.3239 18.8385 13.3052C17.9612 12.2865 16.7512 11.6315 15.436 11.4632V17L15.4 16.9951Z" stroke="#2E5FAA" stroke-width="2" stroke-linecap="round" stroke-linejoin="round"/>
</svg>
