<svg width="24" height="24" viewBox="0 0 24 24" fill="none" xmlns="http://www.w3.org/2000/svg">
<path d="M20.5025 3.49206C19.3968 2.38078 18.0798 1.49967 16.6283 0.90013C15.1768 0.300592 13.6199 -0.00537612 12.0483 7.14833e-05C5.46336 7.14833e-05 0.0965434 5.34005 0.0965434 11.892C0.0965434 13.992 0.651315 16.032 1.6885 17.832L6.10352e-05 24L6.3317 22.344C8.08044 23.292 10.0463 23.796 12.0483 23.796C18.6332 23.796 24 18.456 24 11.904C24 8.72405 22.7578 5.73605 20.5025 3.49206ZM12.0483 21.78C10.2633 21.78 8.51461 21.3 6.98295 20.4L6.62115 20.184L2.85834 21.168L3.85935 17.52L3.61814 17.148C2.62648 15.5724 2.09992 13.7511 2.09855 11.892C2.09855 6.44405 6.56084 2.00407 12.0362 2.00407C14.6895 2.00407 17.1859 3.03606 19.0553 4.90806C19.9809 5.82481 20.7144 6.91525 21.2133 8.11616C21.7123 9.31707 21.9667 10.6046 21.9618 11.904C21.9859 17.352 17.5236 21.78 12.0483 21.78ZM17.4995 14.388C17.198 14.244 15.7266 13.524 15.4613 13.416C15.1839 13.32 14.991 13.272 14.7859 13.56C14.5809 13.86 14.0141 14.532 13.8452 14.724C13.6764 14.928 13.4955 14.952 13.194 14.796C12.8925 14.652 11.9277 14.328 10.794 13.32C9.90154 12.528 9.31059 11.556 9.12968 11.256C8.96084 10.956 9.10556 10.8 9.26234 10.644C9.39501 10.512 9.56385 10.296 9.70858 10.128C9.8533 9.96004 9.9136 9.82804 10.0101 9.63604C10.1066 9.43204 10.0583 9.26404 9.98596 9.12004C9.9136 8.97605 9.31059 7.51205 9.06938 6.91205C8.82817 6.33605 8.57491 6.40805 8.39401 6.39605H7.81511C7.61009 6.39605 7.29652 6.46805 7.01913 6.76805C6.75381 7.06805 5.98195 7.78805 5.98195 9.25204C5.98195 10.716 7.05532 12.132 7.20004 12.324C7.34476 12.528 9.31059 15.528 12.3015 16.812C13.0131 17.124 13.5679 17.304 14.002 17.436C14.7136 17.664 15.3648 17.628 15.8834 17.556C16.4623 17.472 17.6563 16.836 17.8975 16.14C18.1508 15.444 18.1508 14.856 18.0663 14.724C17.9819 14.592 17.801 14.532 17.4995 14.388Z" fill="#31AA47"/>
</svg>
