<svg width="276" height="72" viewBox="0 0 276 72" fill="none" xmlns="http://www.w3.org/2000/svg">
<g clip-path="url(#clip0_68_5792)">
<path d="M53.8503 6.34421e-05C50.2849 -0.0279054 46.7917 1.00808 43.8137 2.97663C40.8357 4.94517 38.5071 7.75756 37.1233 11.057C35.7396 14.3564 35.3631 17.9941 36.0415 21.5087C36.72 25.0233 38.4228 28.2564 40.9341 30.7977C43.4453 33.3391 46.6517 35.0741 50.1466 35.7829C53.6414 36.4917 57.2672 36.1422 60.5639 34.7787C63.8606 33.4152 66.6797 31.0993 68.6635 28.1246C70.6474 25.15 71.7065 21.6506 71.7066 18.0706C71.7067 13.3024 69.83 8.7273 66.4852 5.34243C63.1405 1.95757 58.5989 0.0373154 53.8503 6.34421e-05Z" fill="#2E5FAA"/>
<path d="M53.8502 13.6941C53.2221 13.5794 52.5766 13.6048 51.9592 13.7682C51.3419 13.9317 50.7679 14.2292 50.2778 14.64C49.7876 15.0507 49.3933 15.5646 49.1227 16.1452C48.8522 16.7258 48.7119 17.359 48.7119 18.0001C48.7119 18.6411 48.8522 19.2743 49.1227 19.8549C49.3933 20.4355 49.7876 20.9493 50.2778 21.3601C50.7679 21.7708 51.3419 22.0684 51.9592 22.2318C52.5766 22.3953 53.2221 22.4206 53.8502 22.3059C54.8545 22.1226 55.7628 21.5912 56.4169 20.8043C57.0709 20.0174 57.4292 19.025 57.4292 18.0001C57.4292 16.9751 57.0709 15.9827 56.4169 15.1958C55.7628 14.4089 54.8545 13.8774 53.8502 13.6941Z" fill="#5AC1D2"/>
<path d="M17.9963 6.34421e-05C14.4309 -0.0279054 10.9377 1.00808 7.95967 2.97663C4.98165 4.94517 2.65307 7.75756 1.26934 11.057C-0.114396 14.3564 -0.490908 17.9941 0.187548 21.5087C0.866004 25.0233 2.56886 28.2564 5.08009 30.7977C7.59131 33.3391 10.7977 35.0741 14.2926 35.7829C17.7874 36.4917 21.4132 36.1422 24.7099 34.7787C28.0066 33.4152 30.8257 31.0993 32.8095 28.1246C34.7933 25.15 35.8525 21.6506 35.8526 18.0706C35.8527 13.3024 33.976 8.7273 30.6312 5.34243C27.2865 1.95757 22.7449 0.0373154 17.9963 6.34421e-05Z" fill="#5AC1D2"/>
<path d="M17.997 13.6941C17.3688 13.5794 16.7233 13.6048 16.106 13.7682C15.4887 13.9317 14.9146 14.2292 14.4245 14.64C13.9343 15.0507 13.54 15.5646 13.2695 16.1452C12.9989 16.7258 12.8586 17.359 12.8586 18.0001C12.8586 18.6411 12.9989 19.2743 13.2695 19.8549C13.54 20.4355 13.9343 20.9493 14.4245 21.3601C14.9146 21.7708 15.4887 22.0684 16.106 22.2318C16.7233 22.3953 17.3688 22.4206 17.997 22.3059C19.0012 22.1226 19.9096 21.5912 20.5636 20.8043C21.2177 20.0174 21.5759 19.025 21.5759 18.0001C21.5759 16.9751 21.2177 15.9827 20.5636 15.1958C19.9096 14.4089 19.0012 13.8774 17.997 13.6941Z" fill="#2E5FAA"/>
<path d="M53.8503 36.0001C50.2849 35.9721 46.7917 37.0081 43.8137 38.9766C40.8357 40.9452 38.5071 43.7576 37.1233 47.057C35.7396 50.3564 35.3631 53.9941 36.0415 57.5087C36.72 61.0233 38.4228 64.2564 40.9341 66.7977C43.4453 69.3391 46.6517 71.0741 50.1466 71.7829C53.6414 72.4917 57.2672 72.1422 60.5639 70.7787C63.8606 69.4152 66.6797 67.0993 68.6635 64.1246C70.6474 61.15 71.7065 57.6506 71.7066 54.0706C71.7067 49.3024 69.83 44.7273 66.4852 41.3424C63.1405 37.9576 58.5989 36.0373 53.8503 36.0001Z" fill="#31AA47"/>
<path d="M53.8502 49.8354C53.2846 49.8164 52.7209 49.9119 52.1928 50.1163C51.6647 50.3206 51.183 50.6296 50.7763 51.0248C50.3696 51.42 50.0463 51.8933 49.8256 52.4166C49.6048 52.9399 49.4913 53.5024 49.4916 54.0707C49.6742 55.079 50.2034 55.9911 50.9871 56.6478C51.7708 57.3046 52.7592 57.6643 53.7799 57.6643C54.8007 57.6643 55.789 57.3046 56.5727 56.6478C57.3564 55.9911 57.8857 55.079 58.0683 54.0707C58.0683 52.9474 57.6239 51.8701 56.8328 51.0758C56.0418 50.2816 54.9689 49.8354 53.8502 49.8354Z" fill="#FED059"/>
<path d="M17.9963 36.0001C14.4309 35.9721 10.9377 37.0081 7.95967 38.9766C4.98165 40.9452 2.65307 43.7576 1.26934 47.057C-0.114396 50.3564 -0.490908 53.9941 0.187548 57.5087C0.866004 61.0233 2.56886 64.2564 5.08009 66.7977C7.59131 69.3391 10.7977 71.0741 14.2926 71.7829C17.7874 72.4917 21.4132 72.1422 24.7099 70.7787C28.0066 69.4152 30.8257 67.0993 32.8095 64.1246C34.7933 61.15 35.8525 57.6506 35.8526 54.0706C35.8527 49.3024 33.976 44.7273 30.6312 41.3424C27.2865 37.9576 22.7449 36.0373 17.9963 36.0001Z" fill="#FED059"/>
<path d="M17.9969 49.8354C17.4313 49.8164 16.8677 49.9119 16.3396 50.1163C15.8115 50.3206 15.3297 50.6296 14.923 51.0248C14.5163 51.42 14.193 51.8933 13.9723 52.4166C13.7516 52.9399 13.638 53.5024 13.6383 54.0707C13.8209 55.079 14.3502 55.9911 15.1339 56.6478C15.9175 57.3046 16.9059 57.6643 17.9266 57.6643C18.9474 57.6643 19.9358 57.3046 20.7194 56.6478C21.5031 55.9911 22.0324 55.079 22.215 54.0707C22.215 52.9474 21.7706 51.8701 20.9795 51.0758C20.1885 50.2816 19.1156 49.8354 17.9969 49.8354Z" fill="#31AA47"/>
<path d="M103.482 29.7883C102.684 30.4288 101.692 30.7774 100.67 30.7766H94.4839V23.4354H100.67C101.181 23.4012 101.694 23.4711 102.177 23.641C102.66 23.8108 103.104 24.077 103.482 24.4236C103.842 24.7701 104.127 25.1868 104.321 25.6481C104.514 26.1093 104.612 26.6054 104.607 27.1059C104.6 28.1142 104.196 29.0788 103.482 29.7883ZM94.4839 10.5883H100.249L101.795 10.8706L102.92 11.5765C103.233 11.8975 103.473 12.2829 103.623 12.706C103.868 13.1332 103.966 13.629 103.904 14.1178C103.924 14.5867 103.847 15.0547 103.678 15.4921C103.508 15.9296 103.25 16.3269 102.92 16.6589C102.17 17.2729 101.214 17.5759 100.249 17.5059H94.4839V10.5883ZM110.372 23.153C109.629 21.815 108.502 20.7327 107.138 20.0471C108.244 19.2206 109.156 18.1604 109.809 16.9413C110.415 15.7095 110.751 14.3615 110.794 12.9883C110.805 11.8503 110.557 10.7248 110.07 9.69729C109.583 8.66979 108.869 7.76746 107.982 7.05893C106.033 5.38106 103.515 4.52152 100.952 4.65891H87.5945V37.2706H101.373C104.038 37.2998 106.609 36.2873 108.544 34.4471C109.529 33.651 110.32 32.6393 110.856 31.4892C111.392 30.3392 111.659 29.0814 111.637 27.8118C111.651 26.1714 111.213 24.559 110.372 23.153Z" fill="#2E5FAA"/>
<path d="M124.432 11.1529V19.6235H130.056C130.675 19.6567 131.295 19.5609 131.876 19.3422C132.456 19.1236 132.986 18.7868 133.43 18.353C133.852 17.9882 134.186 17.5314 134.405 17.0176C134.624 16.5038 134.724 15.9465 134.696 15.3882C134.73 14.5965 134.535 13.8118 134.134 13.1294C133.797 12.4929 133.25 11.9938 132.587 11.7176C131.811 11.2989 130.935 11.1035 130.056 11.1529H124.432ZM132.446 32.3294L128.931 26.1177H124.432V37.2705H117.402V4.65882H130.478C132.472 4.62549 134.446 5.06054 136.243 5.92936C137.934 6.85998 139.347 8.22751 140.336 9.89047C141.325 11.5534 141.853 13.4515 141.867 15.3882C141.889 17.3991 141.301 19.3691 140.179 21.0353C139.204 22.7169 137.729 24.0499 135.961 24.847L143.413 37.8353H141.164C139.369 37.7165 137.633 37.151 136.111 36.1898C134.589 35.2285 133.33 33.9018 132.446 32.3294Z" fill="#2E5FAA"/>
<path d="M163.238 31.2C165.048 31.1976 166.831 30.762 168.44 29.9294C169.943 29.076 171.165 27.8002 171.955 26.2588C172.795 24.9015 173.309 23.3666 173.457 21.7754C173.605 20.1842 173.382 18.5803 172.806 17.0904C172.23 15.6006 171.317 14.2656 170.139 13.191C168.961 12.1164 167.551 11.3315 166.019 10.8985C164.487 10.4655 162.875 10.3962 161.312 10.696C159.749 10.9959 158.276 11.6566 157.011 12.6261C155.746 13.5956 154.722 14.8473 154.022 16.2823C153.321 17.7172 152.962 19.2961 152.974 20.8941C152.933 22.2774 153.174 23.6546 153.681 24.9412C154.189 26.2278 154.953 27.3968 155.927 28.3765C156.883 29.3316 158.027 30.0759 159.286 30.5621C160.545 31.0483 161.891 31.2655 163.238 31.2ZM163.238 37.9764C160.949 38.047 158.669 37.6449 156.541 36.795C154.413 35.9451 152.481 34.6654 150.865 33.0353C149.21 31.4896 147.902 29.6069 147.029 27.5132C146.156 25.4195 145.738 23.1629 145.803 20.8941C145.756 18.6277 146.182 16.3764 147.054 14.2853C147.926 12.1943 149.224 10.3097 150.865 8.75289C152.488 7.14132 154.424 5.88326 156.553 5.05735C158.682 4.23143 160.958 3.85548 163.238 3.95294C166.276 3.89637 169.278 4.62562 171.955 6.07059C174.581 7.53352 176.767 9.6791 178.282 12.2823C179.704 14.9258 180.43 17.8901 180.391 20.8941C180.483 23.1535 180.092 25.4064 179.243 27.5008C178.394 29.5953 177.107 31.4825 175.47 33.0353C173.876 34.6546 171.968 35.9285 169.864 36.7784C167.76 37.6282 165.505 38.036 163.238 37.9764Z" fill="#2E5FAA"/>
<path d="M196.701 37.8353C193.399 37.9796 190.156 36.9274 187.562 34.8706C186.436 33.8375 185.55 32.5686 184.967 31.1536C184.384 29.7386 184.118 28.2121 184.187 26.6824H191.218C191.208 27.3647 191.352 28.0405 191.639 28.6589C191.944 29.2626 192.376 29.7925 192.905 30.2118C193.406 30.6038 193.979 30.8918 194.592 31.0589L196.701 31.3412C197.984 31.3332 199.243 30.9929 200.357 30.353C200.847 30.0694 201.25 29.6562 201.523 29.1584C201.796 28.6605 201.927 28.0971 201.903 27.5295C201.89 27.0462 201.795 26.5687 201.622 26.1177C201.341 25.8353 201.06 25.4118 200.638 25.2706C200.25 24.899 199.76 24.6531 199.232 24.5647L197.545 24L195.436 23.4353L193.748 23.0118L192.061 22.5883L190.515 22.0235L188.968 21.1765C188.447 20.9927 187.969 20.7044 187.562 20.3294L186.296 19.2C185.91 18.7478 185.622 18.2186 185.453 17.6471C185.181 17.1141 184.992 16.5429 184.89 15.953C184.728 15.2581 184.634 14.5488 184.609 13.8353C184.559 12.4456 184.824 11.0626 185.384 9.79081C185.945 8.51903 186.785 7.39177 187.843 6.49413C190.31 4.65023 193.351 3.74931 196.42 3.95297C199.531 3.77619 202.594 4.78452 204.996 6.7765C206.054 7.75894 206.88 8.9655 207.415 10.3086C207.95 11.6517 208.181 13.0976 208.09 14.5412H201.2C201.222 13.9494 201.107 13.3606 200.863 12.8215C200.619 12.2824 200.253 11.8078 199.794 11.4353C198.779 10.8352 197.632 10.4955 196.455 10.4463C195.278 10.397 194.107 10.6397 193.045 11.1529C192.615 11.3479 192.252 11.6666 192.002 12.0686C191.751 12.4706 191.625 12.938 191.639 13.4118C191.633 13.8516 191.73 14.2866 191.921 14.6824C192.126 15.0318 192.416 15.3232 192.764 15.5295C193.168 15.8773 193.651 16.1197 194.17 16.2353L195.857 16.8L197.966 17.2235L200.075 17.9294L202.325 18.6353L204.434 19.4824L206.262 20.7529L207.808 22.4471L208.652 24.5647C208.941 25.4775 209.083 26.4306 209.074 27.3882C209.135 29.4483 208.545 31.4749 207.387 33.1765C206.294 34.7985 204.719 36.0335 202.887 36.7059C200.934 37.5373 198.821 37.923 196.701 37.8353Z" fill="#2E5FAA"/>
<path d="M242.256 37.8353H238.6C236.963 37.7138 235.371 37.2337 233.938 36.4289C232.505 35.624 231.265 34.5139 230.305 33.1765L221.728 21.3176V37.2705H214.698V4.65881H221.728V19.6235L232.414 4.65881H240.569L229.461 20.1882L242.256 37.8353Z" fill="#2E5FAA"/>
<path d="M258.706 31.2C260.52 31.2329 262.312 30.7952 263.908 29.9294C265.453 29.0846 266.723 27.8101 267.564 26.2588C268.404 24.9015 268.918 23.3666 269.066 21.7754C269.214 20.1842 268.991 18.5803 268.415 17.0904C267.839 15.6006 266.926 14.2657 265.748 13.191C264.57 12.1164 263.159 11.3316 261.627 10.8985C260.095 10.4655 258.484 10.3962 256.921 10.6961C255.357 10.9959 253.885 11.6566 252.62 12.6261C251.354 13.5956 250.331 14.8474 249.63 16.2823C248.93 17.7172 248.571 19.2961 248.583 20.8941C248.542 22.2774 248.782 23.6546 249.29 24.9412C249.798 26.2278 250.562 27.3968 251.535 28.3765C252.475 29.3137 253.596 30.0478 254.83 30.5334C256.063 31.019 257.382 31.2459 258.706 31.2ZM258.706 37.9764C256.42 38.0225 254.147 37.6091 252.023 36.7605C249.898 35.912 247.963 34.6454 246.333 33.0353C244.724 31.4609 243.457 29.5699 242.61 27.4807C241.763 25.3914 241.355 23.149 241.412 20.8941C241.372 18.6414 241.787 16.4039 242.633 14.3171C243.479 12.2302 244.738 10.3373 246.333 8.7529C247.97 7.16164 249.909 5.9168 252.035 5.09225C254.16 4.26771 256.429 3.88031 258.706 3.95295C261.787 3.91523 264.83 4.64268 267.564 6.0706C270.178 7.50017 272.327 9.65702 273.75 12.2823C275.278 14.8892 276.057 17.87 276 20.8941C276.092 23.1535 275.7 25.4064 274.851 27.5008C274.003 29.5953 272.716 31.4825 271.079 33.0353C269.463 34.6654 267.531 35.9451 265.403 36.795C263.275 37.645 260.995 38.047 258.706 37.9764Z" fill="#2E5FAA"/>
<path d="M90.6877 66.9176C89.779 66.7098 88.9194 66.3262 88.1569 65.7882L89.2817 63.247C89.9196 63.735 90.6317 64.1164 91.3907 64.3764C92.2062 64.6532 93.0607 64.7962 93.9215 64.7999C94.65 64.8581 95.3803 64.7114 96.0305 64.3764C96.2312 64.2608 96.4004 64.0972 96.523 63.9002C96.6456 63.7032 96.718 63.4788 96.7335 63.247C96.7552 63.0797 96.7267 62.9097 96.6515 62.7588C96.5764 62.6079 96.4581 62.4829 96.3117 62.3999L95.3275 61.8353L93.6403 61.4118L90.9689 60.5647C90.2776 60.2745 89.6549 59.8416 89.1411 59.2941C88.6548 58.6448 88.4065 57.847 88.4381 57.0352C88.3944 56.2219 88.644 55.4201 89.1411 54.7765C89.6236 54.0354 90.3064 53.4478 91.1095 53.0823C92.199 52.7224 93.337 52.532 94.4839 52.5176L97.1553 52.7999C97.9499 53.0155 98.7081 53.3486 99.4049 53.7882L98.4207 56.3294C97.2143 55.6493 95.866 55.2626 94.4839 55.2C93.7554 55.1418 93.0251 55.2885 92.3749 55.6235C92.1634 55.7616 91.9888 55.9496 91.8662 56.1711C91.7437 56.3925 91.677 56.6408 91.6719 56.8941C91.6855 57.145 91.7729 57.3862 91.9231 57.5872C92.0733 57.7883 92.2794 57.9401 92.5155 58.0235L94.7651 58.7294C95.6865 58.8252 96.5876 59.0633 97.4365 59.4353C98.148 59.6871 98.7792 60.1259 99.2644 60.7059C99.5548 61.002 99.78 61.3561 99.9253 61.7452C100.071 62.1344 100.133 62.5498 100.108 62.9647C100.092 63.7694 99.8483 64.5529 99.4049 65.2235C98.8987 65.9673 98.1546 66.5152 97.2959 66.7765C96.2399 67.2684 95.0853 67.5099 93.9215 67.4823C92.8169 67.5122 91.7174 67.3202 90.6877 66.9176Z" fill="#2E5FAA"/>
<path d="M109.388 66.4941C108.227 65.8705 107.255 64.9437 106.576 63.8117C105.849 62.6743 105.463 61.3514 105.463 60C105.463 58.6487 105.849 57.3257 106.576 56.1883C107.218 55.0263 108.199 54.0901 109.388 53.5059C110.578 52.8027 111.945 52.4595 113.325 52.5176C114.486 52.5172 115.635 52.7575 116.699 53.2235C117.679 53.6186 118.548 54.2488 119.23 55.0589L117.121 57.0353C116.671 56.5029 116.111 56.0755 115.479 55.7829C114.848 55.4903 114.161 55.3396 113.465 55.3411C112.64 55.3778 111.83 55.5694 111.075 55.9059C110.386 56.2815 109.841 56.8779 109.528 57.6C109.063 58.3131 108.814 59.1473 108.814 60C108.814 60.8528 109.063 61.6869 109.528 62.4C109.67 62.7494 109.879 63.0669 110.145 63.3337C110.411 63.6004 110.727 63.811 111.075 63.953C111.796 64.3962 112.62 64.6398 113.465 64.6588C114.175 64.6644 114.877 64.501 115.512 64.182C116.148 63.863 116.699 63.3975 117.121 62.8236L119.23 64.8C118.553 65.6495 117.686 66.3267 116.699 66.7765C115.537 67.2836 114.277 67.5214 113.011 67.4725C111.746 67.4237 110.507 67.0893 109.388 66.4941Z" fill="#2E5FAA"/>
<path d="M138.773 52.8V67.2H135.399V61.2706H128.931V67.2H125.557V52.8H128.931V58.447H135.399V52.8H138.773Z" fill="#2E5FAA"/>
<path d="M155.505 63.953C156.152 63.5864 156.686 63.0494 157.051 62.4C157.423 61.6549 157.616 60.8332 157.616 60.0001C157.616 59.1669 157.423 58.3452 157.051 57.6C156.648 56.9416 156.123 56.3666 155.505 55.9059C154.75 55.5694 153.94 55.3778 153.115 55.3412C152.335 55.3783 151.57 55.5702 150.865 55.9059C150.169 56.3183 149.589 56.9012 149.178 57.6C148.807 58.3452 148.613 59.1669 148.613 60.0001C148.613 60.8332 148.807 61.6549 149.178 62.4C149.552 63.0922 150.146 63.6388 150.865 63.953C151.533 64.3981 152.313 64.643 153.115 64.6589C153.96 64.6399 154.784 64.3963 155.505 63.953ZM149.178 66.4941C147.989 65.9099 147.008 64.9737 146.366 63.8118C145.639 62.6744 145.253 61.3514 145.253 60.0001C145.253 58.6487 145.639 57.3257 146.366 56.1883C147.008 55.0264 147.989 54.0901 149.178 53.5059C150.374 52.8172 151.737 52.475 153.115 52.5176C154.537 52.4777 155.944 52.8189 157.192 53.5059C158.321 54.1727 159.283 55.0903 160.004 56.1883C160.644 57.356 160.98 58.6672 160.98 60.0001C160.98 61.3329 160.644 62.6441 160.004 63.8118C159.283 64.9098 158.321 65.8274 157.192 66.4941C155.921 67.1182 154.529 67.4555 153.115 67.4824C151.745 67.4583 150.398 67.1202 149.178 66.4941Z" fill="#2E5FAA"/>
<path d="M176.876 63.953C177.556 63.6314 178.103 63.0823 178.423 62.4C178.794 61.6548 178.987 60.8332 178.987 60C178.987 59.1669 178.794 58.3452 178.423 57.6C178.061 56.9109 177.529 56.3273 176.876 55.9059C176.122 55.5694 175.311 55.3778 174.486 55.3411C173.706 55.3782 172.942 55.5702 172.236 55.9059C171.547 56.2815 171.003 56.8779 170.69 57.6C170.319 58.3452 170.125 59.1669 170.125 60C170.125 60.8332 170.319 61.6548 170.69 62.4C170.831 62.7494 171.041 63.067 171.307 63.3337C171.572 63.6004 171.888 63.811 172.236 63.953C172.904 64.3981 173.685 64.643 174.486 64.6588C175.331 64.6398 176.156 64.3963 176.876 63.953ZM170.549 66.4941C169.388 65.8705 168.417 64.9437 167.737 63.8117C167.097 62.644 166.762 61.3329 166.762 60C166.762 58.6672 167.097 57.356 167.737 56.1883C168.417 55.0562 169.388 54.1295 170.549 53.5059C171.745 52.8171 173.108 52.475 174.486 52.5176C175.911 52.456 177.324 52.7985 178.563 53.5059C179.692 54.1726 180.654 55.0903 181.375 56.1883C182.015 57.356 182.351 58.6672 182.351 60C182.351 61.3329 182.015 62.644 181.375 63.8117C180.654 64.9097 179.692 65.8273 178.563 66.4941C177.299 67.1365 175.903 67.4748 174.486 67.4824C173.116 67.4582 171.769 67.1202 170.549 66.4941Z" fill="#2E5FAA"/>
<path d="M188.968 52.8H192.342V64.5177H199.513V67.2H188.968V52.8Z" fill="#2E5FAA"/>
</g>
<defs>
<clipPath id="clip0_68_5792">
<rect width="276" height="72" fill="white"/>
</clipPath>
</defs>
</svg>
