<svg width="276" height="72" viewBox="0 0 276 72" fill="none" xmlns="http://www.w3.org/2000/svg">
<g clip-path="url(#clip0_68_5822)">
<path d="M53.7426 -2.20252e-06C49.0015 -2.20252e-06 44.4546 1.8904 41.1022 5.25533C37.7497 8.62027 35.8663 13.1841 35.8663 17.9429C35.8513 20.3088 36.3027 22.6542 37.1943 24.8444C38.0859 27.0345 39.4003 29.026 41.0617 30.7043C42.7232 32.3826 44.6989 33.7145 46.8752 34.6233C49.0515 35.5322 51.3854 36 53.7426 36C58.5138 36 63.0897 34.0976 66.4635 30.7112C69.8373 27.3248 71.7327 22.7319 71.7327 17.9429C71.7328 15.5769 71.2666 13.2343 70.3612 11.0499C69.4557 8.8655 68.1287 6.88242 66.4567 5.21477C64.7846 3.54712 62.8005 2.22783 60.6185 1.33287C58.4365 0.437902 56.0997 -0.0150719 53.7426 -2.20252e-06Z" fill="#32AA48"/>
<path d="M53.7425 13.7143C52.6343 13.7432 51.5794 14.198 50.7955 14.9848C50.0116 15.7717 49.5585 16.8305 49.5297 17.9429C49.5293 19.0751 49.9695 20.1628 50.7565 20.974C51.5434 21.7853 52.6149 22.2559 53.7425 22.2857C54.3055 22.2859 54.8628 22.1729 55.3815 21.9533C55.9002 21.7337 56.3698 21.4119 56.7625 21.0071C57.1553 20.6022 57.4632 20.1225 57.6681 19.5962C57.873 19.0699 57.9706 18.5077 57.9554 17.9429C57.9554 16.8214 57.5116 15.7458 56.7215 14.9528C55.9315 14.1598 54.8599 13.7143 53.7425 13.7143Z" fill="#FECF57"/>
<path d="M17.8763 5.88326e-05C13.1352 5.88326e-05 8.58833 1.89046 5.23588 5.2554C1.88344 8.62033 5.74811e-05 13.1842 5.74811e-05 17.9429C-0.0149562 20.3088 0.436336 22.6543 1.32798 24.8444C2.21962 27.0346 3.53401 29.0261 5.19547 30.7044C6.85693 32.3826 8.83268 33.7145 11.009 34.6234C13.1853 35.5322 15.5192 36.0001 17.8763 36.0001C20.2388 36.0001 22.5782 35.533 24.7608 34.6255C26.9435 33.7181 28.9267 32.388 30.5972 30.7112C32.2677 29.0345 33.5929 27.0439 34.497 24.8531C35.4011 22.6623 35.8664 20.3142 35.8664 17.9429C35.8664 15.577 35.4003 13.2344 34.4948 11.05C33.5894 8.86556 32.2624 6.88248 30.5904 5.21483C28.9183 3.54718 26.9342 2.22789 24.7522 1.33293C22.5702 0.437964 20.2334 -0.0150108 17.8763 5.88326e-05Z" fill="#FECF57"/>
<path d="M17.8762 13.7143C16.768 13.7432 15.7131 14.198 14.9292 14.9848C14.1453 15.7717 13.6922 16.8305 13.6634 17.9429C13.663 19.0751 14.1032 20.1628 14.8901 20.974C15.6771 21.7853 16.7486 22.2559 17.8762 22.2857C18.4392 22.2859 18.9965 22.1729 19.5152 21.9533C20.0339 21.7337 20.5034 21.4119 20.8962 21.0071C21.2889 20.6022 21.5968 20.1225 21.8017 19.5962C22.0066 19.0699 22.1043 18.5077 22.0891 17.9429C22.0891 16.8214 21.6453 15.7458 20.8552 14.9528C20.0651 14.1598 18.9936 13.7143 17.8762 13.7143Z" fill="#32AA48"/>
<path d="M53.7426 36C49.0015 36 44.4546 37.8904 41.1022 41.2553C37.7497 44.6203 35.8663 49.1841 35.8663 53.9429C35.8513 56.3088 36.3027 58.6542 37.1943 60.8444C38.0859 63.0345 39.4003 65.026 41.0617 66.7043C42.7232 68.3826 44.6989 69.7145 46.8752 70.6233C49.0515 71.5322 51.3854 72 53.7426 72C58.5138 72 63.0897 70.0976 66.4635 66.7112C69.8373 63.3248 71.7327 58.7319 71.7327 53.9429C71.7328 51.5769 71.2666 49.2343 70.3612 47.0499C69.4557 44.8655 68.1287 42.8824 66.4567 41.2148C64.7846 39.5471 62.8005 38.2278 60.6185 37.3329C58.4365 36.4379 56.0997 35.9849 53.7426 36Z" fill="#2C5FAA"/>
<path d="M53.7425 49.7143C52.6343 49.7432 51.5794 50.198 50.7955 50.9848C50.0116 51.7717 49.5585 52.8305 49.5297 53.9429C49.5293 55.0751 49.9695 56.1628 50.7565 56.974C51.5434 57.7853 52.6149 58.2559 53.7425 58.2857C54.3055 58.2859 54.8628 58.1729 55.3815 57.9533C55.9002 57.7337 56.3698 57.4119 56.7625 57.0071C57.1553 56.6022 57.4632 56.1225 57.6681 55.5962C57.873 55.0699 57.9706 54.5077 57.9554 53.9429C57.9554 52.8214 57.5116 51.7458 56.7215 50.9528C55.9315 50.1598 54.8599 49.7143 53.7425 49.7143Z" fill="#5CC1D3"/>
<path d="M17.9901 36H17.8762C8.00346 36 0 44.0333 0 53.9429V54.0571C0 63.9667 8.00346 72 17.8762 72H17.9901C27.8629 72 35.8663 63.9667 35.8663 54.0571V53.9429C35.8663 44.0333 27.8629 36 17.9901 36Z" fill="#5CC1D3"/>
<path d="M17.8762 49.7143C16.768 49.7432 15.7131 50.198 14.9292 50.9848C14.1453 51.7717 13.6922 52.8305 13.6634 53.9429C13.663 55.0751 14.1032 56.1628 14.8901 56.974C15.6771 57.7853 16.7486 58.2559 17.8762 58.2857C18.4392 58.2859 18.9965 58.1729 19.5152 57.9533C20.0339 57.7337 20.5034 57.4119 20.8962 57.0071C21.2889 56.6022 21.5968 56.1225 21.8017 55.5962C22.0066 55.0699 22.1043 54.5077 22.0891 53.9429C22.0891 52.8214 21.6453 51.7458 20.8552 50.9528C20.0651 50.1598 18.9936 49.7143 17.8762 49.7143Z" fill="#2C5FAA"/>
<path d="M110.332 23.2C109.562 21.8355 108.415 20.7241 107.03 20C108.169 19.2002 109.105 18.1433 109.762 16.9143C110.412 15.685 110.727 14.3049 110.673 12.9143C110.684 11.7826 110.444 10.6626 109.971 9.63501C109.499 8.60742 108.805 7.69775 107.941 6.97144C106 5.33744 103.526 4.48245 100.995 4.57143H87.5594V37.2571H101.337C102.664 37.3002 103.985 37.0688 105.219 36.5773C106.453 36.0858 107.573 35.3446 108.51 34.4C110.081 33.0491 111.126 31.1838 111.46 29.1341C111.793 27.0845 111.394 24.9825 110.332 23.2ZM94.3911 10.6286H100.312C100.817 10.5811 101.325 10.6596 101.792 10.8571C102.209 11.0161 102.595 11.2483 102.931 11.5429C103.261 11.8514 103.498 12.2477 103.614 12.6857C103.832 13.1102 103.949 13.5796 103.955 14.0571C103.979 14.526 103.899 14.9943 103.722 15.4289C103.545 15.8634 103.275 16.2534 102.931 16.5714C102.582 16.8991 102.169 17.1498 101.718 17.3073C101.267 17.4648 100.788 17.5255 100.312 17.4857H94.3911V10.6286ZM103.386 29.7143C103.026 30.0655 102.597 30.3382 102.127 30.5152C101.657 30.6922 101.155 30.7697 100.653 30.7428H94.3911V23.4286H100.653C101.155 23.4017 101.657 23.4792 102.127 23.6563C102.597 23.8333 103.026 24.1059 103.386 24.4571C103.766 24.7763 104.067 25.18 104.265 25.6363C104.463 26.0926 104.552 26.5889 104.525 27.0857C104.543 27.5815 104.45 28.075 104.253 28.5299C104.056 28.9849 103.76 29.3896 103.386 29.7143Z" fill="#32AA48"/>
<path d="M132.421 32.3428L128.891 26.0571H124.337V37.2571H117.277V4.5714H130.485C132.501 4.56561 134.49 5.03539 136.292 5.94285C137.982 6.80217 139.372 8.15742 140.277 9.82855C141.307 11.5091 141.822 13.4566 141.757 15.4285C141.809 17.4149 141.253 19.3694 140.163 21.0285C139.157 22.7149 137.641 24.0359 135.837 24.8L143.124 37.2571H140.847C139.137 37.2476 137.46 36.7889 135.981 35.9267C134.503 35.0646 133.276 33.829 132.421 32.3428ZM124.337 11.0857V19.5428H130.03C131.27 19.5999 132.487 19.1926 133.446 18.4C133.852 17.9976 134.172 17.5166 134.387 16.9862C134.603 16.4557 134.708 15.8869 134.698 15.3143C134.686 14.5548 134.491 13.8096 134.129 13.1428C133.78 12.4811 133.218 11.9574 132.535 11.6571C131.749 11.2917 130.895 11.097 130.03 11.0857H124.337Z" fill="#32AA48"/>
<path d="M163.163 37.9428C160.873 37.995 158.595 37.5872 156.464 36.7433C154.332 35.8993 152.391 34.6364 150.753 33.0285C149.144 31.4604 147.878 29.5736 147.035 27.4881C146.193 25.4026 145.791 23.1639 145.856 20.9142C145.777 18.6628 146.172 16.4199 147.016 14.3323C147.859 12.2447 149.133 10.3595 150.753 8.79998C152.375 7.17051 154.314 5.89336 156.449 5.04796C158.584 4.20255 160.87 3.80693 163.163 3.88567C166.225 3.82879 169.247 4.57742 171.931 6.05709C174.567 7.46503 176.742 9.60829 178.193 12.2286C179.678 14.8762 180.426 17.8765 180.356 20.9142C180.422 23.1639 180.02 25.4026 179.178 27.4881C178.335 29.5736 177.069 31.4604 175.46 33.0285C173.855 34.6492 171.935 35.9217 169.82 36.7671C167.705 37.6124 165.439 38.0126 163.163 37.9428ZM163.163 31.2C164.949 31.2165 166.71 30.7844 168.287 29.9428C169.852 29.0816 171.121 27.7674 171.931 26.1714C172.847 24.5736 173.319 22.7579 173.297 20.9142C173.448 19.4802 173.297 18.0303 172.854 16.6585C172.411 15.2868 171.685 14.0239 170.724 12.9519C169.763 11.8798 168.589 11.0226 167.276 10.4359C165.964 9.84908 164.543 9.54583 163.107 9.54583C161.67 9.54583 160.249 9.84908 158.937 10.4359C157.624 11.0226 156.45 11.8798 155.489 12.9519C154.528 14.0239 153.802 15.2868 153.359 16.6585C152.916 18.0303 152.765 19.4802 152.916 20.9142C152.886 22.2717 153.133 23.621 153.642 24.8789C154.151 26.1369 154.911 27.2769 155.876 28.2286C156.807 29.22 157.94 29.9986 159.197 30.5113C160.455 31.0241 161.807 31.2589 163.163 31.2Z" fill="#32AA48"/>
<path d="M196.752 37.8286C193.424 37.9707 190.154 36.9171 187.53 34.8571C186.395 33.8205 185.5 32.5461 184.91 31.1242C184.32 29.7023 184.048 28.1675 184.114 26.6286H191.173C191.191 27.3374 191.346 28.036 191.629 28.6857C191.918 29.2769 192.348 29.7872 192.881 30.1714C193.39 30.5519 193.972 30.8241 194.589 30.9714C195.249 31.1955 195.942 31.3112 196.639 31.3143C197.964 31.3446 199.27 30.9872 200.396 30.2857C200.872 29.9833 201.26 29.5596 201.52 29.0577C201.78 28.5557 201.903 27.9936 201.876 27.4286C201.886 26.9851 201.768 26.5483 201.535 26.1714C201.325 25.785 201.009 25.4676 200.624 25.2572C200.218 24.8525 199.704 24.5746 199.144 24.4571L197.436 23.8857L195.386 23.4286L193.678 22.9714L192.084 22.5143L190.376 21.9429L188.896 21.2572L187.416 20.3428L186.277 19.0857C185.909 18.6337 185.602 18.134 185.366 17.6C185.142 17.0406 184.952 16.4681 184.797 15.8857C184.659 15.1698 184.583 14.4433 184.569 13.7143C184.488 12.3457 184.736 10.9776 185.29 9.72482C185.845 8.472 186.691 7.37103 187.757 6.5143C189.807 4.80001 192.767 4 196.411 4C200.054 4 202.901 4.91428 204.951 6.74285C205.988 7.74109 206.8 8.95177 207.33 10.2927C207.861 11.6336 208.098 13.0734 208.025 14.5143H201.079C201.115 13.9276 201.01 13.3408 200.772 12.8037C200.534 12.2665 200.171 11.7948 199.713 11.4286C198.675 10.7186 197.439 10.3584 196.183 10.4C195.066 10.353 193.959 10.6308 192.995 11.2C192.568 11.4028 192.21 11.7281 191.967 12.1349C191.724 12.5418 191.606 13.0118 191.629 13.4857C191.62 13.8932 191.74 14.293 191.97 14.6286C192.144 15.0032 192.42 15.3204 192.767 15.5429L194.248 16.2286L195.842 16.8L197.891 17.2572L200.054 17.8286L202.218 18.5143C202.979 18.766 203.705 19.1115 204.381 19.5429C205.023 19.8659 205.633 20.2485 206.203 20.6857C206.791 21.1675 207.292 21.7475 207.683 22.4C208.114 23.0779 208.458 23.8074 208.708 24.5714C208.933 25.4683 209.048 26.3894 209.05 27.3143C209.116 29.3905 208.517 31.4333 207.342 33.1429C206.281 34.7736 204.723 36.0164 202.901 36.6857C200.953 37.4919 198.859 37.8811 196.752 37.8286Z" fill="#32AA48"/>
<path d="M241.728 37.2571H238.198C236.657 37.2488 235.14 36.8712 233.773 36.1555C232.407 35.4399 231.23 34.407 230.342 33.1428L221.688 21.2571V37.2571H214.629V4.57141H221.688V19.6571L232.391 4.57141H240.589L229.431 20.2286L241.728 37.2571Z" fill="#32AA48"/>
<path d="M258.693 37.9429C256.421 37.9862 254.163 37.5738 252.051 36.73C249.939 35.8861 248.017 34.6277 246.396 33.0286C244.773 31.4661 243.489 29.583 242.627 27.4981C241.765 25.4131 241.342 23.1713 241.386 20.9143C241.328 18.6553 241.744 16.4094 242.608 14.3224C243.471 12.2353 244.761 10.3538 246.396 8.80002C248.001 7.17931 249.921 5.90683 252.036 5.06149C254.152 4.21615 256.417 3.81593 258.693 3.88571C261.792 3.81409 264.855 4.56302 267.574 6.05713C270.154 7.50262 272.283 9.63929 273.723 12.2286C275.243 14.8671 276.029 17.8667 276 20.9143C276.065 23.1639 275.664 25.4026 274.821 27.4881C273.978 29.5737 272.712 31.4604 271.104 33.0286C269.482 34.658 267.542 35.9352 265.407 36.7806C263.272 37.626 260.987 38.0216 258.693 37.9429ZM258.693 31.2C260.513 31.2029 262.309 30.7721 263.931 29.9429C265.467 29.0455 266.728 27.7406 267.574 26.1714C268.491 24.5736 268.963 22.7579 268.941 20.9143C268.973 19.5395 268.728 18.1724 268.219 16.8956C267.71 15.6188 266.948 14.4588 265.98 13.4857C265.032 12.5172 263.896 11.754 262.643 11.2429C261.39 10.7319 260.045 10.4839 258.693 10.5143C257.343 10.5035 256.005 10.7604 254.754 11.2703C253.504 11.7802 252.366 12.5331 251.406 13.4857C250.453 14.4644 249.709 15.628 249.219 16.9053C248.73 18.1827 248.505 19.5468 248.559 20.9143C248.513 22.268 248.742 23.6171 249.233 24.8788C249.724 26.1404 250.467 27.288 251.416 28.2512C252.365 29.2143 253.5 29.9727 254.751 30.4798C256.002 30.9869 257.344 31.2319 258.693 31.2Z" fill="#32AA48"/>
<path d="M90.0644 66.8571C89.2794 66.5215 88.6074 65.966 88.1287 65.2571L89.9505 63.0857C90.2256 63.5451 90.6076 63.9306 91.0637 64.2092C91.5198 64.4879 92.0365 64.6514 92.5693 64.6857C93.9357 64.6857 94.6188 63.8857 94.6188 62.2857V55.4285H89.6089V52.8H97.9208V62.0571C98.0121 63.5002 97.5657 64.9259 96.6683 66.0571C96.1521 66.5412 95.5418 66.913 94.8755 67.149C94.2093 67.385 93.5017 67.4802 92.7971 67.4285C91.8567 67.4289 90.9264 67.2343 90.0644 66.8571Z" fill="#32AA48"/>
<path d="M106.916 65.7143C106.316 65.0532 105.855 64.277 105.561 63.4324C105.268 62.5879 105.148 61.6924 105.208 60.8V52.8H108.51V60.6857C108.51 63.3143 109.535 64.5714 111.698 64.5714C112.137 64.5863 112.575 64.5132 112.985 64.3562C113.396 64.1992 113.771 63.9615 114.089 63.6571C114.707 62.7975 114.991 61.7406 114.886 60.6857V52.8H118.188V60.8C118.249 61.6924 118.128 62.5879 117.835 63.4324C117.541 64.277 117.081 65.0532 116.48 65.7143C115.134 66.829 113.443 67.4386 111.698 67.4386C109.953 67.4386 108.262 66.829 106.916 65.7143Z" fill="#32AA48"/>
<path d="M138.683 52.8V67.2H135.95L128.777 58.4V67.2H125.589V52.8H128.322L135.381 61.4857V52.8H138.683Z" fill="#32AA48"/>
<path d="M146.198 52.8H149.501V67.2H146.198V52.8Z" fill="#32AA48"/>
<path d="M159.975 66.4C158.778 65.8408 157.784 64.9223 157.129 63.7714C156.447 62.6332 156.093 61.328 156.104 60C156.077 58.6341 156.432 57.2881 157.129 56.1143C157.784 54.9634 158.778 54.0449 159.975 53.4857C161.197 52.8155 162.568 52.4643 163.96 52.4643C165.353 52.4643 166.723 52.8155 167.946 53.4857C169.143 54.0449 170.137 54.9634 170.792 56.1143C171.489 57.2881 171.843 58.6341 171.817 60C171.828 61.328 171.474 62.6332 170.792 63.7714C170.137 64.9223 169.143 65.8408 167.946 66.4C166.723 67.0702 165.353 67.4214 163.96 67.4214C162.568 67.4214 161.197 67.0702 159.975 66.4ZM166.238 64C166.932 63.607 167.489 63.0083 167.832 62.2857C168.279 61.6083 168.517 60.8129 168.515 60C168.533 59.1492 168.295 58.3128 167.832 57.6C167.458 56.8992 166.908 56.3083 166.238 55.8857C165.538 55.5083 164.755 55.3119 163.96 55.3143C163.168 55.3294 162.389 55.5248 161.683 55.8857C161.012 56.3083 160.463 56.8992 160.089 57.6C159.659 58.3227 159.461 59.1604 159.52 60C159.477 60.802 159.675 61.5985 160.089 62.2857C160.432 63.0083 160.989 63.607 161.683 64C162.389 64.361 163.168 64.5563 163.96 64.5714C164.755 64.5738 165.538 64.3774 166.238 64Z" fill="#32AA48"/>
<path d="M187.53 67.2L184.797 63.0858H181.723V67.2H178.421V52.8H184.683C185.812 52.7463 186.939 52.9414 187.985 53.3715C188.851 53.7844 189.596 54.4141 190.149 55.2C190.611 56.0387 190.847 56.9844 190.832 57.9429C190.877 58.9046 190.639 59.8584 190.149 60.6857C189.577 61.4994 188.788 62.1335 187.871 62.5143L191.173 67.2H187.53ZM186.733 56.1143C186.08 55.6194 185.272 55.3761 184.455 55.4286H181.723V60.4572H184.455C185.272 60.5097 186.08 60.2663 186.733 59.7714C187.009 59.5596 187.227 59.2806 187.367 58.9607C187.506 58.6408 187.562 58.2905 187.53 57.9429C187.552 57.5963 187.492 57.2494 187.353 56.9312C187.214 56.6131 187.002 56.3329 186.733 56.1143Z" fill="#32AA48"/>
</g>
<defs>
<clipPath id="clip0_68_5822">
<rect width="276" height="72" fill="white"/>
</clipPath>
</defs>
</svg>
