<svg width="78" height="100" viewBox="0 0 78 100" fill="none" xmlns="http://www.w3.org/2000/svg">
<g clip-path="url(#clip0_38_87)">
<path d="M54.2047 0L54.5473 0.182628C57.3932 1.01748 59.0797 3.36551 58.6845 6.10488C58.2892 8.84425 56.1547 10.9053 53.0716 10.9314H35.8642C36.075 11.2966 36.2331 11.5314 36.3912 11.7662L43.1372 20.7931C45.0608 23.3499 45.0608 25.6457 43.1108 28.2025C40.7392 31.3853 38.3676 34.516 35.8378 37.8816H36.9973C42.3466 37.8816 47.696 37.8555 53.0189 37.8816C55.8649 37.9076 57.973 39.5252 58.5527 42.0037C59.396 45.6301 56.9453 48.7608 53.1243 48.8129C49.3034 48.8651 45.4824 48.839 41.6615 48.839C36.1804 48.839 30.7257 48.8129 25.2446 48.839C22.8466 48.839 21.0284 47.9259 19.9216 45.8127C18.8149 43.6995 19.1574 41.6123 20.6331 39.6817C24.2696 34.9074 27.8797 30.0809 31.4899 25.2805C31.6743 25.0196 31.8588 24.7587 32.0959 24.4717L27.2737 18.0016C27.0892 17.7407 26.8784 17.5059 26.6939 17.2189C26.2459 16.4884 26.4041 15.7057 27.0892 15.2622C27.7743 14.8187 28.5122 14.7926 29.0128 15.4709C31.0946 18.1842 33.15 20.9496 35.1791 23.7151C35.7324 24.4456 35.3372 25.0978 34.8365 25.7501L24.1115 39.9948C23.7426 40.4644 23.4264 40.9601 23.0311 41.4036C22.2932 42.3428 21.9243 43.3081 22.5041 44.456C23.0838 45.604 24.0851 45.917 25.2973 45.917H52.7818C54.6264 45.917 55.7858 44.9256 55.7858 43.3864C55.7858 41.8471 54.6264 40.8557 52.8345 40.8296H33.5453C32.7547 40.8296 32.0169 40.7775 31.5953 39.9948C31.1736 39.2121 31.5953 38.586 32.0696 37.9598L40.6865 26.5327C41.8986 24.9152 41.8987 24.0804 40.7128 22.4889C37.8142 18.5755 34.898 14.6795 31.9642 10.8009C31.5162 10.1748 31.1473 9.57475 31.5426 8.81816C31.9378 8.06157 32.6493 8.00939 33.4135 8.00939H52.3865C52.7468 8.02714 53.1079 8.01842 53.4669 7.9833C54.0984 7.92506 54.6854 7.63646 55.114 7.17359C55.5426 6.71072 55.782 6.10664 55.7858 5.47874C55.7899 4.85445 55.5607 4.25071 55.1424 3.78357C54.7241 3.31643 54.1461 3.01887 53.5196 2.94808H24.7439C24.2818 2.96246 23.832 3.09943 23.4415 3.34468C23.0511 3.58994 22.7343 3.93448 22.5243 4.34233C22.3143 4.75017 22.2188 5.20636 22.2477 5.66326C22.2765 6.12015 22.4288 6.56099 22.6885 6.93974C23.1892 7.72241 23.8216 8.45291 24.3486 9.23559C24.8757 10.0183 24.823 10.7488 24.1115 11.2966C23.4 11.8445 22.5831 11.688 21.977 10.9314C21.3709 10.1748 20.7649 9.36603 20.2115 8.55727C19.7547 7.86927 19.4596 7.08859 19.3479 6.27272C19.2363 5.45685 19.3109 4.62657 19.5662 3.84303C19.8216 3.05948 20.2513 2.34263 20.8235 1.74527C21.3958 1.1479 22.0962 0.685231 22.873 0.391338L23.7689 0.0260908L54.2047 0Z" fill="#31AA47"/>
<path d="M13.123 87.8163C10.0135 86.4336 9.09124 84.5552 9.90813 81.4766C8.45881 80.72 6.93043 80.1461 5.66557 79.233C-1.94998 73.8325 -1.87092 62.3532 5.77097 56.6136C8.81189 54.3188 12.5409 53.0973 16.3642 53.1437H54.9953C56.2338 53.1437 56.8135 53.6133 56.8135 54.5786C56.8135 55.5439 56.2602 56.0918 54.9689 56.0918H16.8122C14.2034 56.0918 11.7 56.5092 9.35475 57.7093C3.373 60.7618 1.08043 68.6668 4.5588 74.1456C8.03718 79.6243 17.471 80.3287 21.3446 74.9804C24.1906 71.0409 23.1892 65.9274 19.1048 63.6577C16.6804 62.301 13.4129 62.6141 11.3838 64.4404C10.8686 64.8768 10.4602 65.4233 10.1893 66.0386C9.91849 66.654 9.79226 67.3223 9.82017 67.993C9.84808 68.6637 10.0294 69.3194 10.3505 69.9106C10.6715 70.5018 11.124 71.0132 11.6737 71.4062C13.0439 72.3715 14.4669 72.3454 15.7845 71.3279L16.1534 71.0149C16.8649 70.5192 17.6554 70.5974 18.1825 71.2236C18.7095 71.8497 18.7358 72.5541 18.1034 73.2324C16.496 74.9282 13.8345 75.45 11.5156 74.563C10.3521 74.1187 9.32307 73.3868 8.52648 72.437C7.72989 71.4872 7.19234 70.3512 6.9651 69.1374C6.73785 67.9235 6.82848 66.6722 7.22836 65.5029C7.62823 64.3335 8.32402 63.2851 9.24935 62.4576C11.1994 60.6574 13.571 59.9008 16.2061 59.9008C31.3845 59.8661 46.5716 59.8661 61.7676 59.9008C64.35 59.9008 66.7216 60.6052 68.6716 62.3793C70.6217 64.1534 71.7284 66.9188 70.8588 69.8147C69.9892 72.7106 67.9338 74.4847 64.877 74.9543C62.927 75.2413 61.2406 74.5369 59.8703 73.1542C59.2642 72.5541 59.2642 71.8758 59.7912 71.2497C60.3183 70.6235 61.1352 70.5192 61.8466 71.0149C63.9548 72.4758 65.4041 72.4498 66.9061 70.9105C67.6571 70.1667 68.1128 69.1803 68.1902 68.1314C68.2676 67.0824 67.9615 66.041 67.3277 65.1969C65.6412 62.9272 61.9784 62.1445 59.2642 63.4751C53.9676 66.0318 53.546 73.2324 58.5527 76.7806C61.9784 79.233 65.773 79.4938 69.5412 77.5893C73.3095 75.6848 75.075 72.241 75.0223 68.0146C74.9169 61.8575 70.4108 57.0571 64.0865 56.3005C63.7439 56.2484 63.4277 56.2223 63.1115 56.144C62.2156 55.9614 61.8203 55.4135 61.8993 54.5525C61.9076 54.3628 61.9567 54.177 62.0435 54.0077C62.1303 53.8383 62.2527 53.6894 62.4025 53.5707C62.5523 53.4521 62.7259 53.3666 62.9119 53.3199C63.0978 53.2733 63.2917 53.2666 63.4804 53.3003C65.6232 53.4518 67.7166 54.0098 69.6466 54.9439C79.1068 59.4312 80.9514 72.4498 72.9406 78.8938C71.5439 80.0156 69.7784 80.694 68.1183 81.6071C68.3984 82.234 68.5162 82.9201 68.4609 83.6034C68.4057 84.2867 68.1793 84.9456 67.802 85.5205C67.3521 86.2752 66.706 86.8968 65.9311 87.3206C65.0615 87.7641 64.8243 88.2337 64.8507 89.1469C64.9034 92.2515 64.8771 95.33 64.8507 98.4346C64.8507 99.3999 64.2446 100.052 63.375 100.052C62.5054 100.052 61.952 99.426 61.8993 98.4346V87.9468H16.1007V98.1476C16.1007 99.3216 15.5737 99.9739 14.6777 100C13.7818 100.026 13.1493 99.3217 13.1493 98.1216C13.123 94.7039 13.123 91.2862 13.123 87.8163ZM54.8899 62.875H23.1102C27.4845 68.4581 26.5885 73.6759 22.1879 78.6329H55.9176C51.7804 74.85 50.3838 67.8841 54.8899 62.875ZM38.9737 81.6593H17.2602C16.2061 81.6593 15.1257 81.6071 14.098 81.6593C13.0703 81.7114 12.596 82.3898 12.596 83.3029C12.581 83.7122 12.7261 84.1115 13.0009 84.4176C13.2758 84.7238 13.6593 84.9132 14.0716 84.9465C14.3352 84.9726 14.5987 84.9465 14.8622 84.9465H63.1906C63.4543 84.9638 63.7191 84.9551 63.9811 84.9204C64.2185 84.8964 64.4475 84.8205 64.6516 84.698C64.8556 84.5754 65.0296 84.4095 65.1608 84.2122C65.292 84.0148 65.3772 83.791 65.4101 83.557C65.4431 83.323 65.423 83.0847 65.3514 82.8594C65.0879 81.868 64.3237 81.6332 63.375 81.6332L38.9737 81.6593Z" fill="#31AA47"/>
<path d="M20.9493 95.6953C20.9493 94.7822 20.923 93.8691 20.9493 92.9559C20.9423 92.7688 20.973 92.5821 21.0397 92.4068C21.1064 92.2315 21.2078 92.0712 21.3378 91.9351C21.4679 91.7991 21.624 91.6901 21.7971 91.6145C21.9702 91.5389 22.1568 91.4983 22.346 91.4949C22.5358 91.4807 22.7266 91.505 22.9067 91.5665C23.0867 91.6279 23.2521 91.7251 23.3928 91.8522C23.5335 91.9792 23.6464 92.1334 23.7247 92.3053C23.803 92.4772 23.8449 92.6631 23.848 92.8516C23.927 94.7822 23.927 96.6867 23.848 98.6173C23.8483 98.8057 23.8097 98.9921 23.7346 99.1652C23.6596 99.3382 23.5496 99.4943 23.4114 99.6238C23.2732 99.7533 23.1098 99.8534 22.9311 99.9181C22.7524 99.9828 22.5623 100.011 22.3723 100C22.182 99.9966 21.9942 99.9561 21.8196 99.8809C21.6451 99.8056 21.4873 99.697 21.3551 99.5614C21.223 99.4257 21.1191 99.2656 21.0495 99.0902C20.9799 98.9147 20.9458 98.7275 20.9493 98.539C20.923 97.5998 20.9493 96.6345 20.9493 95.6953Z" fill="#31AA47"/>
<path d="M29.25 95.7735C29.25 94.8604 29.2236 93.9473 29.25 93.0342C29.2763 92.121 29.8561 91.4949 30.673 91.4949C30.8722 91.4876 31.0708 91.521 31.2564 91.5932C31.442 91.6653 31.6105 91.7746 31.7515 91.9142C31.8925 92.0538 32.0028 92.2206 32.0757 92.4044C32.1486 92.5881 32.1824 92.7847 32.175 92.982C32.2277 94.8082 32.2277 96.6345 32.175 98.4607C32.1486 99.426 31.4899 100.026 30.6203 100C29.7507 99.9739 29.2763 99.3477 29.25 98.4085C29.2236 97.4693 29.25 96.6345 29.25 95.7735Z" fill="#31AA47"/>
<path d="M37.5507 95.7735C37.5507 94.8604 37.5243 93.9473 37.5507 93.0342C37.577 92.121 38.1568 91.4949 38.9737 91.4949C39.1729 91.4876 39.3715 91.521 39.5571 91.5932C39.7427 91.6653 39.9112 91.7746 40.0522 91.9142C40.1932 92.0538 40.3035 92.2206 40.3764 92.4044C40.4493 92.5881 40.4831 92.7847 40.4757 92.982C40.5284 94.843 40.5284 96.6953 40.4757 98.539C40.4796 98.7364 40.4423 98.9324 40.3662 99.1149C40.2901 99.2974 40.1768 99.4624 40.0333 99.5995C39.8899 99.7366 39.7194 99.843 39.5325 99.9119C39.3456 99.9808 39.1464 100.011 38.9473 100C38.5652 99.9798 38.206 99.8134 37.9454 99.5359C37.6848 99.2585 37.5433 98.8917 37.5507 98.5129C37.5243 97.5998 37.5507 96.6866 37.5507 95.7735Z" fill="#31AA47"/>
<path d="M48.8027 95.7213C48.8027 96.5823 48.8291 97.4693 48.8027 98.3564C48.7764 99.2434 48.1966 99.9739 47.327 100C46.4574 100.026 45.8514 99.3738 45.8514 98.3042C45.8162 96.5823 45.8162 94.8604 45.8514 93.1385C45.8514 92.121 46.4311 91.4949 47.2743 91.4949C48.1176 91.4949 48.7237 92.0949 48.8027 93.0863V95.7213Z" fill="#31AA47"/>
<path d="M54.152 95.7213C54.152 94.8082 54.1257 93.8951 54.152 92.982C54.1784 92.0689 54.6527 91.5992 55.5223 91.4949C55.7213 91.4805 55.9212 91.507 56.1093 91.5726C56.2975 91.6383 56.47 91.7417 56.616 91.8764C56.7619 92.0111 56.8782 92.1742 56.9575 92.3555C57.0369 92.5367 57.0776 92.7322 57.077 92.9298C57.1297 94.8082 57.1297 96.7127 57.077 98.5912C57.0737 98.7819 57.0319 98.97 56.9542 99.1445C56.8766 99.3191 56.7645 99.4765 56.6247 99.6077C56.4848 99.7389 56.32 99.8411 56.1397 99.9085C55.9595 99.9758 55.7675 100.007 55.575 100C54.7845 99.9739 54.2047 99.426 54.152 98.539C54.0993 97.6519 54.152 96.6606 54.152 95.7213Z" fill="#31AA47"/>
</g>
<defs>
<clipPath id="clip0_38_87">
<rect width="78" height="100" fill="white"/>
</clipPath>
</defs>
</svg>
