<svg width="100" height="100" viewBox="0 0 100 100" fill="none" xmlns="http://www.w3.org/2000/svg">
<g clip-path="url(#clip0_38_66)">
<path d="M23.2618 99.9999C20.6816 99.6093 18.1013 99.1796 15.5013 98.8476C12.9014 98.5156 10.0848 98.3398 7.40601 97.871C5.35041 97.5015 3.49018 96.4299 2.14816 94.8423C0.806147 93.2546 0.067054 91.2512 0.0591559 89.1796C-0.0196308 83.9062 -0.0262036 78.6328 0.039452 73.3593C0.0788453 70.2343 0.807622 67.2265 2.00912 64.3554C2.44245 63.3593 3.17123 62.9687 4.01818 63.2812C4.86514 63.5937 5.1015 64.414 4.74696 65.4882C4.21515 67.1874 3.76213 68.9257 3.26971 70.6445C3.21352 70.9738 3.18061 71.3067 3.17123 71.6406C6.93329 70.9179 10.2423 69.414 13.3938 67.5195C17.2609 65.1635 20.8144 62.3354 23.9709 59.1015C25.1527 57.8906 25.7042 57.8906 26.9057 59.082C31.1996 63.3984 35.9465 67.1288 41.5403 69.6288C43.4706 70.4882 45.5191 71.0742 47.5281 71.7968L47.7645 71.5429C47.5281 70.4492 47.3706 69.3359 47.0751 68.2617C44.4161 58.2031 35.1192 51.2499 24.6997 51.6015C17.924 51.8554 12.3893 54.707 8.0954 59.8828C7.11056 61.0742 6.36208 61.3281 5.55452 60.7421C4.74696 60.1562 4.76666 59.2578 5.81059 58.0468C12.6847 50.0585 21.371 46.914 31.6329 49.5117C41.8949 52.1093 47.8236 58.8281 50.2266 68.8281C50.6599 70.7031 50.7781 72.6953 50.8175 74.6288C50.8963 79.2578 50.8372 83.8867 50.8372 88.496C50.8175 93.8281 47.5478 97.4413 42.1903 98.0859C37.4434 98.6523 32.6965 99.2578 27.9496 99.8632C27.8229 99.8828 27.7019 99.9295 27.5951 99.9999H23.2618ZM2.93487 74.707C3.44698 83.1445 6.97269 89.8437 14.3786 94.0429C22.3952 98.5937 30.5299 98.2031 38.1328 93.0078C44.5145 88.6523 47.5478 82.3437 47.9221 74.707C38.8813 72.9296 31.8299 68.0078 25.4482 61.8359C19.0074 67.9101 12.0347 72.9687 2.93487 74.707ZM3.05305 86.8164C2.1864 93.3203 6.77571 95.6054 10.3802 95.1562C9.09992 93.9257 7.68177 92.7343 6.46057 91.3476C5.23938 89.9609 4.19546 88.3398 3.05305 86.8164ZM47.7645 86.621C45.8539 90.0781 43.3327 92.871 40.1419 95.2734C45.6963 95.3515 48.5918 92.0312 47.7645 86.621Z" fill="white"/>
<path d="M58.1249 0C60.0749 0.390625 62.0051 0.898438 63.9748 1.15234C70.0217 1.89453 76.0882 1.64062 82.1548 1.5625C83.9647 1.51668 85.7755 1.60809 87.5714 1.83594C92.1607 2.48047 95.1152 5.17578 96.75 9.41406C97.8334 12.2266 98.2864 15.1758 98.7 18.1445C98.9758 20.0977 99.4682 22.0312 99.7439 23.9844C101.655 38.4375 91.3729 50.9961 77.9988 52.7734C64.6248 54.5508 52.0189 45.4688 49.6356 32.3438C48.8871 28.2031 49.1826 24.043 49.5568 19.9023C49.675 18.6914 49.8523 17.5 50.0492 16.3281C50.2462 15.1562 50.8962 14.8633 51.7825 15.0195C52.6689 15.1758 53.0628 15.8789 52.9447 16.7773L52.1568 23.0469C52.3882 22.931 52.6119 22.8006 52.8265 22.6562C57.4552 18.6914 62.9703 16.8359 68.9384 15.9961C74.5716 15.1953 80.0276 15.9766 85.4639 17.4219C88.7729 18.3203 92.1804 18.457 95.7258 18.418C95.2728 14.7461 94.7607 11.1914 92.7319 8.06641C90.9986 5.41016 88.2805 4.64844 85.326 4.53125C82.9033 4.43359 80.4806 4.49219 78.0382 4.55078C72.7595 4.6875 67.4808 4.60938 62.2218 3.90625C60.587 3.67188 58.9521 3.30078 57.0416 2.94922C56.1749 5.35156 55.2689 7.8125 54.3825 10.293C54.2875 10.6669 54.1623 11.0326 54.0083 11.3867C53.6537 12.1094 53.0037 12.3242 52.275 12.0898C51.5462 11.8555 51.0341 11.2305 51.2901 10.5078C52.3931 7.46094 53.5159 4.41406 54.7961 1.42578C55.0522 0.820312 55.9385 0.46875 56.5491 0H58.1249ZM97.144 27.4023C96.9273 25.7227 96.691 24.043 96.494 22.3633C96.3955 21.6406 96.0804 21.3477 95.2925 21.3477C90.6284 21.3435 85.9855 20.7261 81.4851 19.5117C75.0443 17.832 68.6626 18.3008 62.4188 20.5078C58.6961 21.8359 55.387 23.8281 52.7871 26.875C52.3144 27.4219 52.0386 27.9688 52.1568 28.7305C52.3932 30.1367 52.4916 31.582 52.8265 32.9492C55.4461 43.8867 66.2793 51.4258 77.1913 49.9414C88.6153 48.418 97.0061 38.8867 97.144 27.4023Z" fill="white"/>
<path d="M27.4373 44.1406H11.483C4.78613 44.1406 0.0392279 39.414 0.0195312 32.7734V20.1562C0.0392279 13.6718 4.74673 8.94528 11.3057 8.92575C17.8647 8.90622 24.0889 8.88669 30.4903 8.92575C36.8917 8.96481 41.6977 13.6523 41.7371 20.0976C41.7765 24.4922 41.7371 28.8867 41.7765 33.2812C41.7878 33.8185 41.9225 34.3462 42.1704 34.8242C43.3719 37.0703 44.6325 39.2773 45.8734 41.5039C46.7597 43.125 46.1491 44.1211 44.2583 44.1211L27.4373 44.1406ZM42.328 41.2109C41.2447 39.2773 40.2401 37.539 39.3144 35.7617C39.0016 35.1636 38.8331 34.5017 38.822 33.8281C38.7826 29.2773 38.8023 24.7265 38.8023 20.1757C38.7826 15.2929 35.3554 11.875 30.4509 11.8554H11.3451C6.38156 11.8554 2.99373 15.2734 2.97403 20.2148V32.7148C2.97403 37.8125 6.40125 41.1914 11.5618 41.1914H42.328V41.2109Z" fill="white"/>
<path d="M72.4641 91.9531H55.8204C53.831 91.9531 53.2401 90.9375 54.2053 89.1992C55.3674 87.0898 56.5885 85 57.7113 82.8711C58.0385 82.2127 58.2262 81.4948 58.2628 80.7617C58.3022 76.3281 58.2431 71.914 58.3022 67.4804C58.3809 62.2851 61.9067 58.0664 67.0278 56.9726C67.8635 56.8003 68.7151 56.7152 69.5687 56.7187C75.9307 56.6992 82.3124 56.6797 88.6744 56.7187C94.2683 56.7383 98.6606 60.2539 99.7637 65.5273C99.8452 65.9136 99.8978 66.3053 99.9212 66.6992C99.9409 71.6015 100.098 76.5234 99.9015 81.4258C99.6849 87.5781 94.938 91.914 88.7138 91.9531H72.4641ZM57.6719 89.0234H88.3593C93.5986 89.0234 97.0061 85.6836 97.0258 80.5078C97.0389 76.3802 97.0389 72.2461 97.0258 68.1054C97.0061 62.9687 93.5986 59.6484 88.4184 59.6289H69.8247C64.6248 59.6484 61.2567 62.9883 61.237 68.125C61.237 72.5781 61.2567 77.0508 61.2173 81.5039C61.1807 82.237 60.993 82.9549 60.6658 83.6133C59.7597 85.3906 58.7552 87.0898 57.6719 89.0234Z" fill="white"/>
<path d="M25.4481 82.8515C24.8406 82.8713 24.2359 82.7612 23.6751 82.5287C23.1143 82.2961 22.6106 81.9466 22.1981 81.5039C21.5482 80.8398 21.5088 80.0195 22.08 79.414C22.6512 78.8085 23.3996 78.8085 24.1284 79.3164C25.2511 80.1367 25.6254 80.1367 26.7284 79.3359C27.4769 78.789 28.2844 78.8281 28.8359 79.4726C29.3874 80.1171 29.3086 80.8984 28.639 81.5624C28.2243 81.9823 27.7271 82.3133 27.1783 82.535C26.6295 82.7567 26.0406 82.8644 25.4481 82.8515Z" fill="white"/>
<path d="M12.6256 83.0078C12.0347 83.0078 11.4438 83.0469 10.8529 82.9883C10.262 82.9297 9.5332 82.3828 9.5332 81.5625C9.5332 80.7422 10.0059 80.1758 10.8135 80.1172C12.0531 80.0391 13.2965 80.0391 14.5362 80.1172C15.3437 80.1758 15.8164 80.7422 15.7967 81.582C15.777 82.4219 15.3043 82.9101 14.4771 82.9883C13.6498 83.0664 13.2362 83.0078 12.6256 83.0078Z" fill="white"/>
<path d="M38.1722 83.0078C37.6206 83.0078 37.0691 83.0273 36.5176 83.0078C35.651 82.9492 35.0798 82.3828 35.0601 81.6016C35.0464 81.4072 35.0736 81.2121 35.14 81.0287C35.2064 80.8453 35.3104 80.6776 35.4456 80.5362C35.5808 80.3948 35.7442 80.2828 35.9253 80.2073C36.1065 80.1318 36.3015 80.0945 36.4979 80.0977C37.6403 80.0586 38.8024 80.0586 39.9449 80.0977C40.3229 80.1126 40.6808 80.2709 40.9447 80.5398C41.2085 80.8087 41.3583 81.1678 41.363 81.543C41.3585 81.9201 41.2095 82.2814 40.9461 82.5535C40.6826 82.8255 40.3247 82.988 39.9449 83.0078H38.1722Z" fill="white"/>
<path d="M11.2271 76.6602C11.2271 76.2305 11.2074 75.8203 11.2271 75.3906C11.2862 74.6094 11.7392 74.1211 12.5271 74.043C13.315 73.9649 13.9847 74.375 14.0832 75.1953C14.2013 76.1945 14.2013 77.204 14.0832 78.2031C14.0044 79.0039 13.3741 79.4336 12.5271 79.3555C11.6802 79.2774 11.2862 78.8281 11.2271 78.0274C11.2074 77.5781 11.2271 77.1094 11.2271 76.6602Z" fill="white"/>
<path d="M39.6494 76.7383C39.6494 77.168 39.6691 77.5977 39.6297 78.0078C39.5706 78.8477 39.0782 79.336 38.2509 79.375C37.4237 79.4141 36.8722 78.9844 36.7737 78.2227C36.6751 77.2225 36.6751 76.2151 36.7737 75.2149C36.8722 74.3946 37.5024 73.9649 38.3297 74.043C38.6781 74.0532 39.0087 74.1976 39.2514 74.4455C39.4941 74.6935 39.6298 75.0256 39.6297 75.3711C39.6691 75.8399 39.6494 76.2891 39.6494 76.7383Z" fill="white"/>
<path d="M74.5716 35.918C73.2519 35.8594 72.1489 35.4297 71.2823 34.5117C70.4156 33.5937 70.6717 33.0469 71.2035 32.4805C71.7353 31.9141 72.5429 31.8359 73.2322 32.3242C74.4928 33.2227 74.6504 33.2227 75.8913 32.3242C76.5807 31.8359 77.4276 31.8945 77.9397 32.4805C78.4519 33.0664 78.4519 33.8672 77.861 34.5117C77.4379 34.9555 76.928 35.3091 76.3624 35.5509C75.7968 35.7927 75.1875 35.9176 74.5716 35.918Z" fill="white"/>
<path d="M61.8278 33.1445C62.4187 33.1445 63.0096 33.125 63.6005 33.1641C64.1914 33.2031 64.9202 33.75 64.9596 34.5508C64.999 35.3516 64.546 35.918 63.7581 35.9766C62.4864 36.0709 61.2096 36.0775 59.937 35.9961C59.09 35.9375 58.637 35.3711 58.6764 34.5117C58.7158 33.6523 59.2082 33.2031 60.0551 33.1641C60.9021 33.125 61.2369 33.1445 61.8278 33.1445Z" fill="white"/>
<path d="M87.335 33.1445C87.9259 33.1445 88.5168 33.125 89.1077 33.1641C89.6986 33.2031 90.388 33.6523 90.4471 34.4531C90.5062 35.2539 90.1122 35.918 89.285 35.9766C87.9734 36.0645 86.6573 36.0645 85.3456 35.9766C84.5578 35.918 84.1442 35.293 84.1835 34.5313C84.2229 33.7695 84.7154 33.2031 85.5623 33.1641C86.4093 33.125 86.7441 33.1445 87.335 33.1445Z" fill="white"/>
<path d="M63.2657 29.7461C63.2657 30.1758 63.2854 30.6055 63.2657 31.0157C63.2066 31.8555 62.7142 32.3438 61.8869 32.4024C61.0597 32.461 60.4688 31.9727 60.3703 31.1915C60.285 30.2496 60.2784 29.3024 60.3506 28.3594C60.3625 28.1699 60.4135 27.9848 60.5005 27.8156C60.5875 27.6464 60.7087 27.4967 60.8564 27.3759C61.0041 27.255 61.1753 27.1655 61.3594 27.113C61.5434 27.0604 61.7364 27.0459 61.9263 27.0704C62.7536 27.168 63.2066 27.6563 63.2657 28.4766C63.2854 28.9063 63.2657 29.336 63.2657 29.7461Z" fill="white"/>
<path d="M85.8775 29.6875C85.8775 29.2578 85.8578 28.8281 85.8775 28.418C85.9366 27.6172 86.4093 27.1485 87.1971 27.0899C87.985 27.0313 88.6547 27.4414 88.7532 28.2422C88.8648 29.2421 88.8582 30.2516 88.7335 31.25C88.6547 32.0508 88.0244 32.4805 87.1774 32.4024C86.3305 32.3242 85.9366 31.836 85.8775 31.0547C85.8578 30.6055 85.8775 30.1367 85.8775 29.6875Z" fill="white"/>
<path d="M20.9376 21.2891H11.0893C9.78928 21.2891 9.08019 20.7617 9.09989 19.8047C9.11958 18.8477 9.80897 18.3594 11.0499 18.3594H30.8056C32.0662 18.3594 32.8344 19.1016 32.6177 20.0781C32.4011 21.0547 31.7511 21.2891 30.8647 21.2891H20.9376Z" fill="white"/>
<path d="M20.8194 27.9688H10.9908C9.78928 27.9492 9.08019 27.3828 9.09989 26.4844C9.11958 25.5859 9.80897 25.0391 10.9514 25.0391H30.8056C31.948 25.0391 32.6571 25.6055 32.6571 26.5039C32.6571 27.4023 31.9874 27.9492 30.845 27.9688H20.8194Z" fill="white"/>
<path d="M16.9785 34.6484H10.9907C9.80891 34.6484 9.13922 34.1406 9.09983 33.2617C9.06043 32.3828 9.76951 31.7383 10.971 31.7383H23.0648C24.2663 31.7383 24.8572 32.2656 24.8769 33.1836C24.8966 34.1016 24.2663 34.6484 23.0845 34.6484H16.9785Z" fill="white"/>
<path d="M79.1609 66.1914H89.0092C90.2304 66.1914 90.841 66.6602 90.8804 67.5781C90.9198 68.4961 90.2501 69.1211 89.0289 69.1211H69.2338C68.0126 69.1211 67.3429 68.5547 67.3626 67.5977C67.3823 66.6406 68.0323 66.1914 69.2141 66.1914H79.1609Z" fill="white"/>
<path d="M79.1018 72.8516H89.1471C90.388 72.8516 91.0971 73.6328 90.8213 74.668C90.5456 75.7031 89.935 75.7812 89.088 75.7812H69.4898C68.052 75.7812 67.3823 75.332 67.3626 74.3555C67.3429 73.3789 68.052 72.8516 69.5489 72.8516H79.1018Z" fill="white"/>
<path d="M83.0215 82.4609H76.817C75.7731 82.4609 75.1034 81.875 75.1034 81.0156C75.1034 80.1562 75.7731 79.5508 76.8367 79.5508C80.9336 79.5247 85.0305 79.5247 89.1274 79.5508C90.2698 79.5508 90.9001 80.1562 90.8804 81.0742C90.8607 81.9922 90.2501 82.4609 89.1077 82.4805L83.0215 82.4609Z" fill="white"/>
</g>
<defs>
<clipPath id="clip0_38_66">
<rect width="100" height="100" fill="white"/>
</clipPath>
</defs>
</svg>
