<svg width="100" height="100" viewBox="0 0 100 100" fill="none" xmlns="http://www.w3.org/2000/svg">
<g clip-path="url(#clip0_38_56)">
<path d="M58.3887 69.3928C55.5925 68.1729 52.99 67.0085 50.3599 65.8996C50.0821 65.7702 49.7657 65.7504 49.474 65.8441L41.3068 69.3373C42.4142 73.9395 43.577 78.5417 46.5947 82.3953C47.0831 82.9727 47.6519 83.4769 48.2835 83.8924C49.474 84.6964 50.6368 84.5023 51.8272 83.6429C51.1905 82.3398 50.8306 81.0368 51.2735 79.5952C51.6464 78.3915 52.465 77.3762 53.5615 76.7576C54.658 76.139 55.9493 75.9639 57.1705 76.2683C58.3654 76.5952 59.3923 77.3632 60.0447 78.4176C60.697 79.4721 60.9264 80.7348 60.6866 81.9517C60.1329 84.53 57.8073 86.0826 55.2049 85.6944C54.8213 85.6389 54.4302 85.7172 54.0975 85.9162C51.1905 88.2173 47.9513 88.0509 45.2658 85.3895C42.5803 82.728 41.3898 79.8447 40.3101 76.6287C39.5903 74.5772 39.0365 72.4701 38.3998 70.28C36.8217 70.6681 35.2159 71.1394 33.5825 71.4721C29.9834 72.2761 26.3566 72.8583 22.7021 72.0543C17.8848 71.0008 15.7807 67.2581 17.3865 62.6004C18.6046 59.135 20.8195 56.3071 23.2835 53.6734C24.4186 52.4258 25.6645 51.2891 26.938 49.9861C25.8859 48.9603 24.9169 47.99 23.8926 47.0751C23.7782 46.9919 23.6474 46.9341 23.509 46.9054C23.3706 46.8767 23.2277 46.8779 23.0897 46.9087C21.0687 47.3246 19.4629 46.6869 18.2447 45.1067C17.0266 43.5264 16.9712 41.7244 17.7741 39.8946C17.9183 39.4367 17.9374 38.9485 17.8295 38.4807C17.5803 37.1222 17.0266 35.8192 16.9989 34.4607C16.8882 31.3279 18.7154 29.0823 21.8715 28.2506C25.0277 27.4189 28.5991 27.6684 31.9491 28.3337C34.1085 28.7496 36.2126 29.3595 38.4275 29.8863C38.8427 28.4169 39.2303 26.9198 39.6733 25.4505C40.5592 22.4563 41.6667 19.5453 43.4385 16.967C44.0242 16.1596 44.6721 15.3995 45.3765 14.6936C48.1728 12.0044 51.8549 12.0044 54.6512 14.6659C57.4474 17.3274 58.6379 20.1275 59.773 23.3435C60.5205 25.4505 61.1296 27.6129 61.8217 29.8031L63.3721 29.3595C64.4795 29.0546 65.3655 29.4427 65.5869 30.2744C65.8084 31.1061 65.2824 31.9933 64.175 32.2983L62.237 32.7973C62.4862 34.9598 62.9291 37.039 62.9291 39.1461C62.9291 41.2531 63.9535 42.972 65.9192 44.1641C67.8848 45.3562 69.1307 46.5483 70.8195 47.7959C74.1971 44.5245 77.5471 41.2253 79.402 36.7895C80.6755 33.7122 79.7896 32.0765 76.4673 31.1616C76.3012 31.4388 76.1074 31.7438 75.8859 32.0487C75.3084 32.9411 74.4511 33.616 73.4488 33.9673C72.4465 34.3186 71.356 34.3264 70.3488 33.9894C69.3437 33.6436 68.4771 32.9817 67.8784 32.1023C67.2796 31.2229 66.9809 30.1733 67.0266 29.11C67.08 28.0633 67.4743 27.0628 68.1493 26.2617C68.8243 25.4607 69.7427 24.9031 70.7641 24.6742C71.8129 24.4302 72.913 24.5431 73.8906 24.9949C74.8683 25.4468 75.6677 26.2118 76.1628 27.1693C76.4344 27.581 76.8487 27.8772 77.3256 28.0011C81.8937 29.11 83.9701 32.5755 82.5028 37.0668C82.0264 38.6265 81.2968 40.097 80.3433 41.4194C78.3776 44.0255 76.1628 46.4652 74.0587 48.9603C73.6698 49.3247 73.2533 49.6584 72.8129 49.9584C74.2525 51.3723 75.5814 52.5921 76.7996 53.8952C78.8483 56.0853 80.6478 58.4419 81.866 61.1865C82.2913 62.1363 82.6071 63.1316 82.8073 64.153C83.4995 67.6462 81.8937 70.4186 78.5161 71.6384C75.6368 72.6919 72.6744 72.6088 69.7121 72.1097C66.7497 71.6107 64.258 70.9731 61.4341 70.3631C61.268 70.9453 61.0465 71.6661 60.8527 72.4147C60.6589 73.1632 59.856 73.9395 58.9701 73.7732C58.0842 73.6068 57.6966 72.8306 57.8904 71.7216C57.9457 71.3335 58.0565 70.9176 58.1395 70.5295C58.2226 70.1413 58.3056 69.7255 58.3887 69.3928ZM37.6246 67.0917C37.2924 64.0144 36.9601 61.0202 36.6002 58.0537C36.5525 57.7867 36.4038 57.5483 36.1849 57.3884L28.9867 52.0377C27.464 53.6734 25.8859 55.2536 24.4463 56.9725C23.0066 58.6914 21.1794 61.0756 20.3488 63.6262C19.3522 66.6204 20.2935 68.367 23.3666 68.9492C28.2946 69.8641 32.9457 68.4779 37.6246 67.0917ZM60.3821 49.9861H60.3544C60.3544 48.2949 60.4097 46.576 60.3267 44.9126C60.3121 44.6729 60.2451 44.4394 60.1302 44.2285C60.0154 44.0177 59.8556 43.8348 59.6622 43.6928C56.6999 41.9184 53.7099 40.1996 50.6921 38.5084C50.2776 38.3342 49.8125 38.3243 49.3909 38.4807C46.3455 40.1996 43.3278 41.9184 40.3378 43.7205C40.1564 43.8468 40.0052 44.0117 39.8951 44.2034C39.785 44.3952 39.7187 44.609 39.701 44.8294C39.6456 48.2949 39.6456 51.7327 39.701 55.1982C39.7203 55.4221 39.7871 55.6393 39.8969 55.8353C40.0067 56.0313 40.157 56.2016 40.3378 56.3349C43.3278 58.1092 46.3455 59.8558 49.3909 61.5469C49.5769 61.633 49.7785 61.6798 49.9833 61.6846C50.1881 61.6894 50.3917 61.652 50.5814 61.5747C53.6545 59.8558 56.6999 58.1092 59.7176 56.3071C59.8959 56.1715 60.0444 56.0006 60.1539 55.805C60.2635 55.6095 60.3317 55.3935 60.3544 55.1704C60.4097 53.4238 60.3821 51.705 60.3821 49.9861ZM62.32 66.9254C65.6423 68.0066 68.9646 68.8938 72.4253 69.0601C74.1066 69.1445 75.7918 69.0047 77.4363 68.6442C79.6235 68.1175 80.5094 66.3709 79.9557 64.1807C79.8038 63.3961 79.5132 62.645 79.0975 61.9628C77.5748 59.7449 75.9967 57.5824 74.3356 55.4754C73.3389 54.2278 72.1484 53.1189 71.0964 52.0099L63.9812 57.3052C63.6891 57.5351 63.4841 57.8578 63.3998 58.2201C63.0399 61.0756 62.7076 63.9589 62.32 66.9254ZM58.4994 30.7734C58.5199 30.7205 58.5293 30.6639 58.5271 30.6071C57.6689 26.8644 56.6445 23.1494 54.6512 19.8225C53.9502 18.6415 53.0831 17.5677 52.0764 16.6343C50.6921 15.4144 49.3356 15.4422 47.9513 16.662C47.0729 17.4374 46.3085 18.3335 45.6811 19.3235C43.66 22.5395 42.608 26.1436 41.722 29.8308C41.639 30.2467 41.5836 30.6626 41.5282 30.9952L49.6124 34.4884C49.819 34.5901 50.0563 34.6099 50.2769 34.5439L58.4994 30.7734ZM28.9867 47.99C31.4784 46.1602 33.7763 44.469 36.0465 42.7224C36.3571 42.4734 36.5643 42.1177 36.6279 41.7244C36.9601 39.0906 37.237 36.4291 37.5692 33.7954C37.6523 33.1577 37.5138 32.8527 36.8494 32.7418C33.6932 32.1042 30.5371 31.2448 27.3533 30.8566C25.6368 30.6348 23.8095 31.0507 22.0653 31.3834C21.5636 31.4727 21.1002 31.7107 20.735 32.0665C20.3698 32.4224 20.1195 32.8797 20.0166 33.3795C19.7161 34.7642 19.9537 36.2116 20.6811 37.4272C25.3045 37.0668 27.7132 40.1718 26.2182 44.4413C26.1839 44.573 26.1785 44.7106 26.2024 44.8446C26.2263 44.9786 26.2789 45.1059 26.3566 45.2176C27.2148 46.1602 28.1008 47.0751 28.9867 47.99ZM59.247 66.0382C59.5238 63.8757 59.773 61.9905 60.0498 59.8558L53.433 63.6539L59.247 66.0382ZM46.5947 63.6539L39.9502 59.8558C40.2547 62.0182 40.5316 63.9312 40.8084 66.0382L46.5947 63.6539ZM59.247 34.0171L53.4607 36.3459L60.0498 40.1718C59.773 38.0648 59.5515 36.1796 59.247 34.0171ZM46.4563 36.3737L40.8084 34.0171C40.5039 36.1519 40.1993 38.0648 39.8671 40.1441L46.4563 36.3737ZM36.351 46.3265L31.5615 50.0693L36.351 53.7288V46.3265ZM68.4662 50.0138L63.6766 46.3265V53.3407C63.6766 53.3684 63.732 53.4238 63.8428 53.5902L68.4662 50.0138ZM72.093 31.1061C72.3185 31.1029 72.5409 31.0537 72.7467 30.9616C72.9526 30.8695 73.1376 30.7364 73.2904 30.5704C73.4432 30.4044 73.5607 30.2089 73.6357 29.996C73.7106 29.7831 73.7415 29.5571 73.7265 29.3318C73.7049 28.8783 73.5079 28.451 73.1772 28.1405C72.8464 27.83 72.4079 27.6607 71.9546 27.6684C71.5042 27.7036 71.0843 27.9098 70.7807 28.2448C70.4771 28.5797 70.3127 29.0181 70.3212 29.4704C70.3561 29.9166 70.558 30.3331 70.8866 30.6364C71.2152 30.9397 71.6461 31.1075 72.093 31.1061ZM23.7542 42.2234C23.7622 41.7887 23.6027 41.3676 23.3089 41.0475C23.015 40.7274 22.6093 40.533 22.1761 40.5045C21.7252 40.4817 21.2836 40.6377 20.9468 40.9387C20.6099 41.2397 20.4051 41.6614 20.3765 42.1125C20.3538 42.564 20.5095 43.0062 20.8101 43.3435C21.1106 43.6808 21.5318 43.886 21.9823 43.9146C22.8128 43.9423 23.6988 43.0828 23.7542 42.2234ZM57.6689 80.7596C57.6725 80.5448 57.6339 80.3313 57.5552 80.1315C57.4765 79.9316 57.3592 79.7492 57.2101 79.5948C57.061 79.4403 56.883 79.3168 56.6861 79.2312C56.4893 79.1456 56.2776 79.0998 56.0631 79.0961C55.8402 79.096 55.6196 79.1408 55.4144 79.2279C55.2091 79.3149 55.0235 79.4424 54.8685 79.6028C54.7135 79.7632 54.5923 79.9532 54.5122 80.1614C54.432 80.3697 54.3946 80.592 54.402 80.815C54.3743 81.6467 55.1218 82.3398 55.9801 82.3676C56.1969 82.375 56.413 82.339 56.6158 82.2619C56.8186 82.1847 57.004 82.0679 57.1612 81.9182C57.3184 81.7685 57.4443 81.589 57.5314 81.39C57.6186 81.1911 57.6653 80.9768 57.6689 80.7596Z" fill="white"/>
<path d="M1.93063e-06 49.4871C-3.23317e-05 45.3351 0.568195 41.2028 1.68882 37.2054C1.79956 36.7618 2.07642 36.2073 2.40864 36.041C2.74087 35.8746 3.65449 35.6529 4.15283 35.8469C4.65117 36.041 5.01108 36.845 4.87265 37.5935C4.51274 39.3679 4.0144 41.1145 3.79292 42.8888C1.49502 59.6063 6.64452 73.7455 19.0476 85.0845C27.5471 92.8472 37.763 96.6176 49.2525 96.8949H49.9723C50.9967 96.9503 51.5504 97.4771 51.5504 98.4197C51.5504 99.3623 50.9967 100 49.917 100C48.2835 99.9722 46.6778 99.9168 45.0443 99.7504C35.1289 98.732 25.7403 94.7821 18.0738 88.4034C10.4073 82.0247 4.8096 73.5058 1.99336 63.9312C0.630939 59.2392 -0.0405884 54.3732 1.93063e-06 49.4871Z" fill="white"/>
<path d="M100 49.9308C100.011 54.2165 99.4621 58.4853 98.3666 62.6283C98.0343 63.8759 97.3422 64.4581 96.3732 64.2086C95.4042 63.959 95.0997 63.1273 95.4319 61.852C97.9236 51.6774 97.4252 41.6968 93.217 32.1043C86.1572 16.0522 73.9203 6.48744 56.5891 3.60416C54.5404 3.27147 52.464 3.24375 50.3876 3.13285C49.0864 3.04968 48.505 2.63382 48.4773 1.60804C48.4496 0.582254 49.1141 -0.027672 50.4153 5.18379e-05C68.9369 0.582253 83.1395 8.78852 92.9125 24.4802C97.7021 32.1875 100 41.0037 100 49.9308Z" fill="white"/>
<path d="M90.7254 68.7552C95.5703 68.7829 94.5183 68.3393 96.7331 72.3038C98.948 76.2684 98.8372 74.799 96.7608 78.6526C96.3178 79.4843 95.8195 80.2883 95.4042 81.12C95.225 81.5338 94.9194 81.8801 94.5315 82.1092C94.1435 82.3383 93.6931 82.4385 93.2448 82.3953C91.8051 82.3676 90.3655 82.3399 88.8981 82.4231C88.4095 82.4344 87.9438 82.6328 87.5969 82.9775C79.7342 91.8307 69.9889 97.283 58.361 99.3346C57.2259 99.5564 56.2569 99.0296 56.1185 98.087C55.9801 97.1444 56.6445 96.5345 57.8904 96.3404C68.66 94.4552 77.6025 89.354 84.9391 81.2864C85.4651 80.7042 85.5759 80.2606 85.1052 79.5952C84.6346 78.9298 84.0255 77.6823 83.4441 76.7397C83.2204 76.4312 83.0953 76.062 83.0855 75.6809C83.0756 75.2998 83.1813 74.9246 83.3887 74.6049C84.2747 73.1078 85.1606 71.5553 85.9635 70.0028C86.1553 69.5946 86.4684 69.2556 86.8599 69.0323C87.2513 68.809 87.7021 68.7122 88.1506 68.7552H90.7254ZM90.9745 71.888C88.5936 71.888 88.6766 71.9434 87.5139 73.7732C86.6833 75.104 86.711 76.1297 87.4862 77.5159C88.2614 78.9021 89.0919 79.5121 90.7531 79.4843C92.4142 79.4566 93.0786 78.9576 93.8815 77.6546C94.6844 76.3515 94.7951 75.0762 93.8538 73.6069C92.9125 72.1375 92.3311 71.4444 90.9745 71.888Z" fill="white"/>
<path d="M8.88704 32.0211C7.91805 32.0211 6.94906 32.132 6.00775 31.9934C5.38191 31.9051 4.81036 31.5893 4.40199 31.1062C3.3514 29.4398 2.39027 27.7185 1.5227 25.9496C1.41818 25.6889 1.36679 25.4099 1.37154 25.1289C1.37629 24.848 1.4371 24.5709 1.55039 24.3139C2.38095 22.6505 3.34994 21.0425 4.23588 19.4068C4.41329 19.0489 4.6912 18.7507 5.03547 18.5488C5.37974 18.3469 5.77539 18.25 6.17386 18.2701C7.64119 18.2978 9.08084 18.2424 10.5205 18.2978C10.8226 18.318 11.1249 18.2627 11.4004 18.1368C11.6758 18.011 11.9157 17.8187 12.0986 17.577C18.2412 10.3297 26.317 4.98323 35.3821 2.16251C36.794 1.71893 38.2337 1.38625 39.6733 1.05356C41.113 0.720872 41.6667 1.16445 41.8882 2.10706C42.1096 3.04967 41.5006 3.88139 40.3101 4.15863C35.3504 5.23791 30.5937 7.10018 26.2182 9.67568C21.7515 12.3221 17.7716 15.7168 14.4518 19.7117C14.0365 20.2108 14.0642 20.5712 14.3688 21.0702C15.0334 22.0707 15.6255 23.1177 16.1406 24.203C16.3974 24.8129 16.4073 25.4988 16.1683 26.1159C15.3654 27.7794 14.3965 29.3319 13.5382 30.9399C13.3709 31.2859 13.1062 31.5754 12.7765 31.7724C12.4469 31.9695 12.0668 32.0656 11.6833 32.0488L8.88704 32.0211ZM8.7763 28.9161C9.60687 28.7774 10.6589 28.9161 11.0465 28.4725C11.9324 27.4744 12.9568 26.1991 12.9568 25.0347C12.9568 23.8703 11.8494 22.6505 11.1019 21.5415C10.8804 21.2643 10.1606 21.2643 9.66224 21.2643C8.66556 21.292 7.33665 21.0702 6.72757 21.597C6.11849 22.1237 4.78959 23.8426 4.78959 25.007C4.78959 26.1714 5.84164 27.4467 6.69989 28.4447C7.0598 28.8883 8.08417 28.7774 8.7763 28.9161Z" fill="white"/>
<path d="M57.3367 50.1525C57.3221 52.0572 56.5582 53.8793 55.2106 55.2235C53.863 56.5678 52.0405 57.3257 50.1384 57.333C46.1517 57.3607 42.8295 54.1724 42.8295 50.2911C42.8295 46.4098 46.2348 42.8334 50.1661 42.8334C54.0975 42.8334 57.3367 46.1325 57.3367 50.1525ZM54.2082 50.0416C54.2194 49.4875 54.1191 48.9367 53.9133 48.4222C53.7076 47.9077 53.4005 47.4399 53.0104 47.0467C52.6204 46.6535 52.1553 46.343 51.6428 46.1335C51.1304 45.924 50.5811 45.82 50.0277 45.8276C47.7021 45.8276 45.9856 47.491 45.9579 49.8198C45.9302 52.1486 47.6467 54.0615 50.0277 54.0893C52.4086 54.117 54.2082 52.3427 54.2082 50.0416Z" fill="white"/>
</g>
<defs>
<clipPath id="clip0_38_56">
<rect width="100" height="100" fill="white"/>
</clipPath>
</defs>
</svg>
