<svg width="100" height="100" viewBox="0 0 100 100" fill="none" xmlns="http://www.w3.org/2000/svg">
<g clip-path="url(#clip0_38_95)">
<path d="M50 100.016C22.3478 100 -0.0470679 77.5878 1.30632e-05 49.9059C0.047094 22.224 22.4106 0.470518 49.1682 0.0156876C76.9617 -0.454827 100.078 21.9887 100.016 50.2039C99.9529 77.6506 77.511 100.016 50 100.016ZM56.9052 66.5621C58.3333 66.5621 59.7144 66.5151 61.0954 66.5778C61.7859 66.5935 62.1155 66.4053 62.3352 65.6995C64.5951 58.6418 66.8864 51.5893 69.2091 44.542C69.4445 43.8363 69.2875 43.5069 68.7225 43.0991C62.7276 38.7913 56.7483 34.4469 50.7847 30.0659C50.1413 29.5954 49.7489 29.6738 49.1682 30.0972C43.236 34.4364 37.2881 38.7599 31.3246 43.0678C30.7282 43.5069 30.5556 43.8519 30.8067 44.6048C33.1084 51.5998 35.3892 58.6157 37.6491 65.6525C37.8845 66.4053 38.2455 66.5778 38.9674 66.5778C43.236 66.5464 47.5047 66.5621 51.7734 66.5621H52.872V69.495H51.5851C47.2379 69.495 42.9065 69.5107 38.5593 69.4793C37.9002 69.4793 37.4765 69.6675 37.0998 70.2164C35.8286 72.0358 34.5104 73.8237 33.1921 75.6117C32.8782 76.0195 32.8155 76.3331 33.145 76.788C36.3465 81.2265 39.5323 85.6964 42.7338 90.1506C42.9326 90.4179 43.2233 90.6022 43.5499 90.6681C47.7688 91.3634 52.0726 91.3687 56.2932 90.6838C56.5042 90.6459 56.7056 90.5669 56.886 90.4511C57.0664 90.3354 57.2223 90.1853 57.3446 90.0094C60.4991 85.665 63.6064 81.2735 66.7608 76.9134C67.1689 76.3488 67.1061 75.9881 66.7138 75.4705C65.3955 73.7296 64.1714 71.926 62.8217 70.2008C62.653 70.0042 62.4467 69.8433 62.215 69.7275C61.9832 69.6117 61.7306 69.5433 61.4721 69.5264C59.9655 69.4323 58.4589 69.495 56.9052 69.495V66.5621ZM20.4959 38.8645C23.0069 39.6801 25.3139 40.4172 27.6052 41.2014C28.2643 41.421 28.7351 41.3739 29.3001 40.9504C35.044 36.7472 40.7878 32.5439 46.5788 28.4191C47.9128 27.478 48.9328 26.5527 48.5719 24.7804C48.5719 24.7334 48.6347 24.6706 48.6817 24.6079H51.4595C51.4595 25.1412 51.5066 25.596 51.4595 26.0351C51.4124 26.4743 51.6322 27.1016 52.1657 27.4937C58.3961 31.9793 64.5794 36.5119 70.8098 40.9818C71.22 41.2417 71.7154 41.3318 72.1908 41.2328C74.3252 40.6054 76.4124 39.8526 78.5311 39.2095C79.1745 39.0213 79.3942 38.7233 79.3942 38.0489C79.3942 32.7008 79.4727 27.3683 79.4727 22.0201C79.4454 21.5189 79.2458 21.0425 78.9077 20.6713C76.0228 17.7563 72.6904 15.3208 69.0364 13.4567C68.547 13.2383 67.995 13.2049 67.4827 13.3626C64.0145 14.4605 60.5775 15.6211 57.1249 16.766L51.4124 18.6951V20.5301H48.5876C48.5435 20.3347 48.5277 20.134 48.5405 19.9341C48.7445 18.9147 48.2423 18.5226 47.3164 18.2246C42.4043 16.6405 37.5079 14.9624 32.5957 13.3626C32.1406 13.2215 31.4815 13.2215 31.0578 13.4253C27.3302 15.307 23.9329 17.7806 20.9981 20.7497C20.713 21.0352 20.5403 21.4138 20.5116 21.8162C20.4802 27.478 20.4959 33.1399 20.4959 38.8645ZM90.7408 56.1637C90.6541 55.9057 90.5383 55.6584 90.3955 55.4266C87.1626 51.0508 83.914 46.675 80.6968 42.2836C80.3672 41.8287 80.0848 41.7503 79.5826 41.9228C77.4168 42.66 75.2197 43.3187 73.0697 44.0715C72.8607 44.1592 72.6712 44.2876 72.5122 44.4491C72.3532 44.6107 72.228 44.8022 72.1438 45.0126C69.7269 52.3526 67.3415 59.7031 64.9875 67.064C64.8804 67.5078 64.9538 67.9759 65.1915 68.3658C66.4627 70.2164 67.828 72.0201 69.1306 73.8551C69.4602 74.3256 69.7426 74.4668 70.3233 74.2785L85.7972 69.3695C86.1268 69.2754 86.5349 69.0558 86.6761 68.7579C88.7312 64.8186 90.1055 60.5606 90.7408 56.1637ZM19.8368 41.7346C19.6956 41.8915 19.4758 42.0797 19.3032 42.2992C16.086 46.6594 12.8531 51.0038 9.6673 55.3796C9.41229 55.7684 9.30641 56.2363 9.36913 56.697C9.98227 60.8163 11.2707 64.8065 13.1827 68.5069C13.3822 68.8914 13.7179 69.1878 14.1243 69.3382C19.3189 71.0006 24.5135 72.6161 29.6924 74.2785C30.226 74.4354 30.5085 74.3727 30.8224 73.9178C32.172 72.0358 33.5531 70.1694 34.887 68.256C34.9838 68.0892 35.0462 67.9047 35.0704 67.7135C35.0947 67.5222 35.0803 67.328 35.0283 67.1424C32.6637 59.7501 30.2679 52.3683 27.8406 44.9969C27.7563 44.7865 27.6311 44.595 27.4721 44.4335C27.3132 44.2719 27.1237 44.1435 26.9146 44.0558C24.7489 43.303 22.5675 42.6286 20.3861 41.9228L19.8368 41.7346ZM7.61144 53.0583L7.92531 52.7447C11.064 48.51 14.1975 44.265 17.3258 40.0094C17.5815 39.6132 17.7076 39.1473 17.6868 38.6763C17.6763 33.647 17.6345 28.6177 17.5612 23.5885C17.5612 23.2905 17.5141 23.0082 17.4827 22.6161C15.113 23.3532 12.8688 24.0276 10.6246 24.7491C10.3378 24.8561 10.0985 25.0619 9.94979 25.3294C5.9479 31.7911 3.64094 38.7861 3.09167 46.377C3.06413 46.713 3.14676 47.0488 3.32707 47.3338C4.70811 49.2315 6.13623 51.1136 7.61144 53.0583ZM92.3415 53.1211C93.7539 51.2547 95.0879 49.5452 96.3434 47.7572C96.6963 47.2701 96.8784 46.6802 96.8613 46.079C96.3277 39.0213 94.2091 32.4498 90.678 26.3018C90.0973 25.2823 89.4225 24.6236 88.2141 24.3413C86.3151 23.8865 84.4633 23.2121 82.4702 22.6004C82.4545 23.118 82.4074 23.4944 82.4074 23.8708C82.376 28.5602 82.3603 33.234 82.2819 37.9235C82.2227 38.9546 82.5469 39.9712 83.1921 40.7779C86.2367 44.8087 89.2185 48.9021 92.3415 53.1211ZM66.0546 10.6807C64.5794 8.59473 63.1984 6.60289 61.7859 4.6581C61.6133 4.40716 61.2053 4.29737 60.8757 4.21895C54.6166 2.71511 48.1137 2.52287 41.7765 3.65433C38.4652 4.21895 38.4652 4.25032 36.5192 7.01067L35.7502 8.12422L33.9454 10.6964C39.2812 12.4843 44.4288 14.2095 49.592 15.9034C49.9529 16.0132 50.408 15.9191 50.7847 15.7936C54.3158 14.6487 57.8311 13.4724 61.3465 12.2961L66.0546 10.6807ZM39.8619 91.2484C39.6108 90.8877 39.4382 90.6054 39.2342 90.3231C36.3622 86.2924 33.4903 82.2459 30.5713 78.2309C30.2043 77.7526 29.7091 77.3882 29.1431 77.1801C25.4551 75.9724 21.7514 74.8275 18.0477 73.6512L13.779 72.3338C13.779 74.7647 13.7477 76.9762 13.7947 79.1876C13.815 79.7251 14.0075 80.242 14.344 80.6619C19.1103 86.2467 25.1341 90.622 31.9209 93.4285C32.2191 93.554 32.6114 93.6794 32.8939 93.601C35.2009 92.8482 37.4922 92.0483 39.8619 91.2484ZM60.1224 91.2327C62.4922 92.0483 64.705 92.8325 66.9335 93.554C67.2945 93.6484 67.6771 93.6152 68.0163 93.4599C74.8764 90.6303 80.9616 86.2051 85.7659 80.5521C85.9699 80.3011 86.2053 79.9718 86.2053 79.6581C86.2367 77.2742 86.221 74.8902 86.221 72.3965L85.1852 72.6474C81.0264 73.9649 76.8989 75.3764 72.693 76.537C70.6999 77.1016 69.3503 78.1211 68.2047 79.8306C65.6309 83.6575 62.8845 87.3588 60.1224 91.2327ZM62.4765 95.1537C61.1582 94.6989 59.8399 94.197 58.506 93.8049C57.9191 93.6152 57.2977 93.5563 56.6855 93.6324C52.7621 94.2127 48.8073 94.3852 44.8839 93.7892C43.0401 93.4867 41.1481 93.7265 39.4382 94.4793C38.8104 94.7459 38.167 94.9655 37.5236 95.2008C45.8726 97.6317 54.1588 97.6318 62.4765 95.1537ZM96.8142 52.0703C95.9354 53.2466 95.0094 54.4072 94.1777 55.6148C93.8716 56.0325 93.6674 56.5159 93.5813 57.0264C92.8908 61.3237 91.6667 65.4799 89.6579 69.3538C88.5436 71.4868 89.2498 73.6198 89.2185 75.7685C94.0364 68.601 96.5945 60.7434 96.8142 52.0703ZM86.8173 20.8595C83.2078 15.276 71.6102 6.90088 66.3685 6.03827C67.263 7.29298 68.0948 8.532 68.9736 9.72397C69.2552 10.1087 69.62 10.425 70.0408 10.6493C74.152 12.7603 77.9109 15.4957 81.1833 18.7578C81.4296 19.0433 81.7421 19.2641 82.0935 19.4009C83.6001 19.9028 85.1224 20.3419 86.8173 20.8595ZM13.0258 20.9065C14.4539 20.4674 15.6309 20.0753 16.8236 19.7616C17.7899 19.5138 18.6661 18.9972 19.3503 18.2716C22.2956 15.319 25.691 12.8522 29.4099 10.963C31.5443 9.88081 32.1563 7.68507 33.5217 6.03827C25.361 9.04957 18.6127 13.9586 13.0258 20.9065ZM10.6403 75.7842L11.0013 75.7371C11.0013 74.357 11.0327 72.9611 10.9856 71.5809C10.9779 71.0385 10.8548 70.5039 10.6246 70.0126C8.72569 66.2327 7.23479 62.2961 6.66982 58.1242C6.30886 55.505 4.40993 54.0307 3.09167 52.1016C3.38985 60.7277 5.94791 68.601 10.6403 75.7842Z" fill="white"/>
<path d="M48.9171 63.5666H46.1393V60.7905H48.9171V63.5666Z" fill="white"/>
<path d="M51.0515 60.7592H53.8606V63.5352H51.0515V60.7592Z" fill="white"/>
</g>
<defs>
<clipPath id="clip0_38_95">
<rect width="100" height="100" fill="white"/>
</clipPath>
</defs>
</svg>
