<svg width="100" height="100" viewBox="0 0 100 100" fill="none" xmlns="http://www.w3.org/2000/svg">
<g clip-path="url(#clip0_38_63)">
<path d="M0 92.1773L1.61711 90.5084L22.0918 70.013C22.6656 69.4654 23.1873 68.8917 24.1002 69.0482C24.3088 69.0743 24.6218 68.7874 24.8044 68.6049C26.8649 66.4406 29.0037 64.3285 30.9598 62.0599C32.916 59.7914 33.6985 57.4706 34.3506 54.8891C35.759 49.1264 37.1153 43.3376 38.2368 37.4967C39.5931 30.2477 41.5493 23.2594 45.8529 17.1577C49.7392 11.6558 54.2253 6.70139 60.3547 3.67662C67.5796 0.130335 75.1695 -1.09522 83.0203 1.06906C91.6536 3.44194 97.2092 9.12642 99.1393 17.8618C101.356 27.7966 99.2436 37.0013 92.8795 44.9283C85.6286 54.0026 76.0563 59.322 64.6062 61.382C59.3114 62.3207 54.0428 63.5462 48.748 64.5893C42.1492 65.8931 36.724 69.1525 32.3422 74.2112C31.6901 74.9413 30.8294 75.4889 30.8816 76.6884C30.9077 76.9752 30.5164 77.3663 30.2556 77.6271L8.65937 99.2177C8.39854 99.5045 8.08556 99.7392 7.79865 100H6.65102L0 93.3507V92.1773ZM23.8132 73.116L4.19926 92.7509L7.30308 95.88L26.9692 76.219C25.9259 75.176 24.8044 74.0547 23.8132 73.116ZM39.228 49.309C38.0803 53.4811 37.1153 57.6792 35.0548 61.4602C32.9943 65.2412 29.6818 68.1355 26.7345 71.1603L28.9776 73.455C34.4288 66.232 41.8884 62.3468 50.7564 60.8865C44.7574 59.0873 40.8712 55.3585 39.228 49.309ZM51.1476 28.9178L56.2337 34.0026L62.4674 27.8748L57.3031 22.6597L51.1476 28.9178ZM59.7548 20.1564L64.9191 25.4237L71.0746 19.2959L65.8842 14.0286L59.7548 20.1564ZM73.4742 16.8709L79.6296 10.6649L74.5436 5.58014L68.3881 11.7601L73.4742 16.8709ZM82.2379 13.0899C80.0991 15.2281 77.9864 17.3142 76.0563 19.2698L80.9859 24.1981C83.0464 22.2164 85.1591 20.1303 87.2196 18.1225L82.2379 13.0899ZM58.6333 36.4797L63.7193 41.4863C65.7538 39.4784 67.8665 37.3663 69.8226 35.3846L64.7887 30.3259L58.6333 36.4797ZM67.2926 27.8226L72.3787 32.9595L78.5081 26.7535L73.4481 21.6688L67.2926 27.8226ZM53.7559 36.5841L48.6698 31.5254C46.6615 33.5332 44.5488 35.6193 42.5926 37.601C44.2358 39.2438 45.9572 40.9908 47.6526 42.6597L53.7559 36.5841ZM86.072 34.4459L81.0642 29.3872L74.9609 35.4107L80.0209 40.4954L86.072 34.4459ZM66.3015 43.9374L71.3876 49.0743L77.517 42.9726C75.8216 41.2777 74.1002 39.5306 72.4048 37.8618L66.3015 43.9374ZM94.7835 25.7627L89.6974 20.6779L83.5159 26.8578L88.6281 31.9426L94.7835 25.7627ZM56.2076 38.9309L50.1043 45.0847C51.7736 46.7796 53.5472 48.5267 55.2426 50.2216L61.4241 44.0938L56.2076 38.9309ZM62.5456 57.6792L68.7533 51.6297L63.6672 46.4928L57.5117 52.6206L62.5456 57.6792ZM57.277 17.9139L63.5368 11.6818L59.3897 7.53581L52.7647 13.3768L57.277 17.9139ZM88.6281 36.7927C86.5415 38.8787 84.4288 40.9648 82.4465 42.9726L86.698 47.2229L92.4622 40.6258C91.0276 39.1916 89.8018 37.94 88.6281 36.7927ZM50.4695 15.9322C48.8263 18.4876 47.157 21.043 45.6442 23.4159C46.8179 24.5893 47.8091 25.5541 48.6959 26.4667L54.8513 20.3389L50.4695 15.9322ZM52.7387 52.7249L47.5743 47.588C46.2963 48.8917 44.94 50.2216 43.5576 51.6036C44.6245 53.8762 46.4906 55.6769 48.8002 56.6623L52.7387 52.7249ZM84.0897 49.5436L79.9165 45.3715L73.7872 51.5775L76.5258 54.4198L84.0897 49.5436ZM89.7496 15.9322C90.8798 14.8022 91.9753 13.681 93.036 12.5684C93.1209 12.4694 93.1797 12.3507 93.207 12.2232C93.2343 12.0957 93.2293 11.9634 93.1925 11.8383C91.8884 9.80439 90.2452 8.0834 88.3672 6.96215L84.5853 10.717L89.7496 15.9322ZM62.7021 6.0495L65.832 9.28288L71.4919 3.54624C68.4508 3.92445 65.4861 4.76877 62.7021 6.0495ZM91.0798 34.3676L94.001 37.2881C95.1868 34.6668 96.0032 31.8937 96.4267 29.0482C94.627 30.8213 92.8013 32.6206 91.0798 34.3676ZM77.2561 3.33764L82.1335 8.1877L85.1852 5.13686C82.673 4.06201 79.9863 3.45237 77.2561 3.33764ZM92.2274 18.0443L96.9484 22.7379C96.3485 20.1303 95.8007 17.6271 95.2269 14.9934L92.2274 18.0443ZM42.1231 48.1356L45.0183 45.2672L41.3146 41.5645C41.5754 43.6766 41.8362 45.8409 42.1231 48.1356ZM58.6333 58.6962L55.1382 55.1499L52.1648 57.9661L58.6333 58.6962ZM46.0355 28.996L44.1836 26.9361L42.3839 32.6727L46.0355 28.996ZM71.3876 54.0286L68.0229 57.4445L73.2134 55.7496L71.3876 54.0286Z" fill="white"/>
<path d="M0 15.489C0.260824 14.3677 0.443401 13.2465 0.782473 12.1774C3.10381 4.51113 10.6416 -0.599695 18.5446 0.104347C22.4646 0.418028 26.1579 2.06807 29.0067 4.77839C31.8554 7.48871 33.6866 11.0949 34.1941 14.9935C35.3678 24.3286 28.8472 33.0118 19.7966 34.2113C10.12 35.489 1.56495 29.1265 0.18258 19.635C0.156498 19.4264 0.0521648 19.2178 0 18.9831V15.489ZM16.0929 3.3638C9.18102 3.54633 3.33855 9.96093 3.31247 16.1669L5.29473 15.5933C6.49452 15.2282 7.30307 15.515 7.64215 16.4277C7.98122 17.3403 7.51174 18.1487 6.31195 18.5398C5.11216 18.9309 4.35577 19.1135 3.36464 19.4003C4.22536 26.0757 10.2504 30.665 14.9974 31.004C17.1709 22.5033 22.5004 17.1839 30.9859 15.0457C30.1774 8.55285 24.2827 3.83316 19.301 3.4681C18.675 6.33642 17.6578 9.0222 15.8059 11.3169C14.6061 12.8292 13.1716 14.1852 11.7632 15.515C11.6096 15.6732 11.4238 15.7965 11.2184 15.8766C11.0131 15.9567 10.7929 15.9918 10.5727 15.9794C10.3526 15.9671 10.1377 15.9076 9.94262 15.8049C9.7475 15.7023 9.57673 15.559 9.44184 15.3847C8.89411 14.6545 9.05061 13.768 9.88524 13.0639L10.5634 12.5163C13.1129 10.356 14.9645 7.48859 15.8842 4.27645C15.9624 3.98961 16.0146 3.67671 16.0929 3.3638ZM31.0642 18.4355C26.0563 18.4877 17.8143 26.8058 18.4664 31.1604C26.1346 30.6128 31.0381 23.7549 31.0642 18.4355Z" fill="white"/>
</g>
<defs>
<clipPath id="clip0_38_63">
<rect width="100" height="100" fill="white"/>
</clipPath>
</defs>
</svg>
