<svg width="20" height="24" viewBox="0 0 20 24" fill="none" xmlns="http://www.w3.org/2000/svg">
<path d="M9.51705 4.96542C8.61682 4.96542 7.73681 5.23237 6.9883 5.73251C6.23979 6.23265 5.65639 6.94351 5.31189 7.77522C4.96739 8.60692 4.87725 9.5221 5.05288 10.405C5.2285 11.288 5.662 12.099 6.29856 12.7355C6.93512 13.3721 7.74614 13.8056 8.62907 13.9812C9.512 14.1569 10.4272 14.0667 11.2589 13.7222C12.0906 13.3777 12.8015 12.7943 13.3016 12.0458C13.8017 11.2973 14.0687 10.4173 14.0687 9.51705C14.066 8.31072 13.5855 7.15458 12.7325 6.30158C11.8795 5.44857 10.7234 4.96815 9.51705 4.96542ZM9.51705 11.586C9.10786 11.586 8.70785 11.4646 8.36762 11.2373C8.02738 11.01 7.76221 10.6868 7.60561 10.3088C7.44902 9.93075 7.40805 9.51476 7.48788 9.11342C7.56771 8.71209 7.76476 8.34344 8.0541 8.0541C8.34344 7.76476 8.71209 7.56771 9.11342 7.48788C9.51476 7.40805 9.93075 7.44902 10.3088 7.60561C10.6868 7.76221 11.01 8.02739 11.2373 8.36762C11.4646 8.70785 11.586 9.10786 11.586 9.51705C11.5833 10.0649 11.3644 10.5896 10.977 10.977C10.5896 11.3644 10.0649 11.5833 9.51705 11.586ZM9.51705 0C6.99381 0.00273819 4.5747 1.0063 2.7905 2.7905C1.0063 4.5747 0.00273819 6.99381 0 9.51705C0 17.5238 8.45155 23.5237 8.80327 23.7719C9.01172 23.9203 9.26121 24 9.51705 24C9.7729 24 10.0224 23.9203 10.2308 23.7719C11.83 22.5958 13.2941 21.2462 14.5963 19.7479C17.5031 16.4066 19.0341 12.8687 19.0341 9.51705C19.0314 6.99381 18.0278 4.5747 16.2436 2.7905C14.4594 1.0063 12.0403 0.00273819 9.51705 0ZM12.7549 18.0721C11.7693 19.2063 10.6858 20.2517 9.51705 21.1961C8.34828 20.2517 7.26482 19.2063 6.27918 18.0721C4.55163 16.0755 2.48271 12.9618 2.48271 9.51705C2.48271 7.65143 3.22382 5.86222 4.54302 4.54302C5.86222 3.22383 7.65143 2.48271 9.51705 2.48271C11.3827 2.48271 13.1719 3.22383 14.4911 4.54302C15.8103 5.86222 16.5514 7.65143 16.5514 9.51705C16.5514 12.9618 14.4928 16.0755 12.7549 18.0721Z" fill="#6287BF"/>
</svg>
