<svg width="24" height="24" viewBox="0 0 24 24" fill="none" xmlns="http://www.w3.org/2000/svg">
<path d="M14.3856 1.63437C14.4176 1.51216 14.4737 1.39755 14.5505 1.29727C14.6273 1.19699 14.7234 1.11305 14.8331 1.05037C14.9428 0.987691 15.0639 0.947534 15.1893 0.93225C15.3147 0.916966 15.4419 0.926863 15.5634 0.961361C17.3557 1.44205 18.9899 2.38584 20.302 3.69796C21.6142 5.01008 22.558 6.64433 23.0386 8.4366C23.0731 8.55813 23.083 8.68532 23.0678 8.81073C23.0525 8.93613 23.0123 9.05723 22.9496 9.16691C22.887 9.2766 22.803 9.37267 22.7027 9.44951C22.6025 9.52634 22.4878 9.58239 22.3656 9.61437C22.2836 9.63813 22.1986 9.65026 22.1133 9.65042C21.9011 9.64921 21.6952 9.57782 21.5278 9.44738C21.3604 9.31695 21.2409 9.13481 21.1879 8.92934C20.788 7.46588 20.0135 6.13196 18.9408 5.05921C17.868 3.98647 16.5341 3.21197 15.0707 2.81214C14.9474 2.78148 14.8315 2.72638 14.7299 2.65011C14.6282 2.57384 14.543 2.47795 14.4791 2.36812C14.4152 2.2583 14.374 2.13676 14.358 2.01072C14.3419 1.88469 14.3513 1.75671 14.3856 1.63437ZM14.0732 6.52573C14.8866 6.74841 15.6281 7.17915 16.2245 7.77553C16.8209 8.37191 17.2516 9.11336 17.4743 9.92684C17.5254 10.1333 17.6445 10.3167 17.8123 10.4474C17.9801 10.5782 18.1869 10.6488 18.3997 10.6479C18.4812 10.6487 18.5623 10.6366 18.64 10.6119C18.7633 10.5812 18.8792 10.5261 18.9808 10.4498C19.0825 10.3736 19.1677 10.2777 19.2316 10.1679C19.2955 10.058 19.3367 9.93649 19.3527 9.81045C19.3688 9.68441 19.3594 9.55644 19.3251 9.4341C19.0215 8.29179 18.4215 7.25 17.5858 6.41424C16.75 5.57848 15.7082 4.97846 14.5659 4.67494C14.4405 4.62926 14.3069 4.61018 14.1737 4.61893C14.0406 4.62769 13.9107 4.66408 13.7923 4.72579C13.6739 4.7875 13.5697 4.87317 13.4863 4.97736C13.4029 5.08155 13.3421 5.20197 13.3077 5.33096C13.2734 5.45994 13.2663 5.59466 13.2868 5.72654C13.3074 5.85842 13.3552 5.98457 13.4272 6.09696C13.4992 6.20935 13.5939 6.30552 13.7051 6.37933C13.8163 6.45315 13.9416 6.50301 14.0732 6.52573ZM23.9881 18.1232C23.7755 19.7461 22.9807 21.2366 21.7517 22.3176C20.5226 23.3985 18.9428 23.9964 17.306 24C7.76367 24 0 16.2363 0 6.69398C0.00360825 5.05719 0.601473 3.4774 1.68244 2.24833C2.7634 1.01926 4.25391 0.224538 5.87684 0.0119337C6.29055 -0.0339382 6.70813 0.0531664 7.069 0.260616C7.42988 0.468065 7.71529 0.785073 7.88385 1.16567L10.2995 6.80214C10.4248 7.09471 10.475 7.41395 10.4456 7.73086C10.4163 8.04777 10.3082 8.35233 10.1312 8.61687L8.13623 11.6695C9.03961 13.5028 10.5281 14.9829 12.3666 15.8758L15.3831 13.8688C15.6474 13.6906 15.9527 13.5828 16.2702 13.5555C16.5878 13.5281 16.907 13.5822 17.1979 13.7125L22.8343 16.1161C23.2149 16.2847 23.5319 16.5701 23.7394 16.931C23.9468 17.2919 24.0339 17.7094 23.9881 18.1232ZM22.0772 17.8828L16.4407 15.4792L13.4362 17.4862C13.1598 17.669 12.8408 17.7772 12.5102 17.8003C12.1796 17.8235 11.8486 17.7608 11.5494 17.6184C9.31033 16.5353 7.49919 14.7326 6.40563 12.4987C6.26145 12.2005 6.19675 11.8701 6.21781 11.5395C6.23886 11.2089 6.34496 10.8894 6.52581 10.6119L8.53283 7.55928L6.1172 1.92281C4.95739 2.0719 3.8917 2.63862 3.11964 3.51686C2.34759 4.3951 1.92212 5.52463 1.92289 6.69398C1.92607 10.7729 3.54781 14.6838 6.43202 17.568C9.31623 20.4522 13.2271 22.0739 17.306 22.0771C18.4754 22.0779 19.6049 21.6524 20.4831 20.8804C21.3614 20.1083 21.9281 19.0426 22.0772 17.8828Z" fill="#6287BF"/>
</svg>
