<svg width="26" height="24" viewBox="0 0 26 24" fill="none" xmlns="http://www.w3.org/2000/svg">
<path d="M15.4 19.9951H10.6C8.05392 19.9951 5.61212 18.958 3.81178 17.1121C2.01143 15.2662 1 12.7625 1 10.152V4H5.8V10.152C5.8 11.4572 6.30571 12.7091 7.20589 13.632C8.10606 14.555 9.32696 15.0735 10.6 15.0735V4H15.4V9.53676L15.436 9.53184C16.7512 9.36358 17.9612 8.70853 18.8385 7.68984C19.7158 6.67116 20.2 5.35899 20.2 4H25L24.5896 6.1052C24.3438 7.36522 23.8206 8.55105 23.0598 9.57221C22.2991 10.5934 21.321 11.4229 20.2 11.9975V11.9975C21.29 12.3699 22.2623 13.0359 23.0152 13.9257C23.768 14.8156 24.2737 15.8967 24.4792 17.0557L25 19.9951H20.2C20.2 18.6361 19.7158 17.3239 18.8385 16.3052C17.9612 15.2865 16.7512 14.6315 15.436 14.4632V20L15.4 19.9951Z" stroke="#6287BF" stroke-width="2" stroke-linecap="round" stroke-linejoin="round"/>
</svg>
