<svg width="24" height="24" viewBox="0 0 24 24" fill="none" xmlns="http://www.w3.org/2000/svg">
<path d="M20.5025 3.49206C19.3968 2.38078 18.0798 1.49967 16.6283 0.90013C15.1768 0.300592 13.6198 -0.00537612 12.0482 7.14833e-05C5.4633 7.14833e-05 0.0964823 5.34005 0.0964823 11.892C0.0964823 13.992 0.651254 16.032 1.68844 17.832L0 24L6.33164 22.344C8.08038 23.292 10.0462 23.796 12.0482 23.796C18.6331 23.796 23.9999 18.456 23.9999 11.904C23.9999 8.72405 22.7577 5.73605 20.5025 3.49206ZM12.0482 21.78C10.2633 21.78 8.51455 21.3 6.98289 20.4L6.62109 20.184L2.85828 21.168L3.85929 17.52L3.61808 17.148C2.62642 15.5724 2.09986 13.7511 2.09849 11.892C2.09849 6.44405 6.56078 2.00407 12.0361 2.00407C14.6894 2.00407 17.1859 3.03606 19.0552 4.90806C19.9808 5.82481 20.7143 6.91525 21.2133 8.11616C21.7122 9.31707 21.9666 10.6046 21.9617 11.904C21.9859 17.352 17.5236 21.78 12.0482 21.78ZM17.4994 14.388C17.1979 14.244 15.7266 13.524 15.4613 13.416C15.1839 13.32 14.9909 13.272 14.7859 13.56C14.5809 13.86 14.014 14.532 13.8452 14.724C13.6763 14.928 13.4954 14.952 13.1939 14.796C12.8924 14.652 11.9276 14.328 10.7939 13.32C9.90148 12.528 9.31052 11.556 9.12962 11.256C8.96078 10.956 9.1055 10.8 9.26228 10.644C9.39495 10.512 9.56379 10.296 9.70851 10.128C9.85324 9.96004 9.91354 9.82804 10.01 9.63604C10.1065 9.43204 10.0583 9.26404 9.9859 9.12004C9.91354 8.97605 9.31052 7.51205 9.06932 6.91205C8.82811 6.33605 8.57485 6.40805 8.39394 6.39605H7.81505C7.61003 6.39605 7.29646 6.46805 7.01907 6.76805C6.75375 7.06805 5.98189 7.78805 5.98189 9.25204C5.98189 10.716 7.05526 12.132 7.19998 12.324C7.3447 12.528 9.31052 15.528 12.3015 16.812C13.013 17.124 13.5678 17.304 14.002 17.436C14.7135 17.664 15.3648 17.628 15.8834 17.556C16.4623 17.472 17.6562 16.836 17.8974 16.14C18.1507 15.444 18.1507 14.856 18.0663 14.724C17.9819 14.592 17.801 14.532 17.4994 14.388Z" fill="#6287BF"/>
</svg>
