<svg width="212" height="48" viewBox="0 0 212 48" fill="none" xmlns="http://www.w3.org/2000/svg">
<g clip-path="url(#clip0_227_510)">
<path d="M35.9002 0.000123675C33.5233 -0.0185222 31.1945 0.672137 29.2091 1.9845C27.2238 3.29686 25.6714 5.17179 24.7489 7.37139C23.8264 9.57099 23.5754 11.9962 24.0277 14.3392C24.48 16.6823 25.6152 18.8376 27.2894 20.5319C28.9635 22.2261 31.1012 23.3828 33.4311 23.8554C35.761 24.3279 38.1781 24.0949 40.3759 23.1859C42.5737 22.2769 44.4531 20.733 45.7757 18.7498C47.0982 16.7667 47.8043 14.4338 47.8044 12.0472C47.8045 8.86833 46.5533 5.81828 44.3235 3.5617C42.0937 1.30513 39.066 0.0249583 35.9002 0.000123675Z" fill="white"/>
<path d="M35.9001 9.12932C35.4814 9.05288 35.051 9.06976 34.6395 9.17872C34.2279 9.28769 33.8453 9.48607 33.5185 9.75989C33.1917 10.0337 32.9289 10.3763 32.7485 10.7634C32.5681 11.1505 32.4746 11.5726 32.4746 12C32.4746 12.4273 32.5681 12.8494 32.7485 13.2365C32.9289 13.6236 33.1917 13.9661 33.5185 14.24C33.8453 14.5138 34.2279 14.7122 34.6395 14.8211C35.051 14.9301 35.4814 14.947 35.9001 14.8705C36.5697 14.7483 37.1752 14.394 37.6113 13.8694C38.0473 13.3449 38.2861 12.6832 38.2861 12C38.2861 11.3167 38.0473 10.6551 37.6113 10.1305C37.1752 9.60588 36.5697 9.25155 35.9001 9.12932Z" fill="#2E5FAA"/>
<path d="M11.9976 0.000123675C9.62071 -0.0185222 7.29187 0.672137 5.30653 1.9845C3.32118 3.29686 1.76879 5.17179 0.846305 7.37139C-0.0761825 9.57099 -0.327191 11.9962 0.125113 14.3392C0.577418 16.6823 1.71265 18.8376 3.38681 20.5319C5.06096 22.2261 7.19857 23.3828 9.52847 23.8554C11.8584 24.3279 14.2756 24.0949 16.4734 23.1859C18.6712 22.2769 20.5506 20.733 21.8731 18.7498C23.1956 16.7667 23.9017 14.4338 23.9018 12.0472C23.9019 8.86833 22.6507 5.81828 20.4209 3.5617C18.1911 1.30513 15.1634 0.0249583 11.9976 0.000123675Z" fill="white"/>
<path d="M11.998 9.12932C11.5792 9.05288 11.1489 9.06976 10.7373 9.17872C10.3258 9.28769 9.94311 9.48607 9.61634 9.75989C9.28958 10.0337 9.02671 10.3763 8.84633 10.7634C8.66595 11.1505 8.57245 11.5726 8.57245 12C8.57245 12.4273 8.66595 12.8494 8.84633 13.2365C9.02671 13.6236 9.28958 13.9661 9.61634 14.24C9.94311 14.5138 10.3258 14.7122 10.7373 14.8211C11.1489 14.9301 11.5792 14.947 11.998 14.8705C12.6675 14.7483 13.2731 14.394 13.7091 13.8694C14.1451 13.3449 14.384 12.6832 14.384 12C14.384 11.3167 14.1451 10.6551 13.7091 10.1305C13.2731 9.60588 12.6675 9.25155 11.998 9.12932Z" fill="#2E5FAA"/>
<path d="M35.9002 24.0001C33.5233 23.9815 31.1945 24.6721 29.2091 25.9845C27.2238 27.2969 25.6714 29.1718 24.7489 31.3714C23.8264 33.571 23.5754 35.9962 24.0277 38.3392C24.48 40.6823 25.6152 42.8376 27.2894 44.5319C28.9635 46.2261 31.1012 47.3828 33.4311 47.8554C35.761 48.3279 38.1781 48.0949 40.3759 47.1859C42.5737 46.2769 44.4531 44.733 45.7757 42.7498C47.0982 40.7667 47.8043 38.4338 47.8044 36.0472C47.8045 32.8683 46.5533 29.8183 44.3235 27.5617C42.0937 25.3051 39.066 24.025 35.9002 24.0001Z" fill="white"/>
<path d="M35.9001 33.2235C35.5231 33.2109 35.1473 33.2745 34.7952 33.4108C34.4432 33.547 34.122 33.753 33.8509 34.0165C33.5797 34.2799 33.3642 34.5955 33.217 34.9443C33.0699 35.2932 32.9942 35.6682 32.9944 36.047C33.1161 36.7193 33.469 37.3273 33.9914 37.7651C34.5139 38.203 35.1728 38.4428 35.8533 38.4428C36.5338 38.4428 37.1927 38.203 37.7151 37.7651C38.2376 37.3273 38.5904 36.7193 38.7122 36.047C38.7122 35.2982 38.4159 34.58 37.8885 34.0505C37.3612 33.521 36.6459 33.2235 35.9001 33.2235Z" fill="#2E5FAA"/>
<path d="M11.9976 24.0001C9.62071 23.9815 7.29187 24.6721 5.30653 25.9845C3.32118 27.2969 1.76879 29.1718 0.846305 31.3714C-0.0761825 33.571 -0.327191 35.9962 0.125113 38.3392C0.577418 40.6823 1.71265 42.8376 3.38681 44.5319C5.06096 46.2261 7.19857 47.3828 9.52847 47.8554C11.8584 48.3279 14.2756 48.0949 16.4734 47.1859C18.6712 46.2769 20.5506 44.733 21.8731 42.7498C23.1956 40.7667 23.9017 38.4338 23.9018 36.0472C23.9019 32.8683 22.6507 29.8183 20.4209 27.5617C18.1911 25.3051 15.1634 24.025 11.9976 24.0001Z" fill="white"/>
<path d="M11.998 33.2235C11.6209 33.2109 11.2451 33.2745 10.8931 33.4108C10.541 33.547 10.2198 33.753 9.94871 34.0165C9.67758 34.2799 9.46202 34.5955 9.31488 34.9443C9.16774 35.2932 9.09201 35.6682 9.09222 36.047C9.21395 36.7193 9.56681 37.3273 10.0893 37.7651C10.6117 38.203 11.2706 38.4428 11.9511 38.4428C12.6316 38.4428 13.2905 38.203 13.813 37.7651C14.3354 37.3273 14.6883 36.7193 14.81 36.047C14.81 35.2982 14.5137 34.58 13.9864 34.0505C13.459 33.521 12.7438 33.2235 11.998 33.2235Z" fill="#2E5FAA"/>
<path d="M68.9883 19.8589C68.4561 20.2859 67.7949 20.5182 67.1136 20.5177H62.9893V15.6236H67.1136C67.4542 15.6008 67.7959 15.6474 68.118 15.7606C68.4402 15.8739 68.7362 16.0513 68.9883 16.2824C69.2281 16.5134 69.4184 16.7912 69.5473 17.0987C69.6763 17.4062 69.7412 17.737 69.7382 18.0706C69.7336 18.7428 69.464 19.3858 68.9883 19.8589ZM62.9893 7.05889H66.8324L67.8635 7.24708L68.6134 7.71767C68.822 7.93167 68.9819 8.1886 69.082 8.47066C69.2451 8.75546 69.3109 9.08598 69.2695 9.41184C69.283 9.72445 69.2316 10.0365 69.1186 10.3281C69.0057 10.6197 68.8336 10.8846 68.6134 11.1059C68.1131 11.5153 67.4761 11.7173 66.8324 11.6706H62.9893V7.05889ZM73.5813 15.4353C73.0861 14.5433 72.3349 13.8218 71.4254 13.3647C72.1628 12.8137 72.7708 12.1069 73.2063 11.2942C73.6103 10.473 73.8341 9.5743 73.8625 8.65885C73.87 7.90019 73.705 7.14985 73.3801 6.46486C73.0553 5.77986 72.5791 5.17831 71.9878 4.70595C70.6886 3.58737 69.0101 3.01435 67.3011 3.10594H58.3964V24.8471H67.5823C69.3587 24.8665 71.073 24.1915 72.3627 22.9647C73.0195 22.434 73.5468 21.7595 73.9042 20.9928C74.2616 20.2262 74.4397 19.3876 74.4249 18.5412C74.4343 17.4476 74.1424 16.3727 73.5813 15.4353Z" fill="white"/>
<path d="M82.9546 7.43531V13.0824H86.704C87.1169 13.1045 87.5298 13.0406 87.917 12.8949C88.3041 12.7491 88.657 12.5246 88.9536 12.2353C89.2348 11.9921 89.457 11.6877 89.6032 11.3451C89.7494 11.0026 89.8158 10.631 89.7972 10.2588C89.82 9.73102 89.6898 9.20793 89.4223 8.75298C89.1978 8.32863 88.8333 7.9959 88.3912 7.81181C87.8741 7.53266 87.2902 7.40236 86.704 7.43531H82.9546ZM88.2975 21.553L85.9541 17.4118H82.9546V24.8471H78.2679V3.10592H86.9852C88.3145 3.0837 89.6305 3.37374 90.8283 3.95295C91.9561 4.57336 92.8983 5.48504 93.5574 6.59369C94.2166 7.70233 94.5688 8.96768 94.5777 10.2588C94.593 11.5994 94.2006 12.9128 93.4529 14.0235C92.8028 15.1447 91.8195 16.0333 90.6408 16.5647L95.6087 25.2236H94.109C92.9129 25.1444 91.7554 24.7674 90.7407 24.1265C89.7261 23.4857 88.8864 22.6012 88.2975 21.553Z" fill="white"/>
<path d="M108.825 20.8C110.032 20.7984 111.221 20.508 112.293 19.9529C113.295 19.384 114.11 18.5334 114.637 17.5059C115.197 16.601 115.54 15.5777 115.638 14.5169C115.737 13.4561 115.588 12.3869 115.204 11.3936C114.82 10.4004 114.212 9.51043 113.426 8.79401C112.641 8.0776 111.7 7.55437 110.679 7.26569C109.658 6.97702 108.584 6.93081 107.541 7.1307C106.499 7.33059 105.517 7.77107 104.674 8.41741C103.83 9.06374 103.148 9.89823 102.681 10.8548C102.214 11.8115 101.975 12.864 101.983 13.9294C101.955 14.8516 102.116 15.7697 102.454 16.6275C102.793 17.4852 103.302 18.2645 103.951 18.9176C104.589 19.5544 105.351 20.0506 106.191 20.3747C107.03 20.6988 107.927 20.8437 108.825 20.8ZM108.825 25.3176C107.299 25.3647 105.779 25.0966 104.361 24.53C102.942 23.9634 101.654 23.1102 100.577 22.0235C99.4731 20.993 98.6013 19.738 98.0194 18.3422C97.4375 16.9463 97.1589 15.442 97.2023 13.9294C97.1708 12.4185 97.4548 10.9176 98.036 9.52356C98.6171 8.12951 99.4826 6.87311 100.577 5.83526C101.658 4.76088 102.949 3.92217 104.369 3.37156C105.788 2.82096 107.305 2.57032 108.825 2.63529C110.851 2.59758 112.852 3.08375 114.637 4.04706C116.387 5.02235 117.844 6.45273 118.855 8.1882C119.803 9.95055 120.287 11.9267 120.261 13.9294C120.322 15.4357 120.061 16.9376 119.495 18.3339C118.929 19.7302 118.072 20.9884 116.98 22.0235C115.917 23.103 114.645 23.9523 113.243 24.5189C111.84 25.0855 110.337 25.3573 108.825 25.3176Z" fill="white"/>
<path d="M131.134 25.2236C128.933 25.3197 126.77 24.6182 125.041 23.247C124.291 22.5583 123.7 21.7124 123.311 20.769C122.923 19.8257 122.745 18.8081 122.792 17.7882H127.478C127.472 18.2431 127.568 18.6937 127.76 19.1059C127.963 19.5084 128.25 19.8617 128.603 20.1412C128.937 20.4026 129.319 20.5946 129.728 20.7059L131.134 20.8941C131.989 20.8888 132.829 20.6619 133.571 20.2353C133.898 20.0463 134.167 19.7708 134.349 19.4389C134.531 19.107 134.618 18.7314 134.602 18.353C134.594 18.0308 134.53 17.7125 134.415 17.4118C134.227 17.2236 134.04 16.9412 133.759 16.8471C133.5 16.5994 133.174 16.4354 132.821 16.3765L131.696 16L130.29 15.6235L129.166 15.3412L128.041 15.0589L127.01 14.6824L125.979 14.1177C125.631 13.9951 125.312 13.803 125.041 13.5529L124.198 12.8C123.94 12.4985 123.748 12.1457 123.635 11.7647C123.454 11.4094 123.328 11.0286 123.26 10.6353C123.152 10.172 123.089 9.69918 123.073 9.22355C123.039 8.29708 123.216 7.37505 123.59 6.5272C123.963 5.67936 124.524 4.92785 125.229 4.32942C126.873 3.10015 128.901 2.49954 130.947 2.63532C133.021 2.51746 135.062 3.18968 136.664 4.51767C137.369 5.17263 137.92 5.977 138.277 6.87239C138.633 7.76778 138.787 8.7317 138.726 9.69414H134.133C134.148 9.29961 134.071 8.90707 133.908 8.54765C133.746 8.18824 133.502 7.87184 133.196 7.62354C132.519 7.22346 131.755 6.99702 130.97 6.96419C130.185 6.93136 129.405 7.09313 128.697 7.43529C128.41 7.56529 128.168 7.7777 128.001 8.0457C127.834 8.3137 127.75 8.62531 127.76 8.94121C127.755 9.23437 127.82 9.52439 127.947 9.78823C128.084 10.0212 128.277 10.2155 128.509 10.353C128.779 10.5849 129.101 10.7465 129.447 10.8236L130.572 11.2L131.978 11.4823L133.384 11.9529L134.883 12.4235L136.289 12.9883L137.508 13.8353L138.539 14.9647L139.101 16.3765C139.294 16.985 139.389 17.6204 139.383 18.2588C139.424 19.6322 139.03 20.9833 138.258 22.1177C137.529 23.199 136.48 24.0223 135.258 24.4706C133.956 25.0248 132.547 25.282 131.134 25.2236Z" fill="white"/>
<path d="M161.504 25.2236H159.067C157.975 25.1426 156.914 24.8226 155.959 24.286C155.003 23.7494 154.177 23.0094 153.536 22.1177L147.819 14.2118V24.8471H143.132V3.10596H147.819V13.0824L154.942 3.10596H160.379L152.974 13.4589L161.504 25.2236Z" fill="white"/>
<path d="M172.471 20.8001C173.68 20.822 174.875 20.5302 175.939 19.953C176.969 19.3898 177.815 18.5402 178.376 17.506C178.936 16.6011 179.279 15.5778 179.377 14.517C179.476 13.4562 179.327 12.3869 178.943 11.3937C178.56 10.4005 177.951 9.51052 177.166 8.7941C176.38 8.07769 175.44 7.55445 174.418 7.26578C173.397 6.97711 172.323 6.9309 171.28 7.13079C170.238 7.33067 169.257 7.77116 168.413 8.41749C167.57 9.06383 166.887 9.89832 166.42 10.8549C165.953 11.8116 165.714 12.8641 165.722 13.9295C165.694 14.8517 165.855 15.7698 166.193 16.6276C166.532 17.4853 167.041 18.2646 167.69 18.9177C168.317 19.5426 169.064 20.0319 169.886 20.3557C170.709 20.6794 171.588 20.8306 172.471 20.8001ZM172.471 25.3177C170.947 25.3484 169.432 25.0728 168.015 24.5071C166.599 23.9414 165.309 23.097 164.222 22.0236C163.15 20.974 162.305 19.7134 161.74 18.3205C161.176 16.9277 160.904 15.4328 160.941 13.9295C160.915 12.4277 161.192 10.936 161.756 9.54479C162.319 8.15355 163.159 6.89163 164.222 5.83535C165.314 4.77451 166.606 3.94461 168.023 3.39492C169.44 2.84522 170.952 2.58695 172.471 2.63538C174.525 2.61023 176.553 3.0952 178.376 4.04715C180.119 5.0002 181.551 6.43809 182.5 8.18829C183.519 9.92623 184.038 11.9134 184 13.9295C184.061 15.4357 183.8 16.9377 183.234 18.334C182.668 19.7303 181.811 20.9884 180.719 22.0236C179.642 23.1103 178.354 23.9635 176.935 24.5301C175.517 25.0967 173.997 25.3648 172.471 25.3177Z" fill="white"/>
<path d="M60.4585 44.6117C59.8527 44.4732 59.2796 44.2175 58.7712 43.8588L59.5211 42.1647C59.9464 42.49 60.4212 42.7442 60.9271 42.9176C61.4708 43.1021 62.0405 43.1974 62.6143 43.2C63.1 43.2387 63.5869 43.141 64.0204 42.9176C64.1541 42.8405 64.2669 42.7315 64.3487 42.6001C64.4304 42.4688 64.4786 42.3192 64.489 42.1647C64.5035 42.0532 64.4845 41.9398 64.4344 41.8392C64.3843 41.7386 64.3054 41.6553 64.2078 41.6L63.5517 41.2235L62.4269 40.9412L60.6459 40.3764C60.1851 40.183 59.7699 39.8944 59.4274 39.5294C59.1032 39.0966 58.9377 38.5647 58.9587 38.0235C58.9296 37.4813 59.096 36.9467 59.4274 36.5176C59.749 36.0236 60.2042 35.6318 60.7397 35.3882C61.466 35.1483 62.2247 35.0213 62.9893 35.0117L64.7702 35.2C65.2999 35.3437 65.8054 35.5657 66.27 35.8588L65.6138 37.5529C64.8095 37.0996 63.9107 36.8417 62.9893 36.8C62.5036 36.7612 62.0167 36.859 61.5833 37.0823C61.4423 37.1744 61.3258 37.2997 61.2441 37.4474C61.1625 37.595 61.118 37.7605 61.1146 37.9294C61.1237 38.0967 61.182 38.2575 61.2821 38.3915C61.3822 38.5255 61.5196 38.6267 61.677 38.6823L63.1767 39.1529C63.791 39.2168 64.3917 39.3755 64.9577 39.6235C65.432 39.7914 65.8528 40.0839 66.1762 40.4706C66.3699 40.668 66.52 40.9041 66.6169 41.1635C66.7138 41.4229 66.7552 41.6999 66.7386 41.9764C66.7281 42.5129 66.5655 43.0353 66.27 43.4823C65.9325 43.9782 65.4364 44.3435 64.864 44.5176C64.1599 44.8456 63.3902 45.0066 62.6143 44.9882C61.8779 45.0082 61.1449 44.8801 60.4585 44.6117Z" fill="white"/>
<path d="M72.9251 44.3295C72.1513 43.9137 71.5036 43.2959 71.0504 42.5412C70.5659 41.7829 70.3083 40.901 70.3083 40.0001C70.3083 39.0991 70.5659 38.2171 71.0504 37.4589C71.4784 36.6843 72.1327 36.0601 72.9251 35.6706C73.7185 35.2018 74.6299 34.9731 75.5497 35.0118C76.3238 35.0115 77.0896 35.1717 77.7993 35.4824C78.4527 35.7458 79.032 36.1659 79.4865 36.7059L78.0805 38.0236C77.7805 37.6687 77.407 37.3837 76.9861 37.1887C76.5652 36.9936 76.107 36.8931 75.6434 36.8941C75.0935 36.9186 74.553 37.0463 74.0499 37.2706C73.5903 37.5211 73.2274 37.9186 73.0188 38.4001C72.7083 38.8754 72.5429 39.4316 72.5429 40.0001C72.5429 40.5686 72.7083 41.1246 73.0188 41.6C73.1131 41.833 73.2529 42.0447 73.43 42.2225C73.6071 42.4003 73.8179 42.5407 74.0499 42.6353C74.5303 42.9309 75.0801 43.0933 75.6434 43.1059C76.117 43.1097 76.5847 43.0007 77.0083 42.788C77.4319 42.5754 77.7993 42.2651 78.0805 41.8824L79.4865 43.2C79.0351 43.7664 78.457 44.2178 77.7993 44.5177C77.0249 44.8557 76.1846 45.0143 75.3408 44.9817C74.497 44.9492 73.6713 44.7262 72.9251 44.3295Z" fill="white"/>
<path d="M92.5155 35.2V44.7999H90.2659V40.847H85.9541V44.7999H83.7045V35.2H85.9541V38.9647H90.2659V35.2H92.5155Z" fill="white"/>
<path d="M103.67 42.6352C104.101 42.3908 104.458 42.0328 104.701 41.5999C104.948 41.1031 105.077 40.5554 105.077 39.9999C105.077 39.4445 104.948 38.8967 104.701 38.3999C104.432 37.961 104.082 37.5776 103.67 37.2705C103.167 37.0461 102.626 36.9184 102.076 36.894C101.557 36.9187 101.047 37.0467 100.577 37.2705C100.113 37.5454 99.7257 37.934 99.4518 38.3999C99.2044 38.8967 99.0755 39.4445 99.0755 39.9999C99.0755 40.5554 99.2044 41.1031 99.4518 41.5999C99.7012 42.0613 100.097 42.4258 100.577 42.6352C101.022 42.932 101.542 43.0952 102.076 43.1058C102.64 43.0931 103.189 42.9307 103.67 42.6352ZM99.4518 44.3293C98.6595 43.9398 98.0051 43.3157 97.5772 42.5411C97.0926 41.7828 96.8351 40.9008 96.8351 39.9999C96.8351 39.099 97.0926 38.217 97.5772 37.4587C98.0051 36.6841 98.6595 36.0599 99.4518 35.6705C100.249 35.2113 101.158 34.9832 102.076 35.0116C103.025 34.985 103.963 35.2125 104.795 35.6705C105.547 36.115 106.189 36.7267 106.669 37.4587C107.096 38.2372 107.32 39.1114 107.32 39.9999C107.32 40.8885 107.096 41.7626 106.669 42.5411C106.189 43.273 105.547 43.8848 104.795 44.3293C103.947 44.7453 103.019 44.9702 102.076 44.9881C101.163 44.9721 100.265 44.7467 99.4518 44.3293Z" fill="white"/>
<path d="M117.917 42.6353C118.371 42.421 118.735 42.0549 118.949 41.6C119.196 41.1033 119.325 40.5555 119.325 40.0001C119.325 39.4446 119.196 38.8968 118.949 38.4001C118.708 37.9406 118.352 37.5516 117.917 37.2706C117.414 37.0463 116.874 36.9186 116.324 36.8941C115.804 36.9189 115.294 37.0469 114.824 37.2706C114.365 37.5211 114.002 37.9186 113.793 38.4001C113.546 38.8968 113.417 39.4446 113.417 40.0001C113.417 40.5555 113.546 41.1033 113.793 41.6C113.887 41.833 114.027 42.0447 114.204 42.2225C114.381 42.4003 114.592 42.5407 114.824 42.6353C115.269 42.9321 115.79 43.0953 116.324 43.1059C116.887 43.0933 117.437 42.9309 117.917 42.6353ZM113.699 44.3295C112.926 43.9137 112.278 43.2959 111.825 42.5412C111.398 41.7627 111.174 40.8886 111.174 40.0001C111.174 39.1115 111.398 38.2373 111.825 37.4589C112.278 36.7042 112.926 36.0864 113.699 35.6706C114.497 35.2115 115.405 34.9834 116.324 35.0118C117.274 34.9707 118.216 35.1991 119.042 35.6706C119.795 36.1151 120.436 36.7269 120.917 37.4589C121.344 38.2373 121.567 39.1115 121.567 40.0001C121.567 40.8886 121.344 41.7627 120.917 42.5412C120.436 43.2732 119.795 43.8849 119.042 44.3295C118.199 44.7577 117.269 44.9833 116.324 44.9883C115.411 44.9722 114.513 44.7469 113.699 44.3295Z" fill="white"/>
<path d="M125.979 35.2H128.228V43.0117H133.009V44.7999H125.979V35.2Z" fill="white"/>
</g>
<defs>
<clipPath id="clip0_227_510">
<rect width="184" height="48" fill="white"/>
</clipPath>
</defs>
</svg>
