<svg width="24" height="25" viewBox="0 0 24 25" fill="none" xmlns="http://www.w3.org/2000/svg">
<path d="M12.0917 0.500368C9.71482 0.481722 7.38599 1.17238 5.40065 2.48474C3.4153 3.7971 1.86291 5.67203 0.940426 7.87163C0.0179391 10.0712 -0.233076 12.4964 0.219228 14.8395C0.671532 17.1825 1.80676 19.3379 3.48091 21.0321C5.15507 22.7264 7.29269 23.8831 9.62259 24.3556C11.9525 24.8281 14.3697 24.5951 16.5675 23.6861C18.7653 22.7772 20.6447 21.2332 21.9672 19.2501C23.2898 17.267 23.9959 14.9341 23.9959 12.5474C23.996 9.36858 22.7448 6.31852 20.515 4.06195C18.2852 1.80537 15.2575 0.525202 12.0917 0.500368Z" fill="white"/>
<path d="M11.9058 9.50157C11.5287 9.48894 11.1529 9.55261 10.8008 9.68884C10.4488 9.82507 10.1276 10.0311 9.85649 10.2945C9.58536 10.558 9.36979 10.8735 9.22265 11.2224C9.07551 11.5712 8.99979 11.9463 9 12.3251C9.12173 12.9974 9.47457 13.6054 9.99703 14.0432C10.5195 14.481 11.1784 14.7208 11.8589 14.7208C12.5394 14.7208 13.1983 14.481 13.7208 14.0432C14.2432 13.6054 14.5961 12.9974 14.7178 12.3251C14.7178 11.5763 14.4215 10.8581 13.8942 10.3285C13.3668 9.79903 12.6516 9.50157 11.9058 9.50157Z" fill="#2E5FAA"/>
</svg>
