<svg width="40" height="40" viewBox="0 0 40 40" fill="none" xmlns="http://www.w3.org/2000/svg">
<g clip-path="url(#clip0_326_2089)">
<path d="M29.9168 3.18548e-05C27.9361 -0.0155064 25.9954 0.560043 24.3409 1.65368C22.6865 2.74731 21.3928 4.30975 20.6241 6.14275C19.8553 7.97576 19.6461 9.99672 20.0231 11.9493C20.4 13.9018 21.346 15.698 22.7411 17.1098C24.1363 18.5217 25.9176 19.4856 27.8592 19.8794C29.8008 20.2732 31.8151 20.079 33.6466 19.3215C35.4781 18.564 37.0443 17.2774 38.1464 15.6248C39.2485 13.9722 39.8369 12.0281 39.837 10.0392C39.8371 7.3902 38.7944 4.8485 36.9362 2.96802C35.078 1.08754 32.555 0.0207274 29.9168 3.18548e-05Z" fill="#2E5FAA"/>
<path d="M29.9168 7.60782C29.5678 7.54412 29.2092 7.55819 28.8662 7.64899C28.5233 7.73979 28.2044 7.90511 27.9321 8.1333C27.6598 8.36149 27.4407 8.64699 27.2904 8.96955C27.1401 9.29212 27.0622 9.64389 27.0622 10C27.0622 10.3561 27.1401 10.7079 27.2904 11.0305C27.4407 11.353 27.6598 11.6385 27.9321 11.8667C28.2044 12.0949 28.5233 12.2602 28.8662 12.351C29.2092 12.4418 29.5678 12.4559 29.9168 12.3922C30.4747 12.2903 30.9794 11.9951 31.3427 11.5579C31.7061 11.1208 31.9051 10.5694 31.9051 10C31.9051 9.43062 31.7061 8.87927 31.3427 8.44212C30.9794 8.00496 30.4747 7.70968 29.9168 7.60782Z" fill="#5AC1D2"/>
<path d="M9.99798 3.18548e-05C8.01725 -0.0155064 6.07655 0.560043 4.4221 1.65368C2.76764 2.74731 1.47399 4.30975 0.705246 6.14275C-0.063493 7.97576 -0.272667 9.99672 0.104254 11.9493C0.481174 13.9018 1.4272 15.698 2.82233 17.1098C4.21746 18.5217 5.9988 19.4856 7.94038 19.8794C9.88197 20.2732 11.8963 20.079 13.7278 19.3215C15.5593 18.564 17.1255 17.2774 18.2276 15.6248C19.3297 13.9722 19.9181 12.0281 19.9182 10.0392C19.9182 7.3902 18.8756 4.8485 17.0174 2.96802C15.1592 1.08754 12.6361 0.0207274 9.99798 3.18548e-05Z" fill="#5AC1D2"/>
<path d="M9.9983 7.60782C9.64935 7.54412 9.29071 7.55819 8.94776 7.64899C8.60481 7.73979 8.2859 7.90511 8.0136 8.1333C7.74129 8.36149 7.52224 8.64699 7.37192 8.96955C7.2216 9.29212 7.14368 9.64389 7.14368 10C7.14368 10.3561 7.2216 10.7079 7.37192 11.0305C7.52224 11.353 7.74129 11.6385 8.0136 11.8667C8.2859 12.0949 8.60481 12.2602 8.94776 12.351C9.29071 12.4418 9.64935 12.4559 9.9983 12.3922C10.5562 12.2903 11.0609 11.9951 11.4242 11.5579C11.7876 11.1208 11.9866 10.5694 11.9866 10C11.9866 9.43062 11.7876 8.87927 11.4242 8.44212C11.0609 8.00496 10.5562 7.70968 9.9983 7.60782Z" fill="#2E5FAA"/>
<path d="M29.9168 20C27.9361 19.9845 25.9954 20.56 24.3409 21.6537C22.6865 22.7473 21.3928 24.3097 20.6241 26.1428C19.8553 27.9758 19.6461 29.9967 20.0231 31.9493C20.4 33.9018 21.346 35.698 22.7411 37.1098C24.1363 38.5217 25.9176 39.4856 27.8592 39.8794C29.8008 40.2732 31.8151 40.079 33.6466 39.3215C35.4781 38.564 37.0443 37.2774 38.1464 35.6248C39.2485 33.9722 39.8369 32.0281 39.837 30.0392C39.8371 27.3902 38.7944 24.8485 36.9362 22.968C35.078 21.0875 32.555 20.0207 29.9168 20Z" fill="#31AA47"/>
<path d="M29.9168 27.6863C29.6025 27.6758 29.2894 27.7288 28.996 27.8424C28.7026 27.9559 28.435 28.1276 28.2091 28.3471C27.9831 28.5667 27.8035 28.8296 27.6809 29.1203C27.5582 29.411 27.4951 29.7235 27.4953 30.0392C27.5968 30.5995 27.8908 31.1062 28.3262 31.471C28.7616 31.8359 29.3107 32.0357 29.8777 32.0357C30.4448 32.0357 30.9939 31.8359 31.4293 31.471C31.8647 31.1062 32.1587 30.5995 32.2601 30.0392C32.2601 29.4152 32.0133 28.8167 31.5738 28.3755C31.1343 27.9342 30.5383 27.6863 29.9168 27.6863Z" fill="#FED059"/>
<path d="M9.99798 20C8.01725 19.9845 6.07655 20.56 4.4221 21.6537C2.76764 22.7473 1.47399 24.3097 0.705246 26.1428C-0.063493 27.9758 -0.272667 29.9967 0.104254 31.9493C0.481174 33.9018 1.4272 35.698 2.82233 37.1098C4.21746 38.5217 5.9988 39.4856 7.94038 39.8794C9.88197 40.2732 11.8963 40.079 13.7278 39.3215C15.5593 38.564 17.1255 37.2774 18.2276 35.6248C19.3297 33.9722 19.9181 32.0281 19.9182 30.0392C19.9182 27.3902 18.8756 24.8485 17.0174 22.968C15.1592 21.0875 12.6361 20.0207 9.99798 20Z" fill="#FED059"/>
<path d="M9.9983 27.6863C9.68406 27.6758 9.37092 27.7288 9.07753 27.8424C8.78415 27.9559 8.51652 28.1276 8.29058 28.3471C8.06463 28.5667 7.885 28.8296 7.76238 29.1203C7.63976 29.411 7.57666 29.7235 7.57684 30.0392C7.67828 30.5995 7.97232 31.1062 8.4077 31.471C8.84307 31.8359 9.39216 32.0357 9.95925 32.0357C10.5263 32.0357 11.0754 31.8359 11.5108 31.471C11.9462 31.1062 12.2402 30.5995 12.3417 30.0392C12.3417 29.4152 12.0948 28.8167 11.6553 28.3755C11.2158 27.9342 10.6198 27.6863 9.9983 27.6863Z" fill="#31AA47"/>
</g>
<defs>
<clipPath id="clip0_326_2089">
<rect width="40" height="40" fill="white"/>
</clipPath>
</defs>
</svg>
