<svg width="302" height="80" viewBox="0 0 302 80" fill="none" xmlns="http://www.w3.org/2000/svg">
<path d="M59.5331 1.50005C55.6577 1.46975 51.8607 2.59207 48.6238 4.72466C45.3868 6.85724 42.8557 9.904 41.3517 13.4784C39.8476 17.0527 39.4383 20.9936 40.1758 24.8011C40.9132 28.6086 42.7642 32.111 45.4938 34.8642C48.2234 37.6173 51.7086 39.497 55.5074 40.2648C59.3061 41.0326 63.2472 40.654 66.8305 39.1769C70.4139 37.6998 73.4781 35.1909 75.6345 31.9683C77.7908 28.7458 78.942 24.9548 78.9421 21.0765C78.9423 15.9109 76.9023 10.9546 73.2667 7.28762C69.6312 3.62068 64.6947 1.5404 59.5331 1.50005Z" fill="#2E5FAA"/>
<path d="M59.5324 16.3352C58.8496 16.211 58.148 16.2385 57.477 16.4155C56.806 16.5926 56.182 16.915 55.6493 17.3599C55.1165 17.8049 54.6879 18.3616 54.3938 18.9906C54.0997 19.6196 53.9473 20.3056 53.9473 21C53.9473 21.6945 54.0997 22.3804 54.3938 23.0094C54.6879 23.6384 55.1165 24.1951 55.6493 24.64C56.182 25.085 56.806 25.4074 57.477 25.5844C58.148 25.7615 58.8496 25.7889 59.5324 25.6647C60.624 25.4661 61.6113 24.8904 62.3222 24.0379C63.0332 23.1855 63.4226 22.1104 63.4226 21C63.4226 19.8897 63.0332 18.8146 62.3222 17.9621C61.6113 17.1096 60.624 16.5339 59.5324 16.3352Z" fill="#5AC1D2"/>
<path d="M20.5614 1.50005C16.6861 1.46975 12.889 2.59207 9.65207 4.72466C6.41509 6.85724 3.88403 9.904 2.37997 13.4784C0.875919 17.0527 0.466667 20.9936 1.20412 24.8011C1.94157 28.6086 3.7925 32.111 6.52209 34.8642C9.25169 37.6173 12.7369 39.497 16.5357 40.2648C20.3344 41.0326 24.2755 40.654 27.8589 39.1769C31.4422 37.6998 34.5065 35.1909 36.6628 31.9683C38.8191 28.7458 39.9703 24.9548 39.9705 21.0765C39.9706 15.9109 37.9306 10.9546 34.2951 7.28762C30.6595 3.62068 25.723 1.5404 20.5614 1.50005Z" fill="#5AC1D2"/>
<path d="M20.5617 16.3352C19.8789 16.211 19.1773 16.2385 18.5063 16.4155C17.8353 16.5926 17.2113 16.915 16.6786 17.3599C16.1458 17.8049 15.7172 18.3616 15.4231 18.9906C15.129 19.6196 14.9766 20.3056 14.9766 21C14.9766 21.6945 15.129 22.3804 15.4231 23.0094C15.7172 23.6384 16.1458 24.1951 16.6786 24.64C17.2113 25.085 17.8353 25.4074 18.5063 25.5844C19.1773 25.7615 19.8789 25.7889 20.5617 25.6647C21.6533 25.4661 22.6406 24.8904 23.3515 24.0379C24.0625 23.1855 24.4519 22.1104 24.4519 21C24.4519 19.8897 24.0625 18.8146 23.3515 17.9621C22.6406 17.1096 21.6533 16.5339 20.5617 16.3352Z" fill="#2E5FAA"/>
<path d="M59.7147 40.5001C55.8394 40.4698 52.0424 41.5921 48.8054 43.7247C45.5684 45.8573 43.0374 48.904 41.5333 52.4784C40.0292 56.0527 39.62 59.9936 40.3574 63.8011C41.0949 67.6086 42.9458 71.1111 45.6754 73.8642C48.405 76.6173 51.8902 78.497 55.689 79.2648C59.4877 80.0327 63.4288 79.6541 67.0122 78.177C70.5956 76.6999 73.6598 74.1909 75.8161 70.9684C77.9724 67.7458 79.1237 63.9549 79.1238 60.0765C79.1239 54.9109 77.084 49.9546 73.4484 46.2876C69.8128 42.6207 64.8763 40.5404 59.7147 40.5001Z" fill="#31AA47"/>
<path d="M59.7377 55.4886C59.1228 55.466 58.5102 55.5797 57.9361 55.8229C57.3621 56.066 56.8385 56.4338 56.3964 56.9041C55.9544 57.3744 55.6029 57.9377 55.363 58.5605C55.1231 59.1832 54.9997 59.8527 55 60.529C55.1985 61.7291 55.7738 62.8145 56.6256 63.5961C57.4774 64.3777 58.5517 64.8057 59.6612 64.8057C60.7707 64.8057 61.8451 64.3777 62.6969 63.5961C63.5487 62.8145 64.124 61.7291 64.3225 60.529C64.3225 59.1922 63.8394 57.9101 62.9796 56.9648C62.1198 56.0196 60.9536 55.4886 59.7377 55.4886Z" fill="#FED059"/>
<path d="M20.5614 40.5001C16.6861 40.4698 12.889 41.5921 9.65207 43.7247C6.41509 45.8573 3.88403 48.904 2.37997 52.4784C0.875919 56.0527 0.466667 59.9936 1.20412 63.8011C1.94157 67.6086 3.7925 71.1111 6.52209 73.8642C9.25169 76.6173 12.7369 78.497 16.5357 79.2648C20.3344 80.0327 24.2755 79.6541 27.8589 78.177C31.4422 76.6999 34.5065 74.1909 36.6628 70.9684C38.8191 67.7458 39.9703 63.9549 39.9705 60.0765C39.9706 54.9109 37.9306 49.9546 34.2951 46.2876C30.6595 42.6207 25.723 40.5404 20.5614 40.5001Z" fill="#FED059"/>
<path d="M20.5619 55.4886C19.9471 55.466 19.3344 55.5797 18.7604 55.8229C18.1863 56.066 17.6627 56.4338 17.2207 56.9041C16.7786 57.3744 16.4272 57.9377 16.1872 58.5605C15.9473 59.1832 15.8239 59.8527 15.8242 60.529C16.0227 61.7291 16.598 62.8145 17.4498 63.5961C18.3016 64.3777 19.3759 64.8057 20.4855 64.8057C21.595 64.8057 22.6693 64.3777 23.5211 63.5961C24.3729 62.8145 24.9482 61.7291 25.1467 60.529C25.1467 59.1922 24.6636 57.9101 23.8038 56.9648C22.944 56.0196 21.7778 55.4886 20.5619 55.4886Z" fill="#31AA47"/>
<path d="M113.48 33.7706C112.613 34.4645 111.535 34.8421 110.424 34.8412H103.699V26.8883H110.424C110.979 26.8512 111.536 26.927 112.061 27.111C112.587 27.295 113.069 27.5834 113.48 27.9589C113.871 28.3342 114.182 28.7856 114.392 29.2854C114.602 29.7851 114.708 30.3225 114.703 30.8647C114.696 31.957 114.256 33.002 113.48 33.7706ZM103.699 12.9707H109.965L111.646 13.2765L112.869 14.0412C113.209 14.3889 113.47 14.8064 113.633 15.2648C113.899 15.7276 114.006 16.2647 113.939 16.7942C113.961 17.3022 113.877 17.8092 113.693 18.2831C113.509 18.757 113.228 19.1874 112.869 19.5471C112.054 20.2123 111.015 20.5405 109.965 20.4647H103.699V12.9707ZM120.969 26.5824C120.162 25.1329 118.937 23.9604 117.454 23.2177C118.656 22.3223 119.647 21.1737 120.358 19.853C121.016 18.5186 121.381 17.0582 121.427 15.5706C121.44 14.3378 121.171 13.1185 120.641 12.0054C120.111 10.8922 119.335 9.91472 118.371 9.14714C116.253 7.32945 113.516 6.39829 110.73 6.54713H96.2109V41.8765H111.188C114.084 41.9081 116.879 40.8112 118.982 38.8177C120.053 37.9552 120.913 36.8592 121.495 35.6133C122.078 34.3675 122.369 33.0048 122.344 31.6294C122.36 29.8523 121.884 28.1056 120.969 26.5824Z" fill="white"/>
<path d="M136.252 13.5823V22.7588H142.365C143.038 22.7947 143.711 22.691 144.342 22.4541C144.974 22.2172 145.549 21.8524 146.033 21.3823C146.491 20.9872 146.853 20.4923 147.092 19.9357C147.33 19.3791 147.438 18.7753 147.408 18.1705C147.445 17.3128 147.233 16.4628 146.797 15.7235C146.431 15.0339 145.836 14.4932 145.116 14.1941C144.273 13.7405 143.321 13.5287 142.365 13.5823H136.252ZM144.963 36.5235L141.142 29.7941H136.252V41.8764H128.61V6.54703H142.823C144.991 6.51092 147.136 6.98223 149.089 7.92345C150.928 8.93162 152.464 10.4131 153.539 12.2147C154.614 14.0162 155.188 16.0724 155.202 18.1705C155.227 20.349 154.587 22.4832 153.368 24.2882C152.308 26.11 150.705 27.554 148.784 28.4176L156.883 42.4882H154.438C152.488 42.3596 150.601 41.7469 148.946 40.7055C147.292 39.6642 145.923 38.2269 144.963 36.5235Z" fill="white"/>
<path d="M178.432 35.3C180.4 35.2974 182.338 34.8255 184.087 33.9235C185.721 32.999 187.049 31.6169 187.908 29.9471C188.821 28.4766 189.38 26.8138 189.54 25.09C189.701 23.3662 189.459 21.6287 188.833 20.0147C188.207 18.4007 187.215 16.9545 185.934 15.7903C184.654 14.6261 183.12 13.7759 181.455 13.3068C179.79 12.8377 178.038 12.7626 176.339 13.0874C174.64 13.4122 173.039 14.128 171.664 15.1783C170.289 16.2286 169.176 17.5847 168.415 19.1392C167.653 20.6937 167.263 22.4041 167.276 24.1353C167.231 25.6339 167.493 27.1259 168.045 28.5197C168.597 29.9135 169.427 31.1799 170.485 32.2412C171.525 33.2759 172.768 34.0823 174.137 34.609C175.505 35.1356 176.968 35.371 178.432 35.3ZM178.432 42.6412C175.944 42.7177 173.466 42.2821 171.153 41.3613C168.84 40.4405 166.74 39.0542 164.984 37.2882C163.184 35.6137 161.763 33.5742 160.814 31.306C159.865 29.0378 159.411 26.5932 159.482 24.1353C159.43 21.68 159.893 19.2412 160.841 16.9758C161.789 14.7105 163.2 12.6688 164.984 10.9823C166.747 9.23646 168.852 7.87356 171.166 6.97882C173.48 6.08408 175.954 5.6768 178.432 5.78238C181.735 5.7211 184.998 6.51112 187.908 8.0765C190.762 9.66134 193.137 11.9857 194.785 14.8059C196.33 17.6697 197.119 20.8809 197.077 24.1353C197.177 26.583 196.752 29.0236 195.829 31.2926C194.906 33.5616 193.508 35.6061 191.728 37.2882C189.995 39.0425 187.921 40.4226 185.635 41.3433C183.348 42.264 180.896 42.7057 178.432 42.6412Z" fill="white"/>
<path d="M214.806 42.4883C211.217 42.6446 207.691 41.5047 204.872 39.2765C203.648 38.1573 202.686 36.7826 202.052 35.2497C201.418 33.7168 201.129 32.0631 201.204 30.4059H208.846C208.835 31.1451 208.992 31.8772 209.304 32.5471C209.635 33.2012 210.104 33.7753 210.679 34.2294C211.224 34.6542 211.847 34.9662 212.513 35.1471L214.806 35.4529C216.2 35.4443 217.569 35.0757 218.779 34.3824C219.312 34.0752 219.751 33.6276 220.047 33.0883C220.344 32.5489 220.487 31.9386 220.46 31.3236C220.446 30.8001 220.343 30.2828 220.155 29.7942C219.849 29.4883 219.543 29.0294 219.085 28.8765C218.664 28.474 218.131 28.2075 217.557 28.1118L215.723 27.5001L213.43 26.8883L211.596 26.4295L209.763 25.9707L208.081 25.3589L206.4 24.4413C205.834 24.2421 205.314 23.9298 204.872 23.5236L203.497 22.3C203.076 21.8101 202.764 21.2369 202.58 20.6177C202.284 20.0404 202.078 19.4216 201.968 18.7824C201.791 18.0296 201.689 17.2612 201.663 16.4883C201.608 14.9828 201.896 13.4845 202.505 12.1067C203.114 10.729 204.028 9.50779 205.178 8.53534C207.859 6.53778 211.164 5.56179 214.5 5.78242C217.882 5.5909 221.211 6.68326 223.823 8.84124C224.972 9.90555 225.87 11.2127 226.452 12.6677C227.033 14.1227 227.284 15.689 227.185 17.253H219.696C219.72 16.6119 219.595 15.974 219.329 15.39C219.064 14.8059 218.666 14.2918 218.168 13.8883C217.064 13.2382 215.818 12.8702 214.538 12.8168C213.259 12.7635 211.986 13.0264 210.832 13.5824C210.365 13.7936 209.97 14.1388 209.698 14.5743C209.426 15.0098 209.289 15.5162 209.304 16.0295C209.297 16.5059 209.402 16.9772 209.61 17.4059C209.833 17.7844 210.148 18.1002 210.527 18.3236C210.965 18.7004 211.49 18.9631 212.055 19.0883L213.889 19.7L216.181 20.1588L218.474 20.9235L220.919 21.6882L223.211 22.6059L225.198 23.9824L226.879 25.8177L227.796 28.1118C228.11 29.1006 228.265 30.1331 228.255 31.1706C228.322 33.4023 227.679 35.5978 226.421 37.4413C225.233 39.1984 223.521 40.5363 221.53 41.2648C219.407 42.1654 217.11 42.5833 214.806 42.4883Z" fill="white"/>
<path d="M264.321 42.4881H260.348C258.568 42.3565 256.838 41.8364 255.281 40.9645C253.723 40.0926 252.375 38.89 251.331 37.4411L242.009 24.594V41.8763H234.367V6.54694H242.009V22.7587L253.623 6.54694H262.487L250.414 23.3705L264.321 42.4881Z" fill="white"/>
<path d="M282.202 35.3C284.174 35.3356 286.121 34.8615 287.856 33.9235C289.536 33.0083 290.915 31.6276 291.83 29.947C292.743 28.4766 293.302 26.8138 293.463 25.09C293.623 23.3662 293.381 21.6286 292.755 20.0146C292.129 18.4006 291.137 16.9544 289.856 15.7903C288.576 14.6261 287.042 13.7758 285.377 13.3067C283.712 12.8377 281.96 12.7626 280.261 13.0874C278.562 13.4122 276.961 14.128 275.586 15.1783C274.211 16.2286 273.099 17.5846 272.337 19.1391C271.575 20.6936 271.186 22.4041 271.198 24.1353C271.154 25.6339 271.415 27.1258 271.967 28.5196C272.519 29.9135 273.349 31.1798 274.408 32.2411C275.429 33.2565 276.648 34.0518 277.988 34.5778C279.329 35.1039 280.763 35.3496 282.202 35.3ZM282.202 42.6411C279.717 42.691 277.247 42.2432 274.937 41.3239C272.628 40.4046 270.525 39.0325 268.753 37.2882C267.004 35.5827 265.627 33.534 264.706 31.2707C263.786 29.0074 263.342 26.5781 263.404 24.1353C263.361 21.6949 263.812 19.2709 264.731 17.0101C265.651 14.7494 267.019 12.6987 268.753 10.9823C270.533 9.25842 272.64 7.90984 274.95 7.01659C277.26 6.12333 279.726 5.70365 282.202 5.78234C285.551 5.74148 288.858 6.52955 291.83 8.07646C294.672 9.62517 297.007 11.9618 298.554 14.8058C300.215 17.63 301.061 20.8592 301 24.1353C301.1 26.5829 300.674 29.0236 299.751 31.2925C298.828 33.5615 297.43 35.6061 295.651 37.2882C293.894 39.0541 291.795 40.4405 289.481 41.3612C287.168 42.282 284.69 42.7176 282.202 42.6411Z" fill="white"/>
<path d="M99.5732 73.9941C98.5855 73.769 97.6511 73.3534 96.8223 72.7706L98.0449 70.0177C98.7383 70.5463 99.5124 70.9594 100.337 71.2412C101.224 71.541 102.153 71.6959 103.088 71.7C103.88 71.7629 104.674 71.6041 105.381 71.2412C105.599 71.1159 105.783 70.9387 105.916 70.7252C106.049 70.5118 106.128 70.2688 106.145 70.0177C106.168 69.8364 106.137 69.6522 106.056 69.4887C105.974 69.3253 105.845 69.1898 105.686 69.1L104.616 68.4882L102.783 68.0294L99.8788 67.1117C99.1274 66.7974 98.4505 66.3285 97.8921 65.7353C97.3635 65.0319 97.0936 64.1676 97.1279 63.2882C97.0804 62.4071 97.3517 61.5384 97.8921 60.8412C98.4165 60.0384 99.1587 59.4018 100.032 59.0059C101.216 58.616 102.453 58.4097 103.699 58.3941L106.603 58.7C107.467 58.9335 108.291 59.2943 109.048 59.7706L107.979 62.5235C106.667 61.7868 105.202 61.3678 103.699 61.3C102.908 61.237 102.114 61.3959 101.407 61.7588C101.177 61.9084 100.987 62.1121 100.854 62.352C100.721 62.5919 100.648 62.8609 100.643 63.1353C100.658 63.4071 100.753 63.6684 100.916 63.8862C101.079 64.104 101.303 64.2685 101.56 64.3588L104.005 65.1235C105.007 65.2273 105.986 65.4853 106.909 65.8882C107.682 66.161 108.368 66.6364 108.896 67.2647C109.211 67.5855 109.456 67.9691 109.614 68.3907C109.772 68.8123 109.84 69.2623 109.813 69.7118C109.795 70.5835 109.53 71.4323 109.048 72.1588C108.498 72.9646 107.689 73.5582 106.756 73.8412C105.608 74.3741 104.353 74.6358 103.088 74.6059C101.887 74.6383 100.692 74.4303 99.5732 73.9941Z" fill="white"/>
<path d="M119.899 73.5353C118.638 72.8598 117.582 71.8558 116.843 70.6294C116.053 69.3972 115.633 67.9641 115.633 66.5001C115.633 65.0361 116.053 63.6028 116.843 62.3706C117.54 61.1119 118.607 60.0976 119.899 59.4647C121.193 58.703 122.679 58.3312 124.178 58.3941C125.441 58.3937 126.689 58.654 127.846 59.1588C128.912 59.5868 129.856 60.2695 130.597 61.1471L128.305 63.2883C127.816 62.7115 127.207 62.2485 126.52 61.9315C125.834 61.6146 125.087 61.4512 124.331 61.4529C123.435 61.4926 122.553 61.7002 121.733 62.0647C120.984 62.4717 120.392 63.1177 120.052 63.9001C119.546 64.6726 119.276 65.5763 119.276 66.5001C119.276 67.4239 119.546 68.3275 120.052 69.1C120.206 69.4786 120.434 69.8226 120.722 70.1115C121.011 70.4005 121.355 70.6286 121.733 70.7824C122.516 71.2626 123.413 71.5265 124.331 71.5471C125.103 71.5532 125.866 71.3761 126.557 71.0305C127.247 70.6849 127.846 70.1807 128.305 69.5589L130.597 71.7C129.861 72.6203 128.919 73.3539 127.846 73.8412C126.584 74.3906 125.214 74.6482 123.838 74.5953C122.462 74.5423 121.116 74.1801 119.899 73.5353Z" fill="white"/>
<path d="M151.84 58.7V74.3H148.173V67.8765H141.142V74.3H137.475V58.7H141.142V64.8177H148.173V58.7H151.84Z" fill="white"/>
<path d="M170.026 70.7824C170.73 70.3853 171.311 69.8035 171.708 69.1C172.111 68.2928 172.321 67.4026 172.321 66.5001C172.321 65.5975 172.111 64.7073 171.708 63.9C171.269 63.1867 170.699 62.5638 170.026 62.0647C169.206 61.7002 168.325 61.4926 167.428 61.4529C166.581 61.4931 165.75 61.7011 164.983 62.0647C164.227 62.5115 163.596 63.143 163.149 63.9C162.746 64.7073 162.536 65.5975 162.536 66.5001C162.536 67.4026 162.746 68.2928 163.149 69.1C163.556 69.8498 164.201 70.4421 164.983 70.7824C165.709 71.2646 166.557 71.5299 167.428 71.5471C168.347 71.5265 169.243 71.2626 170.026 70.7824ZM163.149 73.5353C161.857 72.9024 160.791 71.8881 160.093 70.6294C159.303 69.3972 158.883 67.964 158.883 66.5001C158.883 65.0361 159.303 63.6028 160.093 62.3706C160.791 61.1119 161.857 60.0976 163.149 59.4647C164.449 58.7186 165.931 58.3479 167.428 58.3941C168.975 58.3509 170.504 58.7204 171.86 59.4647C173.088 60.1871 174.133 61.1811 174.917 62.3706C175.613 63.6356 175.977 65.0561 175.977 66.5001C175.977 67.944 175.613 69.3644 174.917 70.6294C174.133 71.8189 173.088 72.813 171.86 73.5353C170.479 74.2113 168.966 74.5768 167.428 74.6059C165.939 74.5798 164.476 74.2136 163.149 73.5353Z" fill="white"/>
<path d="M193.257 70.7823C193.996 70.434 194.59 69.8391 194.938 69.0999C195.341 68.2927 195.552 67.4026 195.552 66.5C195.552 65.5974 195.341 64.7072 194.938 63.9C194.545 63.1534 193.966 62.5212 193.257 62.0647C192.437 61.7001 191.555 61.4926 190.659 61.4529C189.811 61.4931 188.98 61.701 188.214 62.0647C187.464 62.4716 186.873 63.1177 186.532 63.9C186.129 64.7072 185.919 65.5974 185.919 66.5C185.919 67.4026 186.129 68.2927 186.532 69.0999C186.686 69.4785 186.914 69.8225 187.203 70.1115C187.492 70.4004 187.835 70.6285 188.214 70.7823C188.94 71.2646 189.788 71.5299 190.659 71.5471C191.577 71.5264 192.474 71.2626 193.257 70.7823ZM186.38 73.5353C185.118 72.8597 184.062 71.8557 183.323 70.6294C182.627 69.3643 182.263 67.9439 182.263 66.5C182.263 65.0561 182.627 63.6356 183.323 62.3706C184.062 61.1442 185.118 60.1402 186.38 59.4647C187.68 58.7185 189.161 58.3479 190.659 58.3941C192.207 58.3273 193.743 58.6984 195.091 59.4647C196.318 60.187 197.364 61.1811 198.147 62.3706C198.843 63.6356 199.208 65.0561 199.208 66.5C199.208 67.9439 198.843 69.3643 198.147 70.6294C197.364 71.8188 196.318 72.8129 195.091 73.5353C193.716 74.2312 192.199 74.5977 190.659 74.6059C189.17 74.5797 187.706 74.2135 186.38 73.5353Z" fill="white"/>
<path d="M206.399 58.7H210.067V71.3942H217.861V74.3H206.399V58.7Z" fill="white"/>
</svg>
