<svg width="24" height="24" viewBox="0 0 24 24" fill="none" xmlns="http://www.w3.org/2000/svg">
<path d="M20.7155 0.0644997C20.1391 -0.0403035 19.5467 -0.0171528 18.9801 0.132229C18.4136 0.281611 17.8868 0.553585 17.437 0.928992C16.9872 1.3044 16.6253 1.7741 16.377 2.30476C16.1287 2.83543 16 3.41415 16 4.00004C16 4.58593 16.1287 5.16465 16.377 5.69532C16.6253 6.22598 16.9872 6.6956 17.437 7.07101C17.8868 7.44641 18.4136 7.71839 18.9801 7.86777C19.5467 8.01715 20.1391 8.0403 20.7155 7.9355C21.6372 7.76793 22.4708 7.28223 23.071 6.56304C23.6712 5.84384 24 4.9368 24 4.00004C24 3.06328 23.6712 2.15623 23.071 1.43704C22.4708 0.717846 21.6372 0.232066 20.7155 0.0644997Z" fill="#5AC1D2"/>
<path d="M4.71552 0.0644997C4.13909 -0.0403035 3.54666 -0.0171528 2.98014 0.132229C2.41361 0.281611 1.88682 0.553585 1.437 0.928992C0.987188 1.3044 0.625332 1.7741 0.37702 2.30476C0.128708 2.83543 0 3.41415 0 4.00004C0 4.58593 0.128708 5.16465 0.37702 5.69532C0.625332 6.22598 0.987188 6.6956 1.437 7.07101C1.88682 7.44641 2.41361 7.71839 2.98014 7.86777C3.54666 8.01715 4.13909 8.0403 4.71552 7.9355C5.63717 7.76793 6.47077 7.28223 7.071 6.56304C7.67122 5.84384 8 4.9368 8 4.00004C8 3.06328 7.67122 2.15623 7.071 1.43704C6.47077 0.717846 5.63717 0.232066 4.71552 0.0644997Z" fill="#2E5FAA"/>
<path d="M20.0656 16.0024C19.538 15.9831 19.0122 16.0806 18.5196 16.2894C18.027 16.4981 17.5777 16.8138 17.1983 17.2175C16.819 17.6212 16.5174 18.1047 16.3115 18.6393C16.1056 19.1738 15.9997 19.7484 16 20.329C16.1703 21.3591 16.664 22.2908 17.395 22.9617C18.126 23.6325 19.0479 24 20 24C20.9521 24 21.874 23.6325 22.605 22.9617C23.336 22.2908 23.8297 21.3591 24 20.329C24 19.1815 23.5855 18.081 22.8476 17.2696C22.1098 16.4582 21.1091 16.0024 20.0656 16.0024Z" fill="#FED059"/>
<path d="M4.06558 16.0024C3.53797 15.9831 3.01222 16.0806 2.51963 16.2894C2.02704 16.4981 1.5777 16.8138 1.19835 17.2175C0.819 17.6212 0.517403 18.1047 0.31153 18.6393C0.105656 19.1738 -0.000292754 19.7484 6.0755e-07 20.329C0.170314 21.3591 0.664008 22.2908 1.39499 22.9617C2.12598 23.6325 3.04789 24 4 24C4.95211 24 5.87402 23.6325 6.60501 22.9617C7.33599 22.2908 7.82969 21.3591 8 20.329C8 19.1815 7.58547 18.081 6.84763 17.2696C6.10978 16.4582 5.10905 16.0024 4.06558 16.0024Z" fill="#31AA47"/>
</svg>
