<svg width="25" height="24" viewBox="0 0 25 24" fill="none" xmlns="http://www.w3.org/2000/svg">
<path d="M22.1405 11.3672H24.6668C24.6668 4.88716 19.7746 0 13.2857 0V2.52632C18.4167 2.52632 22.1405 6.24379 22.1405 11.3672Z" fill="#2E5FAA"/>
<path d="M13.2984 7.57894C15.9548 7.57894 17.0879 8.71199 17.0879 11.3684H19.6142C19.6142 7.29473 17.3721 5.05262 13.2984 5.05262V7.57894ZM17.6209 14.4543C17.3782 14.2337 17.0592 14.116 16.7314 14.1262C16.4036 14.1363 16.0925 14.2734 15.8639 14.5086L12.8411 17.6173C12.1135 17.4783 10.6508 17.0223 9.14512 15.5204C7.63943 14.0135 7.18343 12.5469 7.04827 11.8244L10.1544 8.80042C10.3898 8.57195 10.5272 8.26082 10.5373 7.93289C10.5475 7.60495 10.4296 7.28594 10.2087 7.04336L5.54133 1.91115C5.32033 1.66781 5.01317 1.52021 4.6851 1.49969C4.35702 1.47917 4.03387 1.58735 3.78427 1.80126L1.04322 4.15199C0.824834 4.37117 0.694487 4.66288 0.676904 4.97178C0.657957 5.28757 0.296694 12.768 6.09712 18.5709C11.1573 23.6299 17.4959 24 19.2415 24C19.4967 24 19.6533 23.9924 19.695 23.9899C20.0039 23.9726 20.2954 23.8417 20.5135 23.6223L22.863 20.88C23.0771 20.6306 23.1855 20.3075 23.1652 19.9794C23.1449 19.6514 22.9975 19.3441 22.7544 19.1229L17.6209 14.4543Z" fill="#2E5FAA"/>
</svg>
