<svg width="72" height="72" viewBox="0 0 72 72" fill="none" xmlns="http://www.w3.org/2000/svg">
<g clip-path="url(#clip0_292_3181)">
<path d="M34.5939 0H37.445C38.0913 0.112705 38.7375 0.206627 39.3838 0.375685L56.1483 4.69606L67.8948 7.73911C68.7692 7.96452 69.5295 8.3402 69.9286 9.22306C70.5939 10.707 69.8716 12.36 68.256 12.7921C64.8537 13.7125 61.4513 14.5766 58.03 15.4782L53.6963 16.6053C54.6847 19.9113 55.6541 23.1422 56.6425 26.3543C56.6995 26.5233 57.0986 26.6924 57.3457 26.7112H64.5305C65.9751 26.73 67.0395 27.4813 67.4387 28.7399C68.0659 30.7686 66.8304 33.0039 64.6826 33.0791C64.572 33.1036 64.4699 33.1564 64.3865 33.2322C64.3031 33.3081 64.2413 33.4042 64.2074 33.5111C64.1504 34.3939 64.1694 35.2768 64.1504 36.1597C64.1504 36.6293 64.3405 36.8171 64.8537 36.8735C66.3362 37.0613 67.4577 38.0944 67.6287 39.5784C67.7048 40.311 67.4767 41.0999 67.3817 41.9076C72.2285 44.3308 73.9012 50.9992 69.2634 55.4699L69.9286 55.6953C70.5237 55.9145 71.038 56.3061 71.4043 56.8189C71.7706 57.3316 71.9717 57.9417 71.9814 58.5693C72.0385 59.8466 71.3162 61.1803 70.0997 61.4996C68.8832 61.8189 68.9212 62.4764 68.9022 63.3029C68.8832 63.8101 68.9593 64.336 68.9783 64.8432C68.9973 65.3504 69.2064 65.6321 69.7766 65.8012C71.3542 66.252 72.2285 67.7736 71.9054 69.3702C71.5823 70.9669 70.3658 71.9624 68.389 71.9624H10.4925C9.73222 71.9624 8.97193 72 8.21163 71.9624C4.65725 71.7746 2.07224 70.1028 0.703712 66.8719C-0.66482 63.641 -0.0185621 60.6731 2.33835 58.0621L2.75652 57.5925C0.912802 56.9538 0.0574604 55.9583 0.038453 54.4367C0.0194457 52.9152 0.85578 51.9196 2.56645 51.281C2.67529 51.2351 2.77067 51.1629 2.84376 51.071C2.91685 50.9791 2.96529 50.8704 2.9846 50.755C3.02261 49.8158 3.00361 48.8954 3.00361 47.9562C3.00361 47.5805 2.79452 47.4114 2.41438 47.3175C1.93382 47.2136 1.48725 46.9924 1.1154 46.6741C0.743551 46.3559 0.458263 45.9506 0.285558 45.4954C-0.588782 43.3353 0.874788 41.1938 3.32674 41.0999C4.33413 41.0436 5.36053 41.0811 6.38693 41.0811C6.57859 41.0698 6.76917 41.0447 6.95715 41.006L6.53898 40.5552C2.35736 36.0282 4.31512 28.8338 10.2834 27.1057C11.5189 26.7488 12.8494 26.7863 14.1419 26.7112C15.4344 26.6361 15.1874 26.9554 15.6435 25.5841C15.8906 24.8328 16.0997 24.0626 16.3278 23.2925L18.3426 16.5865L15.6245 15.8727L4.08704 12.886C3.19369 12.6606 2.45239 12.2473 2.07225 11.3645C1.91577 11.0273 1.83606 10.6603 1.83873 10.2893C1.84139 9.91838 1.92638 9.55252 2.08769 9.21757C2.249 8.88262 2.48271 8.58671 2.77233 8.35073C3.06195 8.11476 3.40044 7.94444 3.76391 7.85181C5.07542 7.45734 6.40593 7.13801 7.73645 6.7999L15.9096 4.67728C16.803 4.45187 17.3922 4.82755 17.4112 5.63527C17.4302 6.443 17.0121 6.57448 16.4228 6.72476L7.22326 9.11036C6.32991 9.33577 5.43655 9.56118 4.54321 9.82416C4.33413 9.89929 4.16306 10.1435 3.97299 10.3313L4.58122 10.8197C4.66544 10.8583 4.75522 10.8836 4.84733 10.8949C14.0279 13.2805 23.2275 15.6097 32.389 18.0704C36.2095 19.0848 39.7639 18.108 43.4513 17.0185L38.3383 12.4164C38.0342 12.1534 37.8061 12.0783 37.407 12.2285C36.7548 12.4578 36.0586 12.5381 35.3705 12.4632C34.6825 12.3884 34.0205 12.1605 33.4344 11.7965C33.2589 11.6731 33.1098 11.5167 32.9956 11.3362C32.8814 11.1556 32.8045 10.9546 32.7692 10.7446C32.6963 9.71917 32.6899 8.69019 32.7502 7.66397C32.765 6.87992 33.0894 6.13265 33.654 5.58167C34.2187 5.03068 34.9789 4.71961 35.7724 4.71484C37.483 4.63971 38.8135 5.71041 39.0226 7.40099C39.1177 8.15236 39.0416 8.90373 39.1177 9.6551C39.1501 10.0307 39.3033 10.3861 39.5548 10.6694C41.5126 12.454 43.4894 14.1821 45.4471 15.9666C45.8273 16.3235 46.1504 16.3611 46.6446 16.2484C51.7196 14.8959 56.7945 13.581 61.8885 12.2661C63.7132 11.7965 65.5569 11.3269 67.3817 10.8197C67.6287 10.7446 67.8188 10.5004 68.0469 10.3313L67.3626 9.76781C67.2965 9.73785 67.2259 9.71882 67.1536 9.71145C58.3341 7.41978 49.5147 5.14688 40.7143 2.83642C37.9582 2.10383 35.2401 1.80329 32.4461 2.55466C29.1958 3.41873 25.9455 4.24524 22.6953 5.09053C21.5358 5.39108 21.0226 5.2408 20.8135 4.50822C20.6045 3.77563 21.0036 3.3436 22.1441 3.06183L34.5939 0ZM18.9888 55.5074H52.3468C53.0121 55.5638 53.3732 55.9207 53.3732 56.5218C53.3809 56.6581 53.3607 56.7945 53.3137 56.9229C53.2668 57.0513 53.1941 57.169 53.1001 57.269C53.006 57.369 52.8925 57.4492 52.7663 57.5047C52.6402 57.5603 52.5039 57.5902 52.3658 57.5925C52.1323 57.6177 51.8971 57.624 51.6625 57.6113H18.9888V59.7527H68.8832C69.1589 59.7287 69.4143 59.5996 69.5952 59.3927C69.7762 59.1858 69.8685 58.9174 69.8526 58.6444C69.8477 58.3819 69.74 58.1314 69.5522 57.9458C69.3643 57.7601 69.1109 57.6537 68.8452 57.6488H68.1419C64.8917 57.6488 61.6414 57.6676 58.3911 57.6301C58.011 57.6301 57.5168 57.5737 57.2887 57.3295C57.1675 57.1707 57.0854 56.9861 57.0491 56.7905C57.0128 56.5948 57.0233 56.3934 57.0796 56.2025C57.1761 56.0314 57.3129 55.8857 57.4783 55.7779C57.6437 55.67 57.8329 55.603 58.03 55.5826C59.8547 55.5074 61.6794 55.5638 63.5041 55.5262C67.5527 55.4699 70.4418 52.1075 69.7386 48.2755C69.2064 45.3076 66.5833 43.2601 63.276 43.2601H3.32674C2.62347 43.3165 2.14828 43.7673 2.16728 44.3496C2.18629 44.9319 2.62347 45.3452 3.28872 45.4015C3.55483 45.4203 3.82093 45.4015 4.06802 45.4015H63.9033C64.7596 45.449 65.5779 45.7665 66.2381 46.3075C66.8984 46.8484 67.3658 47.5842 67.5717 48.407C67.7753 49.2335 67.7083 50.1025 67.3804 50.8889C67.0525 51.6754 66.4806 52.3388 65.747 52.7837C64.9297 53.2909 64.0173 53.366 63.086 53.366H18.9888V55.5074ZM11.747 61.8565H8.8959C8.63602 61.8442 8.37556 61.8505 8.11659 61.8753C7.84118 61.9164 7.57813 62.0162 7.34567 62.1679C7.11322 62.3195 6.91693 62.5194 6.77045 62.7535C6.62397 62.9876 6.53079 63.2504 6.49738 63.5237C6.46398 63.797 6.49114 64.0742 6.577 64.336C6.86211 65.2189 7.6034 65.6509 8.91491 65.6509H66.8114V61.8565H18.7988C18.3749 61.8602 17.958 61.9632 17.5823 62.1571C16.2518 62.8145 14.9403 63.5095 13.6097 64.1858C12.2792 64.862 11.785 64.336 11.766 63.0775C11.747 62.7206 11.747 62.3449 11.747 61.8565ZM41.9688 28.8338H12.3933C8.30667 29.0404 5.51258 32.9663 6.72906 36.7983C7.37531 38.8834 9.48513 41.1187 13.0965 41.0999C30.0511 41.0624 47.0057 41.0561 63.9603 41.0811H64.5876C65.1958 41.0436 65.4999 40.6867 65.5379 40.1231C65.5759 39.5596 65.3098 39.1276 64.7016 38.9961C64.4185 38.9554 64.1319 38.9429 63.8463 38.9585H12.4883C10.7586 38.8458 9.52315 38.0005 8.8959 36.4226C8.26866 34.8448 8.61079 33.3796 9.80826 32.1398C10.6826 31.257 11.804 30.9564 13.0395 30.9564H41.6646C41.7787 30.2238 41.8737 29.5664 41.9688 28.8338ZM42.3869 26.6924C42.8621 25.941 43.1472 25.0582 43.7555 24.6074C44.3637 24.1565 44.6298 23.2173 44.5918 22.3532C44.5728 21.94 44.5918 21.508 44.5918 21.0947V18.9533C43.2993 19.2914 42.1398 19.5732 40.9804 19.9113C38.0532 20.7378 35.1261 20.9444 32.1419 20.1743L24.672 18.2395L20.4144 17.1312C19.445 20.3621 18.4946 23.4991 17.5443 26.6924H42.3869ZM41.5316 33.1166L40.9234 33.0791H12.9635C12.7017 33.0761 12.4404 33.1013 12.1842 33.1542C11.7525 33.2589 11.3715 33.5097 11.1076 33.8632C10.8437 34.2167 10.7135 34.6504 10.7396 35.089C10.7704 35.5235 10.9516 35.9343 11.2527 36.2525C11.5539 36.5706 11.9566 36.7766 12.3933 36.8359H61.9835V33.1166H49.8568C49.8378 33.2669 49.8188 33.3796 49.7998 33.4923C49.7238 34.6757 49.4577 34.9199 48.2982 34.9387H42.8811C41.9117 34.9387 41.6266 34.6569 41.5696 33.6989C41.5506 33.5111 41.5506 33.3608 41.5316 33.1166ZM11.728 57.6301C10.4545 57.6301 9.27605 57.5925 8.09759 57.6488C4.79031 57.7615 2.12927 60.5604 2.16728 63.8289C2.2053 67.0973 4.99938 69.8774 8.59178 69.8774H68.351C68.5156 69.8868 68.6806 69.8868 68.8452 69.8774C69.1225 69.8582 69.3817 69.7344 69.5692 69.5316C69.7567 69.3288 69.8582 69.0625 69.8526 68.7879C69.8336 68.2244 69.4344 67.8111 68.8072 67.7548C68.5411 67.736 68.294 67.7548 68.0279 67.7548H8.34469C5.43655 67.5669 3.68788 65.0686 4.58122 62.4388C5.11343 60.8234 6.55799 59.809 8.3827 59.7715C9.48513 59.7527 10.5876 59.7715 11.728 59.7715V57.6301ZM18.9888 51.2434H62.9719C63.3024 51.2527 63.6331 51.2338 63.9603 51.1871C64.3654 51.1446 64.7428 50.9638 65.0274 50.6757C65.3119 50.3876 65.4858 50.0104 65.5189 49.6092C65.69 48.2943 64.8157 47.4866 63.2 47.4866H19.7491L18.9888 47.5241V51.2434ZM51.6245 17.15C50.0849 17.5445 48.6214 17.9014 47.1578 18.3146C46.9867 18.3522 46.7586 18.6903 46.7586 18.8782C46.7206 20.3997 46.7206 21.9212 46.7396 23.4427C46.736 23.5427 46.7527 23.6424 46.7886 23.7359C46.8245 23.8295 46.8789 23.915 46.9487 23.9875C47.8421 24.5698 48.3172 25.4339 48.7164 26.3919C48.7633 26.4718 48.8263 26.5413 48.9015 26.5963C48.9767 26.6512 49.0625 26.6903 49.1536 26.7112H54.4946L51.6245 17.15ZM13.9519 47.5053V61.6499C14.7882 61.2178 15.5105 60.8046 16.2898 60.4665C16.7269 60.2598 16.841 59.9969 16.841 59.5273C16.8156 55.7328 16.8093 51.9384 16.822 48.144C16.822 47.9374 16.803 47.7308 16.784 47.5053H13.9519ZM49.6668 30.9377H50.218C54.8811 30.9627 59.5506 30.9627 64.2264 30.9377H64.6446C64.8967 30.9233 65.1337 30.814 65.3069 30.6324C65.4801 30.4507 65.5764 30.2105 65.576 29.9609C65.6014 29.7218 65.5384 29.4816 65.3987 29.2848C65.2589 29.088 65.0518 28.9478 64.8157 28.8902C64.5652 28.8426 64.3101 28.8237 64.0554 28.8338H49.3626C49.4767 29.5852 49.5717 30.2426 49.6668 30.9377ZM5.20847 51.1683H11.709V47.5241H5.20847V51.1683ZM11.709 53.3472H3.72589C3.4788 53.3472 3.13666 53.3097 2.9656 53.4412C2.79453 53.5727 2.24331 54.0611 2.2243 54.3992C2.2053 54.7373 2.60446 55.1318 2.90858 55.3947C3.21269 55.6577 3.44078 55.5074 3.72589 55.5074H11.709V53.3472ZM47.652 32.7785C47.614 32.1962 47.633 31.6702 47.5189 31.1818C47.1958 29.6228 46.8537 28.0824 46.4355 26.5609C46.3595 26.2604 45.9603 25.8659 45.6942 25.8659C45.4281 25.8659 45.048 26.2416 44.9149 26.5421C44.0026 28.4957 43.8315 30.6183 43.6794 32.7785H47.652ZM36.9698 8.84738H36.9508C36.9636 8.49666 36.9573 8.14551 36.9318 7.79546C36.8748 7.1568 36.4376 6.78111 35.8484 6.83746C35.2592 6.89382 34.898 7.23193 34.879 7.83303C34.86 8.43412 34.86 9.14793 34.879 9.80537C34.879 9.95565 35.0121 10.2374 35.0881 10.2374C35.6448 10.3004 36.2075 10.2877 36.7607 10.1998C36.8938 10.1623 36.8938 9.5424 36.9508 9.1855C36.9666 9.0735 36.9729 8.96041 36.9698 8.84738Z" fill="#E7EEF8"/>
</g>
<defs>
<clipPath id="clip0_292_3181">
<rect width="72" height="72" fill="white"/>
</clipPath>
</defs>
</svg>
