<svg width="88" height="72" viewBox="0 0 88 72" fill="none" xmlns="http://www.w3.org/2000/svg">
<g clip-path="url(#clip0_292_3154)">
<path d="M7.13777 39.6381V36.9274C7.13777 33.9789 7.13777 31.0542 7.16148 28.1057C7.16148 27.6539 7.09034 27.3923 6.54494 27.2259C2.53739 26.0846 0.0474999 22.8507 0.0237866 18.642C-0.02364 13.9102 6.4604e-05 9.15457 6.4604e-05 4.42273C6.4604e-05 3.32894 0.474327 2.8296 1.37543 2.8296C2.27654 2.8296 2.72709 3.32894 2.72709 4.42273V17.0964H4.95615V4.39895C4.97986 3.40027 5.35927 2.92471 6.14181 2.8296C6.92435 2.73448 7.68317 3.28138 7.68317 4.32762C7.70689 7.18099 7.68317 10.0344 7.68317 12.8639V17.0964H9.36681V16.0264C9.36681 12.2457 9.3431 8.44122 9.36681 4.63673C9.39052 4.13739 9.5091 3.49538 9.81737 3.21005C10.1256 2.92471 10.8133 2.85337 11.2876 2.94849C11.7619 3.0436 12.1176 3.70938 12.1176 4.35139C12.0938 8.08455 12.1176 11.8415 12.1176 15.5746V17.1202H14.2992V4.54162C14.3229 3.3765 14.726 2.85337 15.6508 2.8296C16.5756 2.80582 17.0499 3.30516 17.0736 4.28006C17.0973 5.73052 17.0736 7.18098 17.0736 8.63144C17.0736 11.8415 17.0499 15.0515 17.0736 18.2378C17.1211 23.1361 13.7538 26.5363 10.4576 27.2735C10.2442 27.321 9.93594 27.6301 9.93594 27.8204C9.91222 31.7437 9.91221 35.6433 9.91221 39.5905C10.0661 39.6405 10.2252 39.6724 10.3865 39.6856C12.2124 39.7332 12.4495 39.971 12.6155 41.7781C13.2558 49.3633 13.8961 56.9723 14.56 64.5575C14.8446 67.9577 13.2084 70.7873 10.3628 71.7147C6.73464 72.9036 2.67967 70.1691 2.53739 66.2457C2.46625 64.0106 2.75081 61.7517 2.94052 59.4928C3.4385 53.6196 3.96018 47.7464 4.45816 41.8732C4.62415 39.971 4.81387 39.7332 6.66351 39.6856L7.13777 39.6381ZM7.16148 42.5865C6.49751 50.3382 5.83353 57.9472 5.21699 65.5562C5.05099 67.6962 6.68722 69.3844 8.67913 69.3131C10.6711 69.2418 11.999 67.4108 11.833 65.3421L10.837 53.4769C10.5525 50.0529 10.2679 46.6288 9.93594 43.2048C9.90552 43.0733 9.84455 42.951 9.75801 42.8477C9.67147 42.7444 9.5618 42.663 9.43795 42.6103C8.70284 42.539 7.96773 42.5865 7.16148 42.5865ZM14.0858 19.9736H2.96422C3.18546 21.3213 3.88143 22.5448 4.92572 23.4218C5.97002 24.2988 7.29337 24.7711 8.65541 24.753C11.2876 24.7054 13.7301 22.5892 14.0858 19.9736Z" fill="#E7EEF8"/>
<path d="M71.4476 40.5178C71.4508 44.1304 70.7431 47.7081 69.3651 51.046C67.9871 54.3839 65.9659 57.4164 63.4173 59.9698C60.8686 62.5232 57.8427 64.5473 54.5127 65.9261C51.1827 67.305 47.6141 68.0115 44.0114 68.0053C40.4177 68.0022 36.8599 67.2893 33.541 65.9074C30.2221 64.5256 27.2071 62.5017 24.6683 59.9515C22.1294 57.4013 20.1163 54.3746 18.7439 51.0442C17.3716 47.7138 16.6668 44.1451 16.67 40.5416C16.6637 36.931 17.3676 33.3546 18.7412 30.0171C20.1148 26.6796 22.1313 23.6464 24.6752 21.0911C27.2191 18.5358 30.2405 16.5086 33.5666 15.1255C36.8927 13.7423 40.4581 13.0304 44.0588 13.0304C59.1879 13.0066 71.4476 25.3236 71.4476 40.5178ZM44.0825 65.3659C57.6228 65.3421 68.6969 54.2616 68.7206 40.6843C68.7443 27.107 57.5991 15.9075 44.0351 15.9313C30.4711 15.9551 19.4207 27.0357 19.397 40.6129C19.3733 54.1902 30.4948 65.3659 44.0825 65.3659Z" fill="#E7EEF8"/>
<path d="M80.6252 39.1387C79.5818 39.1387 78.5858 39.1862 77.5899 39.1387C76.7656 39.105 75.947 38.9855 75.1474 38.782C74.2463 38.5205 73.6535 37.8547 73.7009 36.8798C74.0803 25.3236 76.2145 14.2668 82.6882 4.42271C83.5182 3.13869 84.5142 1.94979 85.439 0.713328C85.8895 0.118876 86.4824 -0.166462 87.2175 0.0950966C87.9526 0.356655 88 0.998666 88 1.68823C87.9842 22.2325 87.9763 42.7609 87.9763 63.2734C87.9763 63.749 87.9763 64.2245 87.9526 64.7001C87.7155 67.3395 85.5813 69.1942 82.8779 69.0753C80.1746 68.9564 78.2064 66.7688 78.3487 64.2008C78.491 61.6327 78.8467 58.5891 79.1075 55.7833C79.6055 50.5284 80.1272 45.2734 80.6015 40.0185C80.6345 39.7264 80.6424 39.4321 80.6252 39.1387ZM85.3441 36.1189V5.65916C78.9653 14.8375 76.8548 25.2285 76.4279 36.1189H85.3441ZM83.6131 38.8771C83.5656 39.2734 83.5182 39.6539 83.4708 40.0185C83.2099 42.8956 82.9254 45.749 82.6645 48.6024L81.2417 63.8441C81.209 64.126 81.233 64.4115 81.3125 64.6839C81.3921 64.9562 81.5254 65.2097 81.7046 65.4293C81.8838 65.6489 82.1052 65.8302 82.3556 65.9622C82.6061 66.0943 82.8805 66.1745 83.1625 66.1981C84.277 66.2933 85.273 65.3659 85.3678 64.1294C85.3876 63.924 85.3955 63.7176 85.3916 63.5112V38.8771H83.6131Z" fill="#E7EEF8"/>
<path d="M44.0123 59.683C33.3651 59.6592 24.8994 51.1942 24.8994 40.613C24.9025 38.0942 25.4008 35.6007 26.3656 33.2751C27.3305 30.9495 28.7431 28.8375 30.5226 27.0597C32.3021 25.282 34.4137 23.8734 36.7365 22.9145C39.0593 21.9557 41.5478 21.4654 44.0597 21.4716C54.7307 21.4716 63.2438 29.9842 63.2201 40.5892C63.2139 43.1089 62.7116 45.6026 61.7421 47.9272C60.7726 50.2518 59.3549 52.3616 57.5703 54.1356C55.7858 55.9096 53.6695 57.3128 51.3429 58.2647C49.0163 59.2167 46.5251 59.6986 44.0123 59.683ZM60.4219 40.5416C60.4376 38.3773 60.0249 36.2314 59.2075 34.2281C58.3902 32.2249 57.1846 30.4042 55.6605 28.8715C54.1364 27.3389 52.3242 26.1247 50.3288 25.2994C48.3334 24.474 46.1945 24.0539 44.036 24.0634C41.8864 24.0634 39.758 24.4888 37.7726 25.3151C35.7872 26.1414 33.984 27.3524 32.4662 28.8787C30.9484 30.4051 29.7459 32.2168 28.9276 34.2099C28.1093 36.2031 27.6913 38.3386 27.6976 40.4941C27.6819 42.6493 28.0918 44.7863 28.9035 46.7819C29.7152 48.7776 30.9127 50.5925 32.427 52.122C33.9413 53.6515 35.7425 54.8654 37.7268 55.6938C39.7111 56.5221 41.8392 56.9486 43.9886 56.9485C46.145 56.9642 48.2832 56.5511 50.2794 55.733C52.2756 54.915 54.0903 53.7082 55.6185 52.1825C57.1466 50.6568 58.358 48.8424 59.1825 46.8443C60.007 44.8462 60.4282 42.704 60.4219 40.5416Z" fill="#E7EEF8"/>
<path d="M84.6804 63.6776C84.6804 64.391 84.0402 65.0805 83.3762 65.1043C83.0024 65.0987 82.6448 64.9505 82.3761 64.6899C82.1074 64.4293 81.9477 64.0759 81.9297 63.7014C81.9534 62.9881 82.6174 62.3223 83.3051 62.3461C83.6583 62.3571 83.9948 62.4996 84.249 62.7457C84.5033 62.9918 84.657 63.3241 84.6804 63.6776Z" fill="#E7EEF8"/>
</g>
<defs>
<clipPath id="clip0_292_3154">
<rect width="88" height="72" fill="white"/>
</clipPath>
</defs>
</svg>
