<svg width="72" height="72" viewBox="0 0 72 72" fill="none" xmlns="http://www.w3.org/2000/svg">
<g clip-path="url(#clip0_292_3160)">
<path d="M0 50.4844C0.126562 49.9922 0.224997 49.4859 0.365622 48.9938C1.53281 44.9156 5.13281 42.0891 9.37969 42.0328C12.6563 41.9766 15.9328 41.9625 19.2094 42.0328C23.4562 42.1172 26.4094 44.1984 28.1109 48.0656L28.2375 48.3188L28.3359 48.4172C30.825 47.7141 33.3984 48.0094 35.9719 48.0094C38.5453 48.0094 41.1187 47.7141 43.7062 48.4313L43.9594 47.8688C45.6469 44.2266 48.4734 42.1734 52.5094 42.0469C55.8703 41.9344 59.2453 41.9766 62.6203 42.0328C67.2891 42.1031 71.1 45.4641 71.8734 50.0906C71.9016 50.2172 71.9578 50.3578 72 50.4844V64.125C71.4797 65.5172 70.4813 66.0234 69.0047 66.0094C63.0984 65.9531 57.1922 65.9812 51.3 65.9812H50.3859C50.3859 67.05 50.3438 68.0344 50.4 69.0047C50.4984 70.4812 49.9219 71.4938 48.5156 72H23.4844C22.1203 71.5078 21.5016 70.5375 21.6 69.075C21.6422 68.4984 21.6141 67.9078 21.6141 67.3172V65.9812H20.6297C14.7516 65.9812 8.87344 65.9531 2.99531 66.0094C1.53281 66.0234 0.520312 65.5313 0 64.125V50.4844ZM47.9531 69.5813C47.9672 69.3141 47.9813 69.1031 47.9813 68.8922C48 65.2266 48 61.5469 47.9813 57.8531C47.9672 53.4516 44.9016 50.4 40.5 50.3859H31.5C27.0984 50.4 24.0187 53.4656 24.0187 57.8531C24.0094 61.5094 24.0094 65.1656 24.0187 68.8219C24.0187 69.075 24.0328 69.3141 24.0469 69.5813H47.9531ZM69.5812 63.5625C69.5812 59.3297 69.7078 55.1813 69.5391 51.0469C69.3984 47.3344 66.2906 44.4797 62.55 44.4234C59.175 44.3813 55.8141 44.3813 52.4391 44.4375C49.6688 44.4797 47.1094 46.35 46.1109 48.9234C45.9562 49.3172 45.9844 49.5422 46.35 49.8094C49.0922 51.8203 50.4141 54.5484 50.3859 57.9516V63.5625H69.5812ZM21.6141 63.5484V57.8391C21.6 54.4922 22.9219 51.8063 25.6219 49.8234C26.0016 49.5422 26.0578 49.3031 25.875 48.8953C24.6375 46.1531 22.5422 44.5359 19.5187 44.4516C16.1016 44.3391 12.6844 44.3813 9.26719 44.4375C5.85 44.4938 2.78437 47.0813 2.57344 50.4C2.30625 54.7594 2.475 59.1328 2.46094 63.5484H21.6141Z" fill="#E7EEF8"/>
<path d="M65.5315 0L65.9675 0.196876C67.4159 0.731251 68.3581 1.94063 68.3722 3.4875C68.4003 6.75 68.4144 9.99844 68.3722 13.2609C68.344 15.3422 66.8394 16.7484 64.6878 16.7906C62.5362 16.8328 60.3847 16.7766 58.2331 16.8188C57.8513 16.8373 57.4902 16.9978 57.2206 17.2688C56.2081 18.3375 55.2659 19.4766 54.2815 20.5734C53.0862 21.9234 51.5394 21.9375 50.3581 20.6016C49.1769 19.2656 48.3612 18.2953 47.3206 17.1844C47.0668 16.936 46.7327 16.7864 46.3784 16.7625C44.8878 16.7344 43.3831 16.7484 41.8925 16.8047C41.5326 16.834 41.1943 16.9882 40.9362 17.2406C39.9237 18.3375 38.9534 19.4906 37.955 20.6016C36.7597 21.9516 35.2269 21.9375 34.0315 20.5734C33.0331 19.4625 32.0347 18.3375 31.0644 17.1984C30.9472 17.0397 30.7913 16.9138 30.6116 16.8325C30.4319 16.7513 30.2343 16.7175 30.0378 16.7344C28.5753 16.7766 27.0987 16.7344 25.6222 16.8047C25.2404 16.8346 24.8816 16.9991 24.6097 17.2688C23.5831 18.3516 22.6269 19.5188 21.6284 20.6297C20.63 21.7406 18.9144 21.9234 17.7472 20.6016C16.58 19.2797 15.7081 18.2672 14.6675 17.1281C14.4427 16.9123 14.1488 16.7828 13.8378 16.7625C11.7847 16.7484 9.71749 16.7625 7.66436 16.7906C5.10499 16.8328 3.61436 15.3844 3.61436 12.8391C3.6003 10.0688 3.68467 7.3125 3.58624 4.54219C3.50186 2.30625 4.2753 0.73125 6.46905 0H65.5315ZM52.355 19.2516C53.4378 17.9859 54.4925 16.8187 55.4628 15.5953C56.1659 14.7094 57.0378 14.3578 58.1487 14.3719C60.2581 14.4141 62.3675 14.4 64.4769 14.3859C65.6019 14.3859 65.9816 14.0062 65.9816 12.8531C65.9956 9.88594 65.9956 6.90469 65.9816 3.9375C65.9816 2.79844 65.5878 2.39062 64.4769 2.39062H7.5378C6.4128 2.39062 6.01905 2.79844 6.01905 3.92344C6.00499 6.89063 6.00499 9.87188 6.01905 12.8391C6.01905 14.0203 6.38468 14.3859 7.57999 14.3859C9.75968 14.3859 11.9394 14.4 14.1191 14.3859C14.5513 14.3716 14.981 14.4582 15.374 14.6389C15.767 14.8195 16.1125 15.0892 16.3831 15.4266C17.48 16.7063 18.605 17.9578 19.7581 19.2516C20.7987 18.0141 21.8534 16.8469 22.8237 15.6234C23.5269 14.7375 24.3847 14.3438 25.5097 14.3859C27.0706 14.4141 28.6456 14.4141 30.2206 14.3859C31.2753 14.3578 32.105 14.6953 32.7941 15.5391C33.8347 16.7906 34.9456 17.9859 36.0565 19.2516C37.1675 17.9578 38.2503 16.7203 39.2909 15.4547C39.5635 15.1034 39.9167 14.8229 40.3205 14.6369C40.7244 14.4509 41.1671 14.3648 41.6112 14.3859C43.2987 14.4047 44.9862 14.4047 46.6737 14.3859C47.63 14.3719 48.3894 14.6953 49.0081 15.4406C50.0909 16.7063 51.2019 17.9437 52.355 19.2516Z" fill="#E7EEF8"/>
<path d="M22.7952 31.1906C22.7952 35.8172 19.0124 39.6141 14.3999 39.6C13.2962 39.5982 12.2037 39.3787 11.1849 38.9542C10.1661 38.5298 9.24106 37.9085 8.46261 37.1262C7.68415 36.3438 7.0676 35.4156 6.64823 34.3947C6.22886 33.3738 6.0149 32.2802 6.0186 31.1766C6.01859 28.9586 6.89775 26.831 8.46346 25.2601C10.0292 23.6891 12.1538 22.8028 14.3717 22.7953C18.9842 22.7813 22.7811 26.5641 22.7952 31.1906ZM8.42329 31.1906C8.41773 31.9772 8.56785 32.7571 8.865 33.4853C9.16215 34.2136 9.60046 34.8759 10.1547 35.4341C10.7089 35.9922 11.3681 36.4352 12.0943 36.7375C12.8204 37.0397 13.5992 37.1953 14.3858 37.1953C15.9711 37.1954 17.492 36.5685 18.6169 35.4515C19.7418 34.3345 20.3793 32.818 20.3905 31.2328C20.3942 30.4413 20.2417 29.6567 19.9418 28.9242C19.6418 28.1916 19.2003 27.5254 18.6426 26.9637C18.0848 26.402 17.4217 25.9559 16.6913 25.6508C15.9608 25.3458 15.1774 25.1878 14.3858 25.186C12.7994 25.1934 11.2808 25.8298 10.163 26.9555C9.04519 28.0812 8.41955 29.6043 8.42329 31.1906Z" fill="#E7EEF8"/>
<path d="M65.9808 31.1766C65.9845 32.2803 65.7706 33.3738 65.3512 34.3947C64.9318 35.4156 64.3153 36.3438 63.5368 37.1262C62.7584 37.9086 61.8333 38.5298 60.8145 38.9543C59.7957 39.3787 58.7032 39.5982 57.5996 39.6C53.0011 39.6141 49.2324 35.8453 49.2043 31.261C49.1761 26.6766 52.9308 22.8094 57.5574 22.7953C58.6611 22.7916 59.7546 23.0056 60.7755 23.425C61.7964 23.8443 62.7246 24.4609 63.507 25.2393C64.2894 26.0178 64.9106 26.9429 65.335 27.9617C65.7595 28.9804 65.979 30.0729 65.9808 31.1766ZM63.5761 31.1766C63.5761 29.5878 62.945 28.064 61.8215 26.9406C60.6981 25.8171 59.1743 25.186 57.5855 25.186C56.7939 25.1915 56.0112 25.3531 55.2821 25.6616C54.5531 25.97 53.8921 26.4193 53.3369 26.9836C52.7818 27.5479 52.3434 28.2162 52.0469 28.9501C51.7503 29.6841 51.6015 30.4694 51.6089 31.261C51.6238 32.8473 52.2673 34.363 53.3983 35.4756C54.5293 36.5881 56.0554 37.2066 57.6418 37.1953C58.4266 37.1898 59.2027 37.0298 59.9257 36.7243C60.6487 36.4188 61.3045 35.9739 61.8555 35.4151C62.4066 34.8562 62.8422 34.1942 63.1374 33.467C63.4326 32.7397 63.5817 31.9614 63.5761 31.1766Z" fill="#E7EEF8"/>
<path d="M36.0143 45.5907C31.3877 45.5907 27.5908 41.8219 27.5908 37.1953C27.602 34.9686 28.4944 32.8369 30.0729 31.2663C31.6513 29.6957 33.7875 28.8141 36.0143 28.8141C38.2324 28.8177 40.3593 29.6976 41.9317 31.2622C43.5041 32.8267 44.3947 34.9491 44.4096 37.1672C44.4377 41.7797 40.6549 45.5766 36.0143 45.5907ZM36.0002 43.186C37.5855 43.186 39.1064 42.5592 40.2313 41.4422C41.3562 40.3252 41.9937 38.8087 42.0049 37.2235C42.005 35.6369 41.3786 34.1145 40.262 32.9873C39.1454 31.8602 37.6289 31.2195 36.0424 31.2047C35.2503 31.1991 34.4649 31.3504 33.7315 31.6496C32.9981 31.9489 32.3312 32.3903 31.7691 32.9485C31.2071 33.5066 30.761 34.1704 30.4566 34.9017C30.1522 35.633 29.9955 36.4173 29.9955 37.2094C30.0029 38.7971 30.6389 40.3172 31.7642 41.4372C32.8894 42.5572 34.4125 43.186 36.0002 43.186Z" fill="#E7EEF8"/>
<path d="M28.8004 64.8141H32.1191C33.0613 64.8141 33.6238 65.2781 33.5957 66.0234C33.5676 66.7688 33.0191 67.2047 32.1473 67.2047C31.0645 67.2188 29.9957 67.2188 28.9129 67.2047C27.4082 67.1766 26.4379 66.2063 26.4098 64.6875C26.4098 63.9281 26.3957 63.1828 26.4238 62.4375C26.452 61.6922 26.9301 61.2141 27.5769 61.2C28.2238 61.1859 28.7582 61.6781 28.8004 62.3953C28.8426 63.1125 28.8004 63.9422 28.8004 64.8141Z" fill="#E7EEF8"/>
<path d="M37.7859 64.8141H38.4188C39.0938 64.8563 39.5719 65.3344 39.5859 65.9672C39.6 66.6 39.15 67.1203 38.475 67.1907C38.0774 67.2235 37.678 67.2282 37.2797 67.2047C36.5203 67.1625 36 66.6703 36 65.9953C36 65.3203 36.5203 64.8422 37.2938 64.8141H37.7859Z" fill="#E7EEF8"/>
<path d="M26.4092 56.9672V56.6156C26.4232 55.7297 26.8732 55.2094 27.6186 55.2234C28.3639 55.2375 28.7857 55.7437 28.8139 56.5875C28.8139 56.8828 28.8279 57.1922 28.7998 57.4875C28.7717 58.275 28.2936 58.7812 27.6186 58.7812C26.9436 58.7812 26.4373 58.2891 26.4092 57.4594V56.9672Z" fill="#E7EEF8"/>
<path d="M7.18594 58.7953C9.09844 58.7953 10.9125 58.7813 12.7266 58.7953C13.0058 58.7801 13.2858 58.8085 13.5563 58.8797C14.1469 59.0625 14.4281 59.4984 14.3719 60.1172C14.3156 60.7359 13.9359 61.1578 13.3313 61.1578C11.1516 61.2 8.98594 61.2141 6.80625 61.1438C5.70938 61.1016 4.85157 60.0469 4.80938 58.8656C4.76719 58.0781 4.78125 57.2766 4.79531 56.4891C4.80937 55.7016 5.31563 55.2094 6.00469 55.2234C6.69375 55.2375 7.15781 55.7156 7.18594 56.5031C7.2 56.8828 7.18594 57.2484 7.18594 57.6281V58.7953Z" fill="#E7EEF8"/>
<path d="M7.17188 51.075C7.1884 51.3328 7.1837 51.5914 7.15782 51.8484C7.10638 52.1279 6.95236 52.378 6.72601 52.5497C6.49967 52.7214 6.21732 52.8023 5.93438 52.7766C5.27344 52.7344 4.89376 52.3406 4.80938 51.7219C4.76015 51.2779 4.76015 50.8299 4.80938 50.3859C4.85157 49.6688 5.35782 49.2047 6.03282 49.2188C6.70782 49.2328 7.14375 49.7109 7.18594 50.4422C7.2 50.6531 7.18594 50.8641 7.18594 51.075H7.17188Z" fill="#E7EEF8"/>
<path d="M24.5817 11.9812H11.377C11.1189 11.993 10.8602 11.9836 10.6036 11.9531C10.013 11.8687 9.68952 11.489 9.61921 10.9265C9.57311 10.6668 9.62339 10.3992 9.76062 10.174C9.89785 9.94869 10.1126 9.78126 10.3645 9.70311C10.6802 9.61561 11.0075 9.57766 11.3348 9.59061H37.8989C38.1974 9.58088 38.4957 9.61403 38.7848 9.68905C39.3614 9.8578 39.6145 10.3078 39.5723 10.8703C39.5301 11.4328 39.1926 11.8687 38.5739 11.9672C38.3165 11.9859 38.0583 11.9906 37.8005 11.9812H24.5817Z" fill="#E7EEF8"/>
<path d="M20.3906 7.18596C17.2969 7.18596 14.2031 7.20002 11.1094 7.1719C10.7002 7.17596 10.3007 7.04772 9.97033 6.80627C9.25315 6.20159 9.61877 5.06252 10.5328 4.83752C10.7884 4.79547 11.0477 4.78132 11.3063 4.79534H29.9953C30.7125 4.86565 31.2188 5.3719 31.2047 6.01877C31.1906 6.66565 30.6844 7.1719 29.9531 7.18596H20.3906Z" fill="#E7EEF8"/>
<path d="M55.1391 7.18591H49.4579C48.5579 7.18591 48.0094 6.73591 47.9954 6.00466C47.9813 5.27341 48.5438 4.79529 49.4157 4.79529H60.9469C61.8329 4.79529 62.3954 5.25935 62.3954 5.97654C62.3954 6.69372 61.8469 7.18591 60.9048 7.18591H55.1391Z" fill="#E7EEF8"/>
<path d="M39.544 7.18591H35.044C34.13 7.18591 33.6237 6.74998 33.6096 6.00466C33.5956 5.25935 34.144 4.79529 35.0159 4.79529H44.1565C45.0565 4.79529 45.5768 5.24529 45.5768 5.9906C45.5768 6.73591 45.0846 7.18591 44.1706 7.18591H39.544Z" fill="#E7EEF8"/>
<path d="M44.9439 11.9813C44.3533 11.9813 43.7626 11.9953 43.1861 11.9672C42.6095 11.9391 42.0329 11.475 42.0189 10.8282C42.0048 10.1813 42.4408 9.63284 43.1298 9.61878C44.3673 9.56253 45.6189 9.56253 46.8564 9.60472C47.5736 9.63284 48.0095 10.1953 47.9814 10.8703C47.9533 11.5453 47.4892 11.9391 46.7579 11.9813H44.9439Z" fill="#E7EEF8"/>
</g>
<defs>
<clipPath id="clip0_292_3160">
<rect width="72" height="72" fill="white"/>
</clipPath>
</defs>
</svg>
