<svg width="62" height="72" viewBox="0 0 62 72" fill="none" xmlns="http://www.w3.org/2000/svg">
<g clip-path="url(#clip0_292_3176)">
<path d="M31.4196 0C33.6232 0.703125 35.8126 1.42031 38.0162 2.10937L60.4363 9.04219C61.7727 9.46406 61.986 9.75938 61.986 11.1656C61.986 19.0406 62.0144 26.9156 61.9717 34.7906C61.9149 46.3078 57.5645 55.9406 48.8069 63.5484C43.9305 67.7953 38.2295 70.4953 31.8887 71.8453L31.4196 72H30.5666C28.6899 71.4516 26.7564 71.0297 24.9367 70.3547C14.4635 66.4641 7.06598 59.3953 2.74404 49.1484C0.838971 44.5922 -0.0140422 39.825 0.000174697 34.8891C0.0143916 26.9578 0.000174697 19.0125 0.000174697 11.0672C0.000174697 9.7875 0.227642 9.47813 1.43608 9.09844L29.9268 0.267188C30.1401 0.196875 30.3533 0.084375 30.5666 0H31.4196ZM2.84356 11.6016V12.0937C2.84356 19.8984 2.78669 27.7031 2.88621 35.5078C2.91464 37.8281 3.11368 40.2188 3.68236 42.4688C7.08021 56.2359 15.7667 65.0109 29.5714 68.8359C30.2254 69.0188 30.9931 69.1313 31.647 68.9906C47.5416 65.5313 58.9578 51.6938 59.1284 35.5922C59.1994 27.7875 59.1426 19.9828 59.1568 12.1781C59.1568 11.7141 58.9862 11.5312 58.5597 11.4047L31.5475 3.06562C31.1894 2.96733 30.811 2.96733 30.4528 3.06562L15.5535 7.66406L2.84356 11.6016Z" fill="#E7EEF8"/>
<path d="M54.0243 26.6344C54.0243 29.7141 54.0669 32.7797 54.0101 35.8453C53.9222 40.3614 52.7735 44.7955 50.6549 48.7969C50.1857 49.6969 49.3895 49.9922 48.6218 49.5984C47.8541 49.2047 47.6693 48.4031 48.1242 47.5172C50.271 43.3969 51.2235 39.0094 51.1951 34.3828C51.1524 28.9406 51.1667 23.5125 51.1951 18.0703C51.1951 17.5219 51.0103 17.3109 50.4985 17.1562L31.5473 11.3062C31.2148 11.2032 30.859 11.1983 30.5237 11.2922L11.4304 17.1844C10.9754 17.325 10.7906 17.4797 10.7906 18C10.819 23.9484 10.7622 29.8969 10.819 35.8453C10.947 47.4047 19.2212 57.9094 30.4953 60.9187C30.8563 60.9985 31.2311 60.9937 31.59 60.9047C34.4874 60.0958 37.2234 58.8021 39.6794 57.0797C39.83 56.9639 39.9866 56.856 40.1486 56.7562C40.8594 56.3344 41.6555 56.4469 42.1105 57.0656C42.5654 57.6844 42.4943 58.5844 41.7551 59.0344C40.0632 60.0891 38.3714 61.1859 36.5659 62.0437C35.0162 62.7891 33.3386 63.2531 31.7037 63.7875C31.2553 63.9254 30.7759 63.9303 30.3247 63.8016C18.1834 60.1875 10.819 52.2422 8.38794 39.9234C8.06095 38.2641 7.98987 36.5203 7.97565 34.8187C7.933 28.8281 7.96144 22.8234 7.96144 16.8328C7.96144 15.5672 8.20313 15.2578 9.44 14.8781C16.321 12.7406 23.202 10.5891 30.083 8.49374C30.6665 8.3204 31.288 8.31552 31.8743 8.47968C38.8122 10.5891 45.7358 12.7547 52.6594 14.9062C53.7399 15.2437 54.0243 15.6094 54.0243 16.7203V26.6344Z" fill="#E7EEF8"/>
<path d="M28.4053 33.6797L31.8174 30.2766L36.9355 25.2141C37.9449 24.2156 38.5988 24.2156 39.5798 25.1859L43.8591 29.4047C44.7548 30.3047 44.7548 30.9937 43.8591 31.8797C39.1296 36.5766 34.3906 41.2641 29.6422 45.9422C28.7749 46.8 28.0641 46.8141 27.1969 45.9562L18.1123 36.9703C17.2308 36.0984 17.2308 35.4234 18.1123 34.5516L22.5337 30.1781C23.3441 29.3765 24.0834 29.3766 24.9222 30.1922L28.4053 33.6797ZM21.0409 35.775L28.32 43.0031L40.8593 30.6L38.215 27.9562L37.689 28.4484L29.8554 36.1969C28.6896 37.35 28.1352 37.35 26.9552 36.1687L23.8132 33.0469L21.0409 35.775Z" fill="#E7EEF8"/>
<path d="M45.6648 54.9844C45.4669 55.0008 45.2678 54.9761 45.0802 54.9118C44.8926 54.8475 44.7207 54.745 44.5756 54.611C44.4304 54.477 44.3153 54.3144 44.2376 54.1337C44.1598 53.953 44.1212 53.7582 44.1242 53.5619C44.1272 53.3655 44.1717 53.172 44.2549 52.9937C44.3382 52.8154 44.4582 52.6563 44.6074 52.5267C44.7565 52.397 44.9314 52.2997 45.1209 52.2411C45.3104 52.1824 45.5102 52.1636 45.7074 52.1859C46.0579 52.2256 46.3809 52.3928 46.6137 52.6549C46.8466 52.917 46.9726 53.2554 46.9673 53.6043C46.9619 53.9531 46.8257 54.2876 46.585 54.5427C46.3443 54.7977 46.0163 54.9552 45.6648 54.9844Z" fill="#E7EEF8"/>
</g>
<defs>
<clipPath id="clip0_292_3176">
<rect width="62" height="72" fill="white"/>
</clipPath>
</defs>
</svg>
