<svg width="161" height="161" viewBox="0 0 161 161" fill="none" xmlns="http://www.w3.org/2000/svg">
<path d="M39.5474 81.3403C39.5596 83.1868 39.7095 85.0299 39.9959 86.8544C40.1787 88.1456 40.4483 89.4233 40.803 90.6788C40.9823 91.4792 41.2516 92.2797 41.4309 92.9912C41.6103 93.7027 42.238 95.3036 42.6864 96.3708C43.1349 97.4381 43.3143 97.7049 43.5833 98.4164C44.4333 100.078 45.3919 101.682 46.4532 103.219C47.3374 104.517 48.2956 105.765 49.3231 106.954L51.3859 109.178L53.7179 111.224C58.2885 115.187 63.7215 118.048 69.5922 119.584L71.2066 120.028C72.5973 120.323 74.0051 120.531 75.4218 120.651C76.0728 120.784 76.7319 120.873 77.3949 120.918H79.4577V159.428C58.616 159.242 38.6824 150.943 23.9529 136.32C9.22338 121.696 0.877205 101.919 0.713379 81.2513V80.0951C0.877205 59.427 9.22338 39.6501 23.9529 25.0267C38.6824 10.4033 58.616 2.10435 79.4577 1.91837V40.4287C78.2568 40.4289 77.0577 40.5181 75.8703 40.6955L73.8972 40.9623L69.9509 41.7627L68.0676 42.2964L66.1841 42.9189C63.7153 43.8099 61.342 44.942 59.099 46.2986L58.1124 47.0101C56.5402 47.9244 55.0676 48.9974 53.7179 50.2119L51.3859 52.2574L49.3231 54.4809L46.4532 58.2163C45.3919 59.7534 44.4333 61.3577 43.5833 63.019C43.3143 63.7305 42.9555 64.3531 42.6864 65.0646C42.4174 65.7761 41.7897 67.288 41.4309 68.4442L40.803 70.6677C40.4567 71.9553 40.1873 73.262 39.9959 74.581C39.7166 76.4064 39.5667 78.2489 39.5474 80.0951V81.3403Z" fill="#6287BF"/>
<path d="M120.624 80.0951C120.604 78.2489 120.454 76.4064 120.175 74.581C119.993 73.2604 119.723 71.9532 119.368 70.6677C118.559 67.4089 117.323 64.2694 115.691 61.3292C115.153 60.4398 114.615 59.5504 113.987 58.661C113.899 58.4639 113.778 58.2834 113.628 58.1274C113 57.238 112.462 56.4375 111.745 55.5482L110.848 54.4809L108.785 52.2575C108.081 51.5301 107.332 50.8469 106.543 50.2119L105.467 49.3225L102.866 47.4548L102.148 47.0101C101.848 46.736 101.517 46.4972 101.162 46.2986C97.754 44.2091 94.0292 42.6775 90.1303 41.7627C88.8664 41.4022 87.5776 41.1346 86.274 40.9623C84.4067 40.6441 82.518 40.4657 80.6237 40.4287V1.91837C101.481 2.08115 121.438 10.3699 136.186 24.9957C150.935 39.6216 159.293 59.4117 159.458 80.0951H120.624ZM160.085 71.2902C157.94 53.4876 149.824 36.9165 137.04 24.2385C124.255 11.5606 107.545 3.51175 89.5923 1.38474C86.6183 0.997351 83.6232 0.789447 80.6237 0.762177H79.4578V41.5849H80.6237L82.5968 41.7627L84.5698 41.9406C85.8667 42.0249 87.1557 42.2033 88.4264 42.4742L90.3099 43.0079L92.6416 43.6304L93.8973 44.1641C94.5235 44.3239 95.1264 44.563 95.691 44.8756C98.0007 45.8148 100.197 47.0081 102.238 48.4331C103.266 49.0857 104.255 49.7985 105.198 50.5676C106.184 51.3681 106.991 52.2575 107.888 53.0579L110.13 55.4592C111.045 56.4958 111.884 57.5955 112.642 58.7499L113.359 59.8172C113.808 60.5287 114.256 61.2402 114.615 61.9517C114.954 62.4475 115.226 62.9859 115.422 63.5526C116.141 64.9648 116.77 66.4203 117.305 67.9106C117.429 68.3344 117.579 68.7502 117.754 69.1557C117.915 69.6187 118.035 70.0949 118.112 70.5787C118.284 71.0996 118.404 71.6357 118.471 72.1796L118.74 72.9801L119.009 74.7588C119.113 75.2567 119.173 75.7626 119.189 76.2708C119.297 76.9177 119.357 77.5717 119.368 78.2274C119.443 78.8471 119.473 79.4713 119.458 80.0951V81.3403H160.713V80.0951C160.624 77.1602 160.444 74.2252 160.085 71.2902ZM89.5923 1.38474C86.6164 1.7424 83.6214 1.92061 80.6237 1.91837C101.481 2.08115 121.438 10.3699 136.186 24.9957C150.935 39.6216 159.293 59.4117 159.458 80.0951C159.547 77.1602 159.727 74.2252 160.085 71.2902C157.94 53.4876 149.824 36.9165 137.04 24.2385C124.255 11.5606 107.545 3.51175 89.5923 1.38474Z" fill="#6287BF"/>
<path d="M119.458 80.0951V81.3403C119.475 83.9166 119.173 86.4852 118.561 88.989C118.377 90.1338 118.107 91.2635 117.754 92.3686C117.664 92.4575 117.574 92.5465 117.574 92.6354C117.419 93.2458 117.209 93.8411 116.947 94.4142C116.746 95.0218 116.507 95.616 116.229 96.193C115.782 97.3315 115.242 98.432 114.615 99.4837C114.37 100.045 114.069 100.582 113.718 101.085L112.642 102.685C112.313 103.21 111.954 103.715 111.565 104.197L110.489 105.62C109.682 106.599 108.785 107.488 107.888 108.377L105.198 110.868L102.238 113.002L99.8164 114.514C97.3854 115.955 94.7982 117.119 92.1036 117.983C90.2742 118.521 88.4181 118.967 86.5429 119.317L84.0318 119.584C82.9046 119.761 81.765 119.85 80.6237 119.851V121.007H82.6865L84.7491 120.74L86.7224 120.473L88.6955 120.117L92.4622 119.139C93.1939 118.911 93.9124 118.644 94.6146 118.339C95.7805 117.983 96.8569 117.449 97.9332 117.005C99.6277 116.112 101.274 115.132 102.866 114.07C103.62 113.586 104.339 113.051 105.018 112.469L106.543 111.312C107.332 110.677 108.081 109.994 108.785 109.267L110.848 107.043L112.014 105.62C112.642 104.909 113.09 104.108 113.628 103.397C116.409 99.3797 118.416 94.8867 119.547 90.1451C119.843 89.0962 120.052 88.0256 120.175 86.9434C120.354 86.054 120.444 85.0757 120.534 84.1863C120.624 83.2969 120.624 82.6743 120.624 81.8739V81.4292H159.458V80.0951H119.458ZM80.6237 159.517V121.007H82.6865L84.7491 120.74L86.7224 120.473L88.6955 120.117L92.4622 119.139C93.1939 118.911 93.9124 118.644 94.6146 118.339C95.7805 117.983 96.8569 117.449 97.9332 117.005C99.6277 116.112 101.274 115.132 102.866 114.07C103.62 113.586 104.339 113.051 105.018 112.469L106.543 111.312C107.332 110.677 108.081 109.994 108.785 109.267L110.848 107.043L112.014 105.62C112.642 104.909 113.09 104.108 113.628 103.397C116.409 99.3797 118.416 94.8867 119.547 90.1451C119.843 89.0962 120.052 88.0256 120.175 86.9434C120.354 86.054 120.444 85.0757 120.534 84.1863C120.624 83.2969 120.624 82.6743 120.624 81.8739V81.4292H159.458C159.293 102.113 150.935 121.903 136.186 136.529C121.438 151.154 101.481 159.443 80.6237 159.606M119.458 80.1841V81.4292C119.475 84.0055 119.173 86.5742 118.561 89.0779C118.377 90.2228 118.107 91.3525 117.754 92.4575C117.664 92.5465 117.574 92.6354 117.574 92.7244C117.419 93.3348 117.209 93.9301 116.947 94.5031C116.746 95.1107 116.507 95.7049 116.229 96.2819C115.782 97.4204 115.242 98.521 114.615 99.5726C114.37 100.134 114.069 100.671 113.718 101.173L112.642 102.774C112.313 103.299 111.954 103.804 111.565 104.286L110.489 105.709C109.682 106.688 108.785 107.577 107.888 108.466L105.198 110.957L102.238 113.091L99.8164 114.603C97.3854 116.044 94.7982 117.207 92.1036 118.072C90.2742 118.61 88.4181 119.056 86.5429 119.406L84.0318 119.673C82.9046 119.85 81.765 119.939 80.6237 119.939H79.4578V160.762H80.6237C99.5478 160.611 117.815 153.864 132.228 141.701C146.64 129.539 156.28 112.737 159.458 94.2363C160.239 90.01 160.66 85.7257 160.713 81.4292V80.0951L119.458 80.1841ZM119.458 80.1841V81.4292C119.475 84.0055 119.173 86.5742 118.561 89.0779C118.377 90.2228 118.107 91.3525 117.754 92.4575C117.664 92.5465 117.574 92.6354 117.574 92.7244C117.419 93.3348 117.209 93.9301 116.947 94.5031C116.746 95.1107 116.507 95.7049 116.229 96.2819C115.782 97.4204 115.242 98.521 114.615 99.5726C114.37 100.134 114.069 100.671 113.718 101.173L112.642 102.774C112.313 103.299 111.954 103.804 111.565 104.286L110.489 105.709C109.682 106.688 108.785 107.577 107.888 108.466L105.198 110.957L102.238 113.091L99.8164 114.603C97.3854 116.044 94.7982 117.207 92.1036 118.072C90.2742 118.61 88.4181 119.056 86.5429 119.406L84.0318 119.673C82.9046 119.85 81.765 119.939 80.6237 119.939V121.096H82.6865L84.7491 120.829L86.7224 120.562L88.6955 120.206L92.4622 119.228C93.1939 119 93.9124 118.733 94.6146 118.428C95.7805 118.072 96.8569 117.538 97.9332 117.093C99.6277 116.201 101.274 115.221 102.866 114.158C103.62 113.675 104.339 113.14 105.018 112.558L106.543 111.401C107.332 110.766 108.081 110.083 108.785 109.356L110.848 107.132L112.014 105.709C112.642 104.998 113.09 104.197 113.628 103.486C116.409 99.4686 118.416 94.9757 119.547 90.2341C119.843 89.1852 120.052 88.1145 120.175 87.0323C120.354 86.1429 120.444 85.1646 120.534 84.2752C120.624 83.3858 120.624 82.7633 120.624 81.9628V81.5181H159.458V80.0951L119.458 80.1841Z" fill="#6287BF"/>
<path d="M40.7136 80.0952C40.7136 78.939 40.8032 77.7828 40.8929 76.6266C40.9386 75.9985 41.0286 75.3745 41.162 74.7589C41.247 74.1596 41.3667 73.5657 41.5207 72.9801C41.5968 72.3208 41.7168 71.6672 41.8795 71.0235C42.0481 70.3882 42.2578 69.7643 42.5073 69.1557C42.6451 68.5221 42.8248 67.8982 43.0453 67.288C43.3143 66.7544 43.4937 66.1318 43.7628 65.5093C44.0319 64.8867 44.8392 63.1969 45.467 62.1296C46.0948 61.0624 45.4668 61.9517 45.5565 61.9517C46.0981 60.8934 46.7282 59.8819 47.44 58.9278C47.7978 58.3442 48.187 57.7801 48.606 57.238C49.1786 56.4246 49.8078 55.6519 50.4893 54.9256L52.1934 53.0579L54.9735 50.5676C59.3298 47.0147 64.4082 44.4361 69.8615 43.0079L71.4759 42.5632L72.283 42.3853L74.0767 42.1185L75.5118 41.9406L77.4848 41.7628L79.4579 41.5849V80.0952H40.7136ZM79.4579 40.4287L75.8704 40.6066L73.8974 40.9623C72.5658 41.1433 71.2474 41.4107 69.9511 41.7628L68.0678 42.2964L66.1843 42.919C63.7155 43.8099 61.3421 44.942 59.0992 46.2986C58.7164 46.4518 58.3774 46.6961 58.1126 47.0101C56.5602 47.954 55.0903 49.025 53.718 50.2119L51.3861 52.2575L49.3233 54.4809L46.4534 58.2163C45.4668 59.7283 44.4803 61.3292 43.5835 63.019C42.6866 64.7088 42.9557 64.3531 42.6866 65.0646C42.4176 65.7761 41.7898 67.288 41.4311 68.4442L40.8031 70.6677C40.4481 71.9532 40.1786 73.2605 39.996 74.581C39.7168 76.4064 39.5669 78.249 39.5476 80.0952V81.3403H80.6238V40.4287H79.4579Z" fill="#6287BF"/>
<path d="M119.458 81.3402C119.474 83.9165 119.173 86.4852 118.561 88.9889L117.753 92.3686C117.664 92.4575 117.574 92.5465 117.574 92.6354C117.419 93.2458 117.209 93.8411 116.946 94.4142C116.746 95.0218 116.506 95.6159 116.229 96.1929C115.764 97.3237 115.225 98.4229 114.614 99.4837L113.718 101.085L112.641 102.685L111.565 104.197L110.489 105.62C109.682 106.599 108.785 107.488 107.888 108.377L105.197 110.868L102.238 113.002L99.8162 114.514C97.3853 115.955 94.798 117.119 92.1034 117.983C90.2741 118.521 88.4179 118.967 86.5427 119.317L84.0316 119.584C82.8657 119.673 81.7895 119.851 80.6235 119.851V81.3402H119.458Z" fill="#6287BF"/>
</svg>
