<svg width="18" height="18" viewBox="0 0 18 18" fill="none" xmlns="http://www.w3.org/2000/svg">
<path d="M1.79994 16.4C1.30494 16.4 0.881339 16.2239 0.529139 15.8717C0.176339 15.5189 -6.10352e-05 15.095 -6.10352e-05 14.6V3.8C-6.10352e-05 3.305 0.176339 2.8814 0.529139 2.5292C0.881339 2.1764 1.30494 2 1.79994 2H16.1999C16.6949 2 17.1188 2.1764 17.4716 2.5292C17.8238 2.8814 17.9999 3.305 17.9999 3.8V14.6C17.9999 15.095 17.8238 15.5189 17.4716 15.8717C17.1188 16.2239 16.6949 16.4 16.1999 16.4H1.79994ZM16.1999 5.6L9.47244 9.8075C9.39744 9.8525 9.31854 9.8861 9.23574 9.9083C9.15354 9.9311 9.07494 9.9425 8.99994 9.9425C8.92494 9.9425 8.84634 9.9311 8.76414 9.9083C8.68134 9.8861 8.60244 9.8525 8.52744 9.8075L1.79994 5.6V14.6H16.1999V5.6ZM8.99994 8.3L16.1999 3.8H1.79994L8.99994 8.3ZM1.79994 5.825V4.4975V4.52V4.5083V5.825Z" fill="#6287BF"/>
</svg>
