<svg width="18" height="18" viewBox="0 0 18 18" fill="none" xmlns="http://www.w3.org/2000/svg">
<path d="M10.7892 1.22578C10.8132 1.13412 10.8552 1.04816 10.9129 0.972951C10.9705 0.89774 11.0426 0.834786 11.1248 0.787777C11.2071 0.740769 11.2979 0.71065 11.392 0.699187C11.486 0.687724 11.5814 0.695147 11.6726 0.721021C13.0168 1.08154 14.2424 1.78938 15.2265 2.77347C16.2106 3.75756 16.9185 4.98325 17.279 6.32745C17.3049 6.4186 17.3123 6.51399 17.3008 6.60805C17.2894 6.7021 17.2592 6.79292 17.2122 6.87518C17.1652 6.95745 17.1023 7.02951 17.0271 7.08713C16.9518 7.14476 16.8659 7.18679 16.7742 7.21078C16.7127 7.2286 16.649 7.2377 16.5849 7.23782C16.4258 7.2369 16.2714 7.18336 16.1459 7.08554C16.0203 6.98771 15.9307 6.85111 15.8909 6.69701C15.591 5.59941 15.0102 4.59897 14.2056 3.79441C13.401 2.98985 12.4006 2.40898 11.303 2.10911C11.2105 2.08611 11.1236 2.04479 11.0474 1.98759C10.9712 1.93038 10.9072 1.85847 10.8593 1.77609C10.8114 1.69372 10.7805 1.60257 10.7685 1.50804C10.7564 1.41351 10.7635 1.31753 10.7892 1.22578ZM10.5549 4.8943C11.165 5.0613 11.7211 5.38436 12.1684 5.83165C12.6156 6.27893 12.9387 6.83502 13.1057 7.44513C13.1441 7.6 13.2334 7.73749 13.3592 7.83556C13.4851 7.93363 13.6402 7.98659 13.7998 7.98594C13.8609 7.98654 13.9217 7.97741 13.98 7.9589C14.0725 7.93591 14.1594 7.89458 14.2356 7.83738C14.3118 7.78018 14.3758 7.70826 14.4237 7.62589C14.4716 7.54352 14.5025 7.45237 14.5145 7.35784C14.5266 7.26331 14.5195 7.16733 14.4938 7.07558C14.2662 6.21885 13.8161 5.4375 13.1893 4.81068C12.5625 4.18386 11.7812 3.73384 10.9244 3.50621C10.8304 3.47194 10.7302 3.45764 10.6303 3.4642C10.5304 3.47077 10.433 3.49806 10.3442 3.54434C10.2555 3.59062 10.1773 3.65488 10.1147 3.73302C10.0522 3.81116 10.0065 3.90148 9.98079 3.99822C9.95503 4.09495 9.9497 4.196 9.96514 4.29491C9.98057 4.39382 10.0164 4.48843 10.0704 4.57272C10.1244 4.65701 10.1954 4.72914 10.2788 4.7845C10.3622 4.83987 10.4562 4.87726 10.5549 4.8943ZM17.9911 13.5924C17.8316 14.8096 17.2356 15.9275 16.3138 16.7382C15.392 17.5489 14.2071 17.9973 12.9795 18C5.82276 18 0 12.1772 0 5.02049C0.00270619 3.79289 0.451105 2.60805 1.26183 1.68624C2.07255 0.764441 3.19043 0.168404 4.40763 0.00895025C4.71792 -0.0254536 5.0311 0.0398748 5.30175 0.195462C5.57241 0.351049 5.78647 0.588805 5.91289 0.874251L7.72462 5.10161C7.81859 5.32103 7.85627 5.56046 7.83424 5.79814C7.8122 6.03583 7.73114 6.26424 7.59843 6.46265L6.10218 8.7521C6.77971 10.1271 7.8961 11.2372 9.27495 11.9068L11.5373 10.4016C11.7356 10.268 11.9645 10.1871 12.2027 10.1666C12.4408 10.1461 12.6803 10.1866 12.8984 10.2844L17.1258 12.0871C17.4112 12.2135 17.649 12.4276 17.8045 12.6982C17.9601 12.9689 18.0255 13.2821 17.9911 13.5924ZM16.5579 13.4121L12.3305 11.6094L10.0772 13.1147C9.86981 13.2517 9.63057 13.3329 9.38262 13.3503C9.13468 13.3676 8.88645 13.3206 8.66203 13.2138C6.98275 12.4015 5.6244 11.0495 4.80422 9.37403C4.69609 9.15036 4.64756 8.90256 4.66336 8.65462C4.67915 8.40669 4.75872 8.16704 4.89436 7.9589L6.39962 5.66946L4.5879 1.44211C3.71805 1.55392 2.91877 1.97896 2.33973 2.63764C1.76069 3.29632 1.44159 4.14348 1.44217 5.02049C1.44456 8.07965 2.66086 11.0128 4.82402 13.176C6.98717 15.3391 9.92036 16.5554 12.9795 16.5578C13.8565 16.5584 14.7037 16.2393 15.3624 15.6603C16.021 15.0812 16.4461 14.282 16.5579 13.4121Z" fill="#6287BF"/>
</svg>
