<svg width="20" height="18" viewBox="0 0 20 18" fill="none" xmlns="http://www.w3.org/2000/svg">
<path d="M11.7999 14.9963H8.19994C6.29038 14.9963 4.45903 14.2185 3.10877 12.8341C1.75851 11.4496 0.999939 9.57188 0.999939 7.61396V3H4.59994V7.61396C4.59994 8.59292 4.97922 9.53179 5.65435 10.224C6.32949 10.9162 7.24516 11.3051 8.19994 11.3051V3H11.7999V7.15257L11.8269 7.14888C12.8134 7.02268 13.7208 6.5314 14.3788 5.76738C15.0368 5.00337 15.3999 4.01924 15.3999 3H18.9999L18.6921 4.5789C18.5078 5.52392 18.1154 6.41328 17.5448 7.17916C16.9743 7.94503 16.2407 8.56718 15.3999 8.99815V8.99815C16.2175 9.27741 16.9467 9.7769 17.5113 10.4443C18.076 11.1117 18.4552 11.9225 18.6093 12.7918L18.9999 14.9963H15.3999C15.3999 13.9771 15.0368 12.9929 14.3788 12.2289C13.7208 11.4649 12.8134 10.9736 11.8269 10.8474V15L11.7999 14.9963Z" stroke="#6287BF" stroke-width="2" stroke-linecap="round" stroke-linejoin="round"/>
</svg>
