<svg width="18" height="18" viewBox="0 0 18 18" fill="none" xmlns="http://www.w3.org/2000/svg">
<path d="M15.3768 2.61905C14.5476 1.78558 13.5598 1.12475 12.4712 0.675098C11.3826 0.225444 10.2148 -0.00403209 9.03615 5.36125e-05C4.09748 5.36125e-05 0.0723617 4.00504 0.0723617 8.91903C0.0723617 10.494 0.488441 12.024 1.26633 13.374L0 18L4.74873 16.758C6.06028 17.469 7.53465 17.847 9.03615 17.847C13.9748 17.847 17.9999 13.842 17.9999 8.92803C17.9999 6.54303 17.0683 4.30204 15.3768 2.61905ZM9.03615 16.335C7.69746 16.335 6.38591 15.975 5.23717 15.3L4.96581 15.138L2.14371 15.876L2.89446 13.14L2.71356 12.861C1.96981 11.6793 1.5749 10.3133 1.57386 8.91903C1.57386 4.83304 4.92059 1.50305 9.02711 1.50305C11.0171 1.50305 12.8894 2.27705 14.2914 3.68104C14.9856 4.36861 15.5358 5.18643 15.91 6.08712C16.2842 6.9878 16.475 7.95343 16.4713 8.92803C16.4894 13.014 13.1427 16.335 9.03615 16.335ZM13.1246 10.791C12.8985 10.683 11.7949 10.143 11.5959 10.062C11.3879 9.99002 11.2432 9.95402 11.0894 10.17C10.9356 10.395 10.5105 10.899 10.3839 11.043C10.2573 11.196 10.1216 11.214 9.89545 11.097C9.66932 10.989 8.9457 10.746 8.09545 9.99002C7.42611 9.39603 6.98289 8.66703 6.84722 8.44203C6.72058 8.21703 6.82913 8.10003 6.94671 7.98303C7.04621 7.88403 7.17284 7.72203 7.28139 7.59603C7.38993 7.47003 7.43515 7.37103 7.50752 7.22703C7.57988 7.07403 7.5437 6.94803 7.48943 6.84003C7.43515 6.73203 6.98289 5.63404 6.80199 5.18404C6.62109 4.75204 6.43114 4.80604 6.29546 4.79704H5.86129C5.70752 4.79704 5.47235 4.85104 5.26431 5.07604C5.06531 5.30104 4.48642 5.84104 4.48642 6.93903C4.48642 8.03703 5.29144 9.09903 5.39998 9.24303C5.50853 9.39603 6.98289 11.646 9.2261 12.609C9.75977 12.843 10.1758 12.978 10.5015 13.077C11.0351 13.248 11.5236 13.221 11.9125 13.167C12.3467 13.104 13.2422 12.627 13.4231 12.105C13.613 11.583 13.613 11.142 13.5497 11.043C13.4864 10.944 13.3507 10.899 13.1246 10.791Z" fill="#6287BF"/>
</svg>
